<svg width="44" height="45" viewBox="0 0 44 45" fill="none" xmlns="http://www.w3.org/2000/svg">
<circle cx="22" cy="22.7781" r="19" fill="#87D29C"/>
<path d="M22 6.27814C31.075 6.27814 38.5 13.7031 38.5 22.7781C38.5 31.8531 31.075 39.2781 22 39.2781C12.925 39.2781 5.5 31.8531 5.5 22.7781C5.5 13.7031 12.925 6.27814 22 6.27814ZM22 3.52814C11.4125 3.52814 2.75 12.1906 2.75 22.7781C2.75 33.3656 11.4125 42.0281 22 42.0281C32.5875 42.0281 41.25 33.3656 41.25 22.7781C41.25 12.1906 32.5875 3.52814 22 3.52814Z" fill="#080A0A"/>
<path d="M33 21.4031H23.375V11.7781H20.625V21.4031H11V24.1531H20.625V33.7781H23.375V24.1531H33V21.4031Z" fill="#080A0A"/>
</svg>
