<svg width="32" height="33" viewBox="0 0 32 33" fill="none" xmlns="http://www.w3.org/2000/svg">
<path d="M28 6.052H4C3.46957 6.052 2.96086 6.26272 2.58579 6.63779C2.21071 7.01286 2 7.52157 2 8.052V24.052C2 24.5824 2.21071 25.0911 2.58579 25.4662C2.96086 25.8413 3.46957 26.052 4 26.052H28C28.5304 26.052 29.0391 25.8413 29.4142 25.4662C29.7893 25.0911 30 24.5824 30 24.052V8.052C30 7.52157 29.7893 7.01286 29.4142 6.63779C29.0391 6.26272 28.5304 6.052 28 6.052ZM25.8 8.052L16 14.832L6.2 8.052H25.8ZM4 24.052V8.962L15.43 16.872C15.5974 16.9881 15.7963 17.0504 16 17.0504C16.2037 17.0504 16.4026 16.9881 16.57 16.872L28 8.962V24.052H4Z" fill="#080A0A"/>
</svg>
