<svg width="32" height="33" viewBox="0 0 32 33" fill="none" xmlns="http://www.w3.org/2000/svg">
<path d="M2 22.052H30V24.052H2V22.052Z" fill="#080A0A"/>
<path d="M2 26.052H30V28.052H2V26.052Z" fill="#080A0A"/>
<path d="M24 10.052C23.6044 10.052 23.2178 10.1693 22.8889 10.3891C22.56 10.6088 22.3036 10.9212 22.1522 11.2866C22.0009 11.6521 21.9613 12.0542 22.0384 12.4422C22.1156 12.8301 22.3061 13.1865 22.5858 13.4662C22.8655 13.7459 23.2219 13.9364 23.6098 14.0136C23.9978 14.0907 24.3999 14.0511 24.7654 13.8998C25.1308 13.7484 25.4432 13.492 25.6629 13.1631C25.8827 12.8342 26 12.4476 26 12.052C26 11.5216 25.7893 11.0129 25.4142 10.6378C25.0391 10.2627 24.5304 10.052 24 10.052Z" fill="#080A0A"/>
<path d="M16 16.052C15.2089 16.052 14.4355 15.8174 13.7777 15.3779C13.1199 14.9384 12.6072 14.3136 12.3045 13.5827C12.0017 12.8518 11.9225 12.0476 12.0769 11.2716C12.2312 10.4957 12.6122 9.78299 13.1716 9.22358C13.731 8.66417 14.4437 8.2832 15.2196 8.12886C15.9956 7.97452 16.7998 8.05374 17.5307 8.35649C18.2616 8.65924 18.8864 9.17193 19.3259 9.82972C19.7654 10.4875 20 11.2609 20 12.052C19.9987 13.1125 19.5768 14.1291 18.827 14.879C18.0771 15.6288 17.0605 16.0507 16 16.052ZM16 10.052C15.6044 10.052 15.2178 10.1693 14.8889 10.3891C14.56 10.6088 14.3036 10.9212 14.1522 11.2866C14.0009 11.6521 13.9613 12.0542 14.0384 12.4422C14.1156 12.8301 14.3061 13.1865 14.5858 13.4662C14.8655 13.7459 15.2219 13.9364 15.6098 14.0136C15.9978 14.0907 16.3999 14.0511 16.7654 13.8998C17.1308 13.7484 17.4432 13.492 17.6629 13.1631C17.8827 12.8342 18 12.4476 18 12.052C17.9995 11.5217 17.7886 11.0133 17.4136 10.6384C17.0387 10.2634 16.5303 10.0525 16 10.052Z" fill="#080A0A"/>
<path d="M8 10.052C7.60444 10.052 7.21776 10.1693 6.88886 10.3891C6.55996 10.6088 6.30362 10.9212 6.15224 11.2866C6.00087 11.6521 5.96126 12.0542 6.03843 12.4422C6.1156 12.8301 6.30608 13.1865 6.58579 13.4662C6.86549 13.7459 7.22186 13.9364 7.60982 14.0136C7.99778 14.0907 8.39992 14.0511 8.76537 13.8998C9.13082 13.7484 9.44318 13.492 9.66294 13.1631C9.8827 12.8342 10 12.4476 10 12.052C10 11.5216 9.78929 11.0129 9.41421 10.6378C9.03914 10.2627 8.53043 10.052 8 10.052Z" fill="#080A0A"/>
<path d="M28 20.052H4C3.46997 20.0507 2.96203 19.8395 2.58724 19.4648C2.21246 19.09 2.00132 18.582 2 18.052V6.052C2.00132 5.52197 2.21246 5.01403 2.58724 4.63925C2.96203 4.26446 3.46997 4.05332 4 4.052H28C28.53 4.05332 29.038 4.26446 29.4128 4.63925C29.7875 5.01403 29.9987 5.52197 30 6.052V18.052C29.9992 18.5822 29.7882 19.0904 29.4133 19.4653C29.0384 19.8402 28.5302 20.0512 28 20.052ZM28 6.052H4V18.052H28V6.052Z" fill="#080A0A"/>
</svg>
