<svg width="32" height="33" viewBox="0 0 32 33" fill="none" xmlns="http://www.w3.org/2000/svg">
<path d="M11.92 24.9464C13.6091 24.957 15.2836 24.6322 16.8462 23.9907C18.4088 23.3492 19.8285 22.4038 21.0229 21.2093C22.2174 20.0149 23.1627 18.5952 23.8043 17.0326C24.4458 15.47 24.7706 13.7956 24.76 12.1064V11.5164C25.6356 10.8749 26.3935 10.0866 27 9.18641C26.1755 9.54701 25.3031 9.78616 24.41 9.89641C25.3569 9.33219 26.0674 8.44408 26.41 7.39641C25.5275 7.92585 24.5598 8.29805 23.55 8.49641C22.8699 7.77178 21.97 7.29147 20.9895 7.1298C20.0089 6.96813 19.0024 7.13411 18.1257 7.60207C17.249 8.07002 16.551 8.81386 16.1396 9.71849C15.7282 10.6231 15.6264 11.6381 15.85 12.6064C14.056 12.5184 12.3007 12.0534 10.6984 11.2419C9.096 10.4304 7.68254 9.29049 6.55 7.89641C5.97892 8.88759 5.80583 10.0587 6.06576 11.1727C6.32569 12.2867 6.99923 13.2603 7.95 13.8964C7.24861 13.8694 6.56345 13.6775 5.95 13.3364V13.3864C5.94377 14.4222 6.29272 15.4289 6.9387 16.2387C7.58469 17.0484 8.48867 17.6123 9.5 17.8364C8.84764 18.0119 8.16429 18.0392 7.5 17.9164C7.79278 18.7998 8.35168 19.571 9.10005 20.1242C9.84841 20.6774 10.7496 20.9856 11.68 21.0064C10.0892 22.2869 8.11209 22.9918 6.07 23.0064C5.71195 22.9961 5.35475 22.966 5 22.9164C7.06696 24.2333 9.4692 24.9276 11.92 24.9164" fill="#080A0A"/>
</svg>
