<svg width="32" height="33" viewBox="0 0 32 33" fill="none" xmlns="http://www.w3.org/2000/svg">
<path d="M29.41 10.038C29.2507 9.44607 28.9387 8.90634 28.5052 8.47286C28.0717 8.03939 27.532 7.72736 26.94 7.56803C24.76 6.97803 16 6.97803 16 6.97803C16 6.97803 7.24002 6.97803 5.06002 7.56803C4.46806 7.72736 3.92833 8.03939 3.49485 8.47286C3.06138 8.90634 2.74936 9.44607 2.59002 10.038C2.18297 12.2613 1.98543 14.5179 2.00002 16.778C1.98543 19.0382 2.18297 21.2948 2.59002 23.518C2.74936 24.11 3.06138 24.6497 3.49485 25.0832C3.92833 25.5167 4.46806 25.8287 5.06002 25.988C7.24002 26.578 16 26.578 16 26.578C16 26.578 24.76 26.578 26.94 25.988C27.532 25.8287 28.0717 25.5167 28.5052 25.0832C28.9387 24.6497 29.2507 24.11 29.41 23.518C29.8171 21.2948 30.0146 19.0382 30 16.778C30.0146 14.5179 29.8171 12.2613 29.41 10.038ZM13.2 20.978V12.578L20.47 16.778L13.2 20.978Z" fill="#080A0A"/>
</svg>
