<svg width="32" height="33" viewBox="0 0 32 33" fill="none" xmlns="http://www.w3.org/2000/svg">
<path d="M26.67 4.00635H5.33C4.97807 4.00896 4.6413 4.14993 4.39244 4.39879C4.14358 4.64765 4.00262 4.98442 4 5.33635V26.6763C4.00262 27.0283 4.14358 27.365 4.39244 27.6139C4.6413 27.8628 4.97807 28.0037 5.33 28.0063H16.82V18.7263H13.7V15.0963H16.82V12.4263C16.82 9.32635 18.71 7.63635 21.49 7.63635C22.42 7.63635 23.35 7.63635 24.28 7.77635V11.0063H22.37C20.86 11.0063 20.57 11.7263 20.57 12.7763V15.0863H24.17L23.7 18.7163H20.57V28.0063H26.67C27.0219 28.0037 27.3587 27.8628 27.6076 27.6139C27.8564 27.365 27.9974 27.0283 28 26.6763V5.33635C27.9974 4.98442 27.8564 4.64765 27.6076 4.39879C27.3587 4.14993 27.0219 4.00896 26.67 4.00635Z" fill="#080A0A"/>
</svg>
