<svg width="347" height="251" viewBox="0 0 347 251" fill="none" xmlns="http://www.w3.org/2000/svg">
<g clip-path="url(#clip0)">
<path opacity="0.1" d="M3.74805 136.454C9.23881 159.922 20.8624 180.209 39.2293 190.055C77.4085 210.49 163.505 199.948 227.759 187.841C260.228 181.743 289.7 164.896 311.43 140.012L3.74805 136.454Z" fill="#FAC710"/>
<path opacity="0.1" d="M340.706 25.9866H305.449C304.641 25.9866 303.867 25.6657 303.295 25.0945C302.724 24.5233 302.403 23.7486 302.403 22.9408C302.403 22.1329 302.724 21.3582 303.295 20.787C303.867 20.2158 304.641 19.8949 305.449 19.8949H311.544C310.753 19.8694 310.003 19.5372 309.452 18.9685C308.901 18.3997 308.593 17.6391 308.593 16.8475C308.593 16.0558 308.901 15.2952 309.452 14.7265C310.003 14.1578 310.753 13.8255 311.544 13.8H307.192C306.401 13.7745 305.65 13.4423 305.1 12.8736C304.549 12.3048 304.241 11.5442 304.241 10.7526C304.241 9.96094 304.549 9.20033 305.1 8.63161C305.65 8.06288 306.401 7.73064 307.192 7.70515H325.594C321.51 5.80742 316.737 4.45687 311.237 3.74838C261.061 -2.69441 243.147 1.56916 236.827 5.9624C229.031 11.3709 220.333 15.3498 211.037 17.2665C180.079 23.6524 122.182 31.3382 69.7068 14.8058C43.6256 6.58233 24.2435 20.4737 12.623 43.6766H346.826C346.39 36.9334 345.083 30.7088 342.686 25.256C342.135 25.7294 341.432 25.9888 340.706 25.9866Z" fill="#FAC710"/>
<path opacity="0.1" d="M0.755941 87.47C-0.598189 101.118 -0.138739 114.886 2.12231 128.413L311.667 139.737C320.285 129.824 327.52 118.789 333.175 106.934L0.755941 87.47ZM123.185 116.676H117.09C117.898 116.676 118.673 116.997 119.244 117.568C119.815 118.139 120.136 118.914 120.136 119.722C120.136 120.53 119.815 121.304 119.244 121.876C118.673 122.447 117.898 122.768 117.09 122.768H81.8333C81.0255 122.768 80.2508 122.447 79.6796 121.876C79.1084 121.304 78.7875 120.53 78.7875 119.722C78.7875 118.914 79.1084 118.139 79.6796 117.568C80.2508 116.997 81.0255 116.676 81.8333 116.676H87.9282C87.137 116.651 86.3867 116.318 85.836 115.75C85.2853 115.181 84.9774 114.42 84.9774 113.629C84.9774 112.837 85.2853 112.076 85.836 111.508C86.3867 110.939 87.137 110.607 87.9282 110.581H83.5761C82.7848 110.556 82.0345 110.223 81.4838 109.655C80.9331 109.086 80.6252 108.325 80.6252 107.534C80.6252 106.742 80.9331 105.981 81.4838 105.413C82.0345 104.844 82.7848 104.512 83.5761 104.486H118.833C119.624 104.512 120.374 104.844 120.925 105.413C121.476 105.981 121.784 106.742 121.784 107.534C121.784 108.325 121.476 109.086 120.925 109.655C120.374 110.223 119.624 110.556 118.833 110.581H123.185C123.976 110.607 124.726 110.939 125.277 111.508C125.828 112.076 126.136 112.837 126.136 113.629C126.136 114.42 125.828 115.181 125.277 115.75C124.726 116.318 123.976 116.651 123.185 116.676Z" fill="#FAC710"/>
<path opacity="0.1" d="M346.842 43.879L8.89398 52.1025C4.78223 62.6697 2.07164 74.6096 0.806488 86.9986H340.921C343.141 79.7245 344.783 72.2866 345.833 64.7541C346.845 57.4763 347.25 50.4357 346.842 43.879ZM69.4158 70.8141H63.3209C63.7209 70.8141 64.117 70.8929 64.4865 71.046C64.856 71.1991 65.1918 71.4234 65.4746 71.7063C65.7575 71.9891 65.9818 72.3249 66.1349 72.6944C66.288 73.064 66.3668 73.46 66.3668 73.86C66.3668 74.26 66.288 74.6561 66.1349 75.0256C65.9818 75.3951 65.7575 75.7309 65.4746 76.0138C65.1918 76.2966 64.856 76.5209 64.4865 76.674C64.117 76.8271 63.7209 76.9059 63.3209 76.9059H28.0642C27.2564 76.9059 26.4817 76.585 25.9105 76.0138C25.3393 75.4426 25.0184 74.6678 25.0184 73.86C25.0184 73.0522 25.3393 72.2775 25.9105 71.7063C26.4817 71.1351 27.2564 70.8141 28.0642 70.8141H34.1591C33.3679 70.7887 32.6176 70.4564 32.0669 69.8877C31.5162 69.319 31.2083 68.5584 31.2083 67.7667C31.2083 66.9751 31.5162 66.2145 32.0669 65.6457C32.6176 65.077 33.3679 64.7448 34.1591 64.7193H29.807C29.0157 64.6938 28.2654 64.3615 27.7147 63.7928C27.164 63.2241 26.8561 62.4635 26.8561 61.6718C26.8561 60.8802 27.164 60.1196 27.7147 59.5508C28.2654 58.9821 29.0157 58.6499 29.807 58.6244H65.0636C65.8549 58.6499 66.6052 58.9821 67.1559 59.5508C67.7066 60.1196 68.0145 60.8802 68.0145 61.6718C68.0145 62.4635 67.7066 63.2241 67.1559 63.7928C66.6052 64.3615 65.8549 64.6938 65.0636 64.7193H69.4158C70.207 64.7448 70.9573 65.077 71.508 65.6457C72.0587 66.2145 72.3666 66.9751 72.3666 67.7667C72.3666 68.5584 72.0587 69.319 71.508 69.8877C70.9573 70.4564 70.207 70.7887 69.4158 70.8141Z" fill="#FAC710"/>
<path opacity="0.1" d="M178.266 250.608C239.201 250.608 288.597 247.935 288.597 244.637C288.597 241.339 239.201 238.665 178.266 238.665C117.332 238.665 67.9355 241.339 67.9355 244.637C67.9355 247.935 117.332 250.608 178.266 250.608Z" fill="#FAC710"/>
<path d="M269.86 200.727C269.86 200.727 271.597 203.001 269.057 206.42C266.517 209.839 264.423 212.746 265.262 214.887C265.262 214.887 269.092 208.514 272.22 208.425C275.348 208.336 273.289 204.56 269.86 200.727Z" fill="#FAC710"/>
<path opacity="0.1" d="M269.86 200.727C270.01 200.947 270.129 201.186 270.215 201.438C273.257 205.015 274.877 208.352 271.954 208.435C269.228 208.514 265.961 213.384 265.179 214.615C265.204 214.71 265.235 214.804 265.271 214.896C265.271 214.896 269.101 208.523 272.229 208.435C275.358 208.346 273.289 204.56 269.86 200.727Z" fill="black"/>
<path d="M273.09 203.624C273.09 204.424 273.001 205.072 272.89 205.072C272.78 205.072 272.688 204.424 272.688 203.624C272.688 202.823 272.802 203.2 272.913 203.2C273.023 203.2 273.09 202.823 273.09 203.624Z" fill="#FFD037"/>
<path d="M274.197 204.579C273.495 204.962 272.884 205.192 272.83 205.094C272.777 204.996 273.305 204.607 274.007 204.225C274.709 203.842 274.431 204.12 274.485 204.225C274.538 204.329 274.899 204.196 274.197 204.579Z" fill="#FFD037"/>
<path d="M260.682 200.727C260.682 200.727 258.945 203.001 261.485 206.42C264.025 209.839 266.116 212.746 265.281 214.887C265.281 214.887 261.447 208.514 258.322 208.425C255.197 208.336 257.25 204.56 260.682 200.727Z" fill="#FAC710"/>
<path opacity="0.1" d="M260.682 200.727C260.53 200.946 260.411 201.185 260.328 201.438C257.285 205.015 255.662 208.352 258.588 208.435C261.311 208.514 264.597 213.384 265.363 214.615C265.338 214.71 265.306 214.801 265.271 214.896C265.271 214.896 261.438 208.523 258.313 208.435C255.188 208.346 257.25 204.56 260.682 200.727Z" fill="black"/>
<path d="M257.452 203.624C257.452 204.424 257.541 205.072 257.652 205.072C257.762 205.072 257.854 204.424 257.854 203.624C257.854 202.823 257.74 203.2 257.63 203.2C257.519 203.2 257.452 202.823 257.452 203.624Z" fill="#FFD037"/>
<path d="M256.342 204.579C257.044 204.962 257.658 205.192 257.712 205.094C257.766 204.996 257.237 204.607 256.535 204.225C255.833 203.842 256.111 204.12 256.058 204.225C256.004 204.329 255.64 204.196 256.342 204.579Z" fill="#FFD037"/>
<path d="M258.006 214.599C258.006 214.599 262.864 214.447 264.332 213.406C265.799 212.366 271.806 211.117 272.169 212.774C272.533 214.431 279.469 221.089 273.985 221.133C268.5 221.178 261.242 220.279 259.78 219.391C258.319 218.502 258.006 214.599 258.006 214.599Z" fill="#A8A8A8"/>
<path opacity="0.2" d="M274.08 220.567C268.595 220.611 261.336 219.713 259.875 218.824C258.762 218.144 258.319 215.712 258.17 214.593H258.009C258.009 214.593 258.325 218.508 259.777 219.4C261.229 220.292 268.497 221.187 273.982 221.143C275.563 221.143 276.113 220.567 276.082 219.732C275.86 220.245 275.256 220.558 274.08 220.567Z" fill="black"/>
<path d="M85.1543 216.376C85.7348 215.903 86.1582 215.264 86.3689 214.545C86.5239 213.821 86.2139 212.964 85.5212 212.682C84.7431 212.385 83.9113 212.926 83.2787 213.47C82.6462 214.014 81.9282 214.637 81.1027 214.52C81.5272 214.135 81.8448 213.647 82.0244 213.104C82.204 212.56 82.2395 211.979 82.1274 211.417C82.0914 211.184 81.9931 210.966 81.8428 210.784C81.4095 210.323 80.6282 210.519 80.1095 210.882C78.4648 212.04 78.0062 214.276 77.9967 216.285C77.8322 215.56 77.9714 214.804 77.9682 214.071C77.9651 213.337 77.7595 212.489 77.1332 212.1C76.7446 211.893 76.3085 211.79 75.8681 211.803C75.128 211.774 74.3056 211.85 73.7996 212.388C73.167 213.062 73.3346 214.188 73.8818 214.918C74.429 215.649 75.2576 216.123 76.0199 216.633C76.6334 216.997 77.1566 217.496 77.5508 218.091C77.5955 218.175 77.6336 218.263 77.6646 218.353H82.2982C83.3351 217.826 84.2958 217.161 85.1543 216.376Z" fill="#FAC710"/>
<path d="M48.3289 221.367C48.3289 221.367 43.8819 206.277 49.1607 195.172C51.4079 190.528 52.0872 185.279 51.0964 180.215C50.6076 177.817 49.8993 175.469 48.9804 173.2" stroke="#535461" stroke-width="2" stroke-miterlimit="10"/>
<path d="M52.254 166.178C52.254 168.029 48.9077 173.393 48.9077 173.393C48.9077 173.393 45.5582 168.016 45.5582 166.178C45.5849 165.308 45.9494 164.483 46.5743 163.877C47.1992 163.271 48.0356 162.932 48.9061 162.932C49.7766 162.932 50.6129 163.271 51.2379 163.877C51.8628 164.483 52.2272 165.308 52.254 166.178Z" fill="#FAC710"/>
<path d="M57.789 176.423C56.7864 177.976 51.0584 180.658 51.0584 180.658C51.0584 180.658 51.1628 174.332 52.1686 172.783C52.6628 172.064 53.418 171.566 54.2736 171.395C55.1291 171.225 56.0174 171.395 56.7497 171.869C57.4819 172.343 58.0001 173.084 58.1943 173.935C58.3884 174.785 58.243 175.678 57.789 176.423Z" fill="#FAC710"/>
<path d="M57.5486 193.93C55.8976 194.761 49.6003 194.186 49.6003 194.186C49.6003 194.186 52.8834 188.78 54.5344 187.949C54.9282 187.74 55.3596 187.612 55.8033 187.572C56.2471 187.533 56.6944 187.582 57.1189 187.717C57.5434 187.852 57.9367 188.071 58.2757 188.36C58.6147 188.649 58.8926 189.003 59.0931 189.401C59.2936 189.799 59.4128 190.233 59.4435 190.677C59.4742 191.122 59.416 191.568 59.2722 191.99C59.1283 192.411 58.9018 192.8 58.6059 193.133C58.3099 193.466 57.9505 193.737 57.5486 193.93Z" fill="#FAC710"/>
<path d="M54.3826 207.134C52.896 208.235 46.5924 208.716 46.5924 208.716C46.5924 208.716 48.914 202.836 50.3879 201.735C50.7388 201.448 51.1445 201.234 51.5803 201.108C52.0162 200.982 52.4731 200.946 52.9234 201.002C53.3736 201.058 53.8079 201.204 54.1997 201.433C54.5916 201.662 54.9329 201.968 55.2029 202.332C55.473 202.697 55.6661 203.113 55.7706 203.554C55.8752 203.996 55.8889 204.454 55.811 204.901C55.7331 205.348 55.5652 205.774 55.3175 206.154C55.0698 206.535 54.7474 206.86 54.3699 207.112L54.3826 207.134Z" fill="#FAC710"/>
<path d="M44.0306 181.015C45.3558 182.303 51.5361 183.64 51.5361 183.64C51.5361 183.64 50.0211 177.501 48.6895 176.211C48.3768 175.891 48.0033 175.638 47.5911 175.465C47.1788 175.292 46.7361 175.203 46.289 175.204C45.8419 175.205 45.3995 175.295 44.9879 175.47C44.5763 175.644 44.2038 175.899 43.8924 176.22C43.5809 176.541 43.3368 176.921 43.1745 177.337C43.0121 177.754 42.9348 178.199 42.9471 178.645C42.9594 179.092 43.0611 179.532 43.246 179.939C43.431 180.346 43.6956 180.712 44.0242 181.015H44.0306Z" fill="#FAC710"/>
<path d="M40.5229 196.504C42.1739 197.336 48.4712 196.76 48.4712 196.76C48.4712 196.76 45.1881 191.358 43.5371 190.523C42.7465 190.144 41.8389 190.091 41.0092 190.374C40.1795 190.657 39.4939 191.254 39.0993 192.037C38.7048 192.819 38.6329 193.726 38.8991 194.561C39.1652 195.396 39.7482 196.094 40.5229 196.504Z" fill="#FAC710"/>
<path d="M39.1819 212.028C40.6684 213.125 46.9689 213.609 46.9689 213.609C46.9689 213.609 44.6505 207.729 43.1734 206.628C42.4581 206.151 41.5867 205.968 40.7397 206.115C39.8926 206.263 39.1347 206.731 38.623 207.421C38.1113 208.112 37.8849 208.974 37.9907 209.827C38.0965 210.68 38.5264 211.46 39.1913 212.005L39.1819 212.028Z" fill="#FAC710"/>
<path d="M52.254 166.178C52.254 168.029 48.9077 173.393 48.9077 173.393C48.9077 173.393 45.5582 168.016 45.5582 166.178C45.5849 165.308 45.9494 164.483 46.5743 163.877C47.1992 163.271 48.0356 162.932 48.9061 162.932C49.7766 162.932 50.6129 163.271 51.2379 163.877C51.8628 164.483 52.2272 165.308 52.254 166.178Z" fill="#FAC710"/>
<path d="M57.789 176.423C56.7864 177.976 51.0584 180.658 51.0584 180.658C51.0584 180.658 51.1628 174.332 52.1686 172.783C52.6628 172.064 53.418 171.566 54.2736 171.395C55.1291 171.225 56.0174 171.395 56.7497 171.869C57.4819 172.343 58.0001 173.084 58.1943 173.935C58.3884 174.785 58.243 175.678 57.789 176.423Z" fill="#FAC710"/>
<path d="M57.5486 193.93C55.8976 194.761 49.6003 194.186 49.6003 194.186C49.6003 194.186 52.8834 188.78 54.5344 187.949C54.9282 187.74 55.3596 187.612 55.8033 187.572C56.2471 187.533 56.6944 187.582 57.1189 187.717C57.5434 187.852 57.9367 188.071 58.2757 188.36C58.6147 188.649 58.8926 189.003 59.0931 189.401C59.2936 189.799 59.4128 190.233 59.4435 190.677C59.4742 191.122 59.416 191.568 59.2722 191.99C59.1283 192.411 58.9018 192.8 58.6059 193.133C58.3099 193.466 57.9505 193.737 57.5486 193.93Z" fill="#FAC710"/>
<path d="M54.3826 207.134C52.896 208.235 46.5924 208.716 46.5924 208.716C46.5924 208.716 48.914 202.836 50.3879 201.735C50.7388 201.448 51.1445 201.234 51.5803 201.108C52.0162 200.982 52.4731 200.946 52.9234 201.002C53.3736 201.058 53.8079 201.204 54.1997 201.433C54.5916 201.662 54.9329 201.968 55.2029 202.332C55.473 202.697 55.6661 203.113 55.7706 203.554C55.8752 203.996 55.8889 204.454 55.811 204.901C55.7331 205.348 55.5652 205.774 55.3175 206.154C55.0698 206.535 54.7474 206.86 54.3699 207.112L54.3826 207.134Z" fill="#FAC710"/>
<path d="M44.0306 181.015C45.3558 182.303 51.5361 183.64 51.5361 183.64C51.5361 183.64 50.0211 177.501 48.6895 176.211C48.3768 175.891 48.0033 175.638 47.5911 175.465C47.1788 175.292 46.7361 175.203 46.289 175.204C45.8419 175.205 45.3995 175.295 44.9879 175.47C44.5763 175.644 44.2038 175.899 43.8924 176.22C43.5809 176.541 43.3368 176.921 43.1745 177.337C43.0121 177.754 42.9348 178.199 42.9471 178.645C42.9594 179.092 43.0611 179.532 43.246 179.939C43.431 180.346 43.6956 180.712 44.0242 181.015H44.0306Z" fill="#FAC710"/>
<path d="M40.5229 196.504C42.1739 197.336 48.4712 196.76 48.4712 196.76C48.4712 196.76 45.1881 191.358 43.5371 190.523C42.7465 190.144 41.8389 190.091 41.0092 190.374C40.1795 190.657 39.4939 191.254 39.0993 192.037C38.7048 192.819 38.6329 193.726 38.8991 194.561C39.1652 195.396 39.7482 196.094 40.5229 196.504Z" fill="#FAC710"/>
<path d="M39.1819 212.028C40.6684 213.125 46.9689 213.609 46.9689 213.609C46.9689 213.609 44.6505 207.729 43.1734 206.628C42.4581 206.151 41.5867 205.968 40.7397 206.115C39.8926 206.263 39.1347 206.731 38.623 207.421C38.1113 208.112 37.8849 208.974 37.9907 209.827C38.0965 210.68 38.5264 211.46 39.1913 212.005L39.1819 212.028Z" fill="#FAC710"/>
<path d="M37.8123 220.419C37.8123 220.419 43.2271 219.343 44.6694 217.91C46.1117 216.478 52.6082 213.97 53.3294 215.76C54.0505 217.55 63.071 223.642 56.9351 224.717C50.7991 225.792 42.5028 226.15 40.7 225.432C38.8971 224.714 37.8123 220.419 37.8123 220.419Z" fill="#A8A8A8"/>
<path opacity="0.2" d="M56.9445 224.046C50.8117 225.122 42.5123 225.479 40.7095 224.764C39.3368 224.217 38.3816 221.601 38.0052 220.377L37.8123 220.419C37.8123 220.419 38.8971 224.717 40.7 225.432C42.5028 226.147 50.8022 225.789 56.9351 224.717C58.7063 224.401 59.2123 223.676 59.0226 222.756C58.8802 223.354 58.2635 223.816 56.9445 224.046Z" fill="black"/>
<path d="M229.078 83.3202C230.777 81.4225 230.112 78.4652 230.112 78.4652C230.112 78.4652 222.098 58.0393 221.209 57.8147C220.32 57.5901 218.09 52.4378 218.09 52.4378C218.09 52.4378 196.719 32.1226 195.95 32.1226C195.182 32.1226 187.379 26.5117 186.379 26.401C185.38 26.2903 183.817 25.7273 182.147 24.8195C180.477 23.9118 163.556 24.9334 162.889 25.7178C162.221 26.5022 159.093 27.0652 159.093 27.0652C159.093 27.0652 152.748 27.4004 151.856 28.5232C150.964 29.6461 144.401 30.2407 144.401 30.2407C144.401 30.2407 141.172 31.4426 145.556 34.6339C144.152 34.8553 142.51 35.0261 140.843 35.1463C140.426 35.1748 140.002 35.2033 139.578 35.2254H139.328C139.048 34.3791 138.502 33.6458 137.772 33.1347C137.294 32.8754 136.801 32.6462 136.295 32.4484C135.511 32.0316 134.777 31.5276 134.106 30.946C130.861 28.3655 127.399 26.0712 123.757 24.0889C123.195 23.7369 122.568 23.5014 121.913 23.3962C120.556 23.2665 119.345 24.2186 118.017 24.538C115.682 25.0978 113.329 23.6745 110.929 23.6524C107.93 23.6239 105.201 25.9581 104.287 28.8364C103.948 29.9023 103.796 31.0883 103.066 31.9328C102.117 33.0367 100.513 33.198 99.2133 33.8527C98.2714 34.344 97.4821 35.084 96.9312 35.9924C96.3803 36.9007 96.0888 37.9427 96.0884 39.005V39.0303C96.0884 39.198 96.0884 39.3656 96.1169 39.5332C96.2655 40.887 96.8918 42.1363 97.3504 43.4204C97.8217 44.7362 98.1194 46.1078 98.236 47.5005C98.2376 47.5153 98.2376 47.5301 98.236 47.5448C98.255 47.7757 98.2708 48.0066 98.2803 48.2407C98.2803 48.2881 98.2803 48.3387 98.2803 48.3893C98.2803 48.6107 98.2803 48.8353 98.2803 49.0599C98.2803 50.2681 98.2392 51.4858 98.2423 52.694V52.7573V53.3044C98.2423 53.3487 98.2423 53.393 98.2423 53.4373C98.2423 53.5986 98.2423 53.7536 98.2613 53.9244V54.0952C98.2613 54.2438 98.2834 54.3956 98.2993 54.5443C98.2993 54.6075 98.2993 54.674 98.3151 54.7372C98.3151 54.8827 98.3499 55.0251 98.3688 55.1674L98.3973 55.3698C98.4195 55.5121 98.4448 55.6545 98.4701 55.7968L98.508 55.9929C98.5396 56.1447 98.5776 56.3092 98.6156 56.4483C98.6314 56.5021 98.6409 56.5527 98.6535 56.6065C98.7104 56.8174 98.7737 57.0198 98.8433 57.2138C99.3169 58.5418 100.099 59.7386 101.125 60.7058C102.151 61.6729 103.392 62.3829 104.745 62.7773C105.255 62.9178 105.782 62.9839 106.311 62.9734C107.26 62.9512 108.167 62.6571 108.73 62.0087C108.87 62.1668 109.006 62.325 109.151 62.4831C111.214 64.7266 113.787 66.4396 116.653 67.4768C119.519 68.514 122.593 68.8449 125.614 68.4414C128.635 68.0379 131.514 66.912 134.007 65.159C136.5 63.406 138.534 61.0776 139.935 58.3714C140.268 58.2986 140.597 58.2322 140.929 58.169C141.504 58.0614 142.083 57.9602 142.665 57.8527L143.225 57.7641L143.446 57.7262C146.293 57.277 149.057 56.9765 151.037 56.7773L143.212 57.7483C143.212 57.7483 141.314 66.8606 140.767 67.8695C140.22 68.8785 142.665 70.5611 142.665 70.5611C142.665 70.5611 144.781 73.142 144.781 73.9296C144.781 74.7172 147.229 76.9596 147.896 78.1932C147.981 78.3496 148.088 78.4934 148.213 78.6202C147.719 78.8113 147.262 79.0887 146.865 79.4393C145.319 80.9038 145.834 83.472 145.126 85.4836C144.683 86.7488 143.756 87.7735 142.864 88.7699C142.544 89.0951 142.275 89.4673 142.067 89.8737C141.951 90.143 141.88 90.4292 141.855 90.7214C141.839 90.8832 141.833 91.0459 141.836 91.2084V91.2654C141.836 91.3919 141.836 91.5152 141.862 91.6386C141.862 91.6924 141.862 91.7461 141.862 91.7999C142.017 93.122 142.466 94.3998 142.602 95.7219C142.738 97.044 142.573 98.3755 142.845 99.6628C142.94 100.112 143.086 100.548 143.282 100.963L138.753 106.023C138.753 106.023 138.724 106.273 138.715 106.684C134.938 109.819 129.099 115.733 131.184 120.949C131.411 121.52 131.622 122.068 131.816 122.591C130.282 123.568 129.776 124.729 132.076 125.886C132.439 126.07 132.791 126.228 133.135 126.37C134.315 129.834 134.777 130.798 136.754 128.246C136.966 127.967 137.212 127.613 137.481 127.231C140.264 127.174 141.874 125.886 141.874 125.886C141.874 125.886 149.665 125.437 151.679 126.674C152.688 127.306 155.06 127.433 157.161 127.417C157.132 129.68 157.238 131.942 157.477 134.192C157.477 134.192 157.142 143.731 158.033 145.752C158.925 147.773 159.419 151.253 159.419 151.253C159.419 151.253 157.923 154.618 158.812 156.414C159.7 158.211 158.033 160.792 158.033 160.792V167.412L158.666 167.368C158.619 167.813 158.559 168.282 158.479 168.728C158.296 169.762 158.021 170.689 157.597 170.989C156.484 171.789 156.373 176.05 156.373 176.05C156.373 176.05 154.592 181.215 154.924 182.113C155.256 183.011 152.812 184.804 153.368 186.152C153.925 187.499 155.064 196.026 156.054 198.487C157.044 200.948 154.036 200.284 154.036 200.284L154.924 206.679C154.924 206.679 155.816 213.188 155.149 213.637C154.482 214.086 150.642 217.341 153.283 219.248C153.488 219.397 153.697 219.533 153.915 219.663C153.927 219.958 153.92 220.254 153.893 220.548C153.843 221.051 153.716 221.453 153.435 221.497C152.65 221.611 151.091 222.395 150.762 222.06C150.433 221.725 148.548 222.908 146.65 223.294L146.388 223.335L143.924 222.702C140.359 221.344 136.446 221.2 132.791 222.291C132.791 222.291 131.003 222.569 130.137 223.904C129.697 224.587 129.504 225.549 129.896 226.89C131.086 230.856 139.192 232.222 139.192 232.222C139.192 232.222 142.001 232.801 145.376 233.567C145.265 233.567 145.151 233.567 145.037 233.567C144.106 233.56 143.206 233.903 142.515 234.528C141.824 235.153 141.392 236.014 141.305 236.941C141.218 237.868 141.482 238.795 142.044 239.537C142.606 240.28 143.427 240.784 144.343 240.952C145.259 241.119 146.205 240.936 146.994 240.44C147.782 239.945 148.356 239.171 148.602 238.273C148.848 237.374 148.748 236.416 148.323 235.588C147.897 234.759 147.176 234.121 146.302 233.798C150.098 234.671 154.301 235.733 156.009 236.483C157.281 236.962 158.584 237.353 159.909 237.653C159.974 238.438 160.289 239.182 160.806 239.776C161.323 240.37 162.016 240.783 162.785 240.956C163.553 241.129 164.357 241.052 165.078 240.737C165.8 240.422 166.403 239.884 166.798 239.203C171.963 240.281 176.938 241.196 176.938 241.196L185.247 241.332H185.304C184.325 241.338 183.388 241.733 182.699 242.429C182.01 243.125 181.625 244.065 181.629 245.045C181.632 246.024 182.023 246.962 182.717 247.653C183.411 248.344 184.35 248.733 185.329 248.733C186.308 248.733 187.248 248.344 187.941 247.653C188.635 246.962 189.026 246.024 189.03 245.045C189.033 244.065 188.648 243.125 187.959 242.429C187.27 241.733 186.334 241.338 185.354 241.332L197.933 241.537C197.782 242.049 197.743 242.587 197.819 243.116C197.895 243.644 198.084 244.15 198.373 244.598C198.662 245.047 199.044 245.428 199.494 245.716C199.944 246.003 200.45 246.191 200.978 246.265C201.507 246.339 202.045 246.298 202.557 246.146C203.068 245.993 203.541 245.732 203.942 245.38C204.343 245.029 204.664 244.595 204.883 244.108C205.101 243.621 205.212 243.092 205.208 242.559C205.207 242.254 205.169 241.95 205.094 241.654L216.189 241.834L218.403 239.399C218.527 239.162 218.601 238.903 218.622 238.637C218.688 237.837 218.274 236.622 215.44 236.106C215.231 236.069 209.449 236.16 204.341 236.246V234.24C204.341 234.24 204.199 233.137 204.11 231.837C204.085 231.454 204.063 231.055 204.053 230.663C204.342 230.861 204.663 231.008 205.002 231.096C207.118 231.435 210.012 225.261 210.012 225.261C210.012 225.261 210.012 221.782 210.68 218.976C211.347 216.171 212.577 206.742 212.577 206.742L215.253 195.41C215.253 195.41 216.36 172.289 215.804 171.391C215.247 170.492 216.474 168.921 216.474 168.921C216.474 168.921 217.363 163.983 216.028 162.301C214.693 160.618 216.806 158.932 216.806 158.932C216.806 158.932 217.363 153.097 215.804 150.854C214.244 148.612 216.534 147.04 216.534 147.04L217.091 137.95C219.428 135.593 221.541 121.566 221.655 118.536C221.684 116.83 222.063 115.149 222.768 113.595C222.768 113.595 224.324 111.239 224.549 109.667C224.774 108.095 226.447 104.844 226.447 104.844L229.341 94.0677C230.508 89.7219 230.211 86.5084 229.436 84.2185C229.322 83.8959 229.202 83.6017 229.078 83.3202ZM176.793 83.9528C178.573 85.0756 178.017 85.4109 178.573 86.0846C179.13 86.7583 178.684 86.6444 178.238 87.7672C177.792 88.89 178.127 88.5548 178.349 89.7883C178.57 91.0218 178.463 91.0218 178.463 91.0218L179.019 91.1009L178.244 96.3102C176.979 97.1357 176.4 98.7171 176.138 100.349C175.391 99.375 174.639 98.3629 173.965 97.4203C174.196 96.9048 174.152 96.2912 174.158 95.7124C174.183 93.8147 174.892 92.0023 175.217 90.1331C175.55 88.2315 175.489 86.2819 175.037 84.4051C174.875 83.6989 174.625 83.0157 174.294 82.3713C175.015 82.8521 175.929 83.4214 176.793 83.9654V83.9528ZM178.795 193.936C178.795 193.936 180.202 192.987 181.569 192.123C182.027 195.454 182.46 198.917 182.767 202.049C182.277 200.961 181.935 200.22 181.935 200.22C181.433 199.617 181.133 198.872 181.075 198.089C181.021 196.868 178.795 193.948 178.795 193.948V193.936ZM170.448 78.579C170.764 78.6233 171.213 79.025 171.637 79.5058C171.245 79.1895 170.85 78.8732 170.445 78.5759L170.448 78.579ZM150.076 120.101C148.792 120.506 144.439 120.446 141.852 120.294C142.82 118.64 143.782 116.957 144.636 115.449C145.139 115.579 145.652 115.671 146.17 115.724L154.643 108.282C157.83 109.4 161.307 109.377 164.479 108.218L164.71 108.579C164.808 108.737 164.913 108.895 165.027 109.072L164.815 108.728C164.815 108.728 161.544 110.676 161.876 111.574C162.209 112.473 161.434 114.715 160.21 117.119C159.893 117.72 159.618 118.314 159.352 118.912C156.582 119.172 151.36 119.697 150.076 120.101ZM166.153 223.793L166.105 222.905C166.643 222.788 166.997 222.68 166.997 222.68C166.886 221.361 166.7 220.05 166.44 218.752C166.105 217.404 166.279 217.853 167.582 216.854C168.885 215.855 167.582 204.519 167.582 204.519C167.582 204.519 168.215 203.731 169.217 205.752C170.22 207.773 171.226 209.007 171.561 209.118C171.896 209.228 170.223 211.477 171.561 213.609C172.392 214.988 172.957 216.51 173.228 218.097C173.228 218.097 172.339 221.662 173.674 223.246C173.854 223.431 174.069 223.578 174.307 223.68C174.307 223.974 174.307 224.287 174.307 224.581C174.307 225.172 174.307 225.678 174.278 225.786C174.265 225.862 174.233 225.933 174.184 225.993C174.136 226.052 174.073 226.098 174.001 226.126C173.929 226.154 173.852 226.163 173.776 226.152C173.699 226.142 173.627 226.111 173.566 226.064C173.222 225.84 171.036 226.343 171.185 227.75C170.668 228.361 170.082 228.91 169.439 229.385L166.406 228.601L166.153 223.793Z" fill="url(#paint0_linear)"/>
<path d="M138.835 107.523C138.835 107.523 137.775 116.205 146.179 117.094L147.444 111.084L144.797 107.523L141.005 106.239L138.835 107.523Z" fill="#FAC710"/>
<path opacity="0.1" d="M141.005 106.239L138.835 107.519C138.835 107.519 137.775 116.202 146.179 117.09" fill="black"/>
<path d="M154.083 58.4315C154.083 58.4315 148.412 58.7794 142.725 59.722C142.143 59.8211 141.564 59.9265 140.989 60.0383C140.653 60.1015 140.324 60.168 139.996 60.2407C137.016 60.8543 134.302 61.6513 132.721 62.6698C130.823 63.8875 130.191 60.6076 130.131 56.0499C130.105 54.4463 130.159 52.6877 130.244 50.9102C130.355 48.8543 130.516 46.7731 130.687 44.9007C131.064 40.751 131.497 37.5249 131.497 37.5249C131.497 37.5249 133.483 37.5249 136.137 37.4331L136.991 37.4015C137.823 37.3699 138.705 37.3256 139.594 37.2718C140.015 37.2497 140.438 37.2244 140.859 37.1928C142.542 37.0726 144.202 36.9018 145.603 36.6804C147.096 36.44 148.308 36.1364 148.965 35.7315C151.97 33.9413 154.083 58.4315 154.083 58.4315Z" fill="#F8BDC5"/>
<path d="M179.351 90.4905L178.244 97.8379C178.244 97.8379 175.831 100.843 176.147 102.513C176.464 104.183 179.247 177.985 179.247 177.985C179.247 177.985 184.703 209.152 182.808 213.16C180.914 217.167 182.698 226.52 182.698 226.52L194.052 224.739L197.848 88.4852L179.351 90.4905Z" fill="#474463"/>
<path opacity="0.1" d="M179.351 90.4905L178.244 97.8379C178.244 97.8379 175.831 100.843 176.147 102.513C176.464 104.183 179.247 177.985 179.247 177.985C179.247 177.985 184.703 209.152 182.808 213.16C180.914 217.167 182.698 226.52 182.698 226.52L194.052 224.739L197.848 88.4852L179.351 90.4905Z" fill="black"/>
<path d="M204.398 228.411C204.038 229.009 204.066 230.768 204.167 232.264C204.256 233.551 204.398 234.645 204.398 234.645V242.214C204.398 242.214 192.265 237.985 185.585 233.532C182.831 231.694 182.046 229.986 182.198 228.62C182.419 226.675 184.538 225.407 185.585 225.407C186.585 225.407 189.741 223.664 192.329 222.123C194.362 220.918 196.051 219.84 196.051 219.84C196.051 219.84 205.066 227.298 204.398 228.411Z" fill="#575988"/>
<path opacity="0.1" d="M204.398 228.411C204.038 229.009 204.066 230.768 204.167 232.264C201.469 230.999 193.116 222.895 192.329 222.123C194.362 220.918 196.051 219.84 196.051 219.84C196.051 219.84 205.066 227.298 204.398 228.411Z" fill="black"/>
<path d="M229.334 95.6112L226.44 106.299C226.44 106.299 224.77 109.525 224.543 111.084C224.315 112.643 222.762 114.981 222.762 114.981C222.059 116.519 221.68 118.186 221.649 119.877C221.538 122.885 219.435 136.798 217.085 139.136L216.528 148.153C216.528 148.153 214.314 149.709 215.861 151.949C217.407 154.188 216.863 159.963 216.863 159.963C216.863 159.963 214.747 161.633 216.085 163.303C217.423 164.973 216.528 169.873 216.528 169.873C216.528 169.873 215.304 171.429 215.861 172.321C216.417 173.213 215.31 196.144 215.31 196.144L212.634 207.384C212.634 207.384 211.407 216.737 210.737 219.52C210.066 222.304 210.069 225.751 210.069 225.751C210.069 225.751 207.175 231.875 205.059 231.543C202.943 231.21 192.705 221.187 192.705 221.187L194.15 187.344C194.15 187.344 195.375 172.985 194.596 170.202C193.818 167.418 193.262 153.505 193.262 153.505L191.702 131.576L176.135 107.086C176.135 107.086 175.006 99.9602 178.232 97.8474L178.817 93.9981L179.345 90.5L197.826 88.4947L226.099 81.1505C226.099 81.1505 228.278 82.4947 229.42 85.8506C230.201 88.112 230.502 91.3002 229.334 95.6112Z" fill="#474463"/>
<path d="M180.142 106.871C180.142 106.871 167.007 123.002 167.563 118.495C167.911 115.664 166.115 112.207 164.717 110.021C163.891 108.721 163.208 107.871 163.208 107.871C163.208 107.871 171.223 93.179 171.669 95.1812C171.811 95.8137 172.738 97.2655 173.93 98.9228C176.445 102.396 180.142 106.871 180.142 106.871Z" fill="#FFC1C8"/>
<path opacity="0.3" d="M204.398 240.639V242.22C204.398 242.22 192.265 237.992 185.585 233.538C182.831 231.701 182.046 229.993 182.198 228.626C185.886 230.492 192.746 234.051 194.824 235.654C196.589 237.014 201.15 239.168 204.398 240.639Z" fill="white"/>
<path d="M201.542 246.645C203.591 246.645 205.252 244.984 205.252 242.935C205.252 240.886 203.591 239.225 201.542 239.225C199.493 239.225 197.832 240.886 197.832 242.935C197.832 244.984 199.493 246.645 201.542 246.645Z" fill="#474463"/>
<path d="M163.644 241.436C165.693 241.436 167.355 239.775 167.355 237.726C167.355 235.677 165.693 234.016 163.644 234.016C161.595 234.016 159.934 235.677 159.934 237.726C159.934 239.775 161.595 241.436 163.644 241.436Z" fill="#474463"/>
<path d="M218.679 239.045C218.658 239.309 218.584 239.566 218.46 239.801L216.246 242.214L185.301 241.717L176.979 241.581C176.979 241.581 159.463 238.393 156.05 236.907C152.638 235.42 139.221 232.7 139.221 232.7C139.221 232.7 131.117 231.34 129.928 227.408C129.526 226.077 129.729 225.125 130.168 224.448C131.032 223.123 132.822 222.844 132.822 222.844C136.479 221.764 140.388 221.909 143.956 223.256L195.827 236.6L196.63 236.805C196.63 236.805 215.12 236.461 215.494 236.527C218.331 237.046 218.745 238.251 218.679 239.045Z" fill="#FAC710"/>
<path opacity="0.3" d="M218.679 239.045C215.566 238.64 210.139 238.042 208.741 238.618C208.741 238.618 198.869 237.397 185.288 241.718L176.979 241.582C176.979 241.582 159.463 238.393 156.05 236.907C152.638 235.42 139.221 232.7 139.221 232.7C139.221 232.7 131.117 231.34 129.928 227.409C129.526 226.077 129.729 225.125 130.168 224.448C130.722 226.061 131.788 228.399 133.49 229.053C136.162 230.081 147.147 232.175 147.147 232.175L168.889 237.498C168.889 237.498 181.442 240.222 186.329 238.447C188.331 237.726 192.088 237.084 195.817 236.581L196.621 236.787C196.621 236.787 215.111 236.442 215.484 236.508C218.331 237.046 218.745 238.251 218.679 239.045Z" fill="white"/>
<path d="M188.653 235.037C188.627 235.504 188.569 235.968 188.479 236.426C188.479 236.426 176.182 236.866 169.78 235.917C168.012 235.654 167.013 235.088 166.516 234.411C166.295 234.091 166.157 233.721 166.117 233.334C166.077 232.947 166.135 232.556 166.285 232.197C166.356 231.991 166.446 231.792 166.554 231.602C167.032 230.767 167.766 230.176 168.167 230.255C169.281 230.48 171.191 228.196 171.191 228.196C171.039 226.801 173.231 226.298 173.573 226.526C173.634 226.573 173.706 226.603 173.782 226.614C173.858 226.625 173.936 226.616 174.007 226.588C174.079 226.56 174.142 226.514 174.191 226.454C174.239 226.395 174.271 226.324 174.284 226.248C174.307 226.143 174.313 225.64 174.313 225.052C174.313 224.072 174.284 222.838 174.284 222.838L186.645 224.341L187.135 226.703C187.584 228.81 188.211 231.704 188.479 232.694C188.666 233.46 188.725 234.252 188.653 235.037Z" fill="#474463"/>
<path opacity="0.1" d="M188.653 235.037C188.627 235.504 188.569 235.968 188.479 236.426C188.479 236.426 176.182 236.866 169.78 235.917C168.012 235.654 167.013 235.088 166.516 234.411C168.158 234.313 170.293 234.259 171.615 234.582C173.5 235.05 184.776 235.05 188.653 235.037Z" fill="black"/>
<path d="M166.542 231.596C166.555 231.71 166.537 231.826 166.49 231.931C166.442 232.036 166.367 232.126 166.273 232.191C164.717 233.393 157.249 232.086 157.249 232.086C157.249 232.086 141.991 231.138 139.711 229.581C139.505 229.446 139.333 229.265 139.208 229.053C138.259 227.339 141.694 224.461 141.991 224.461C142.289 224.461 146.391 223.901 146.666 223.847C148.564 223.464 150.462 222.288 150.778 222.623C151.094 222.958 152.676 222.177 153.447 222.066C153.729 222.025 153.858 221.627 153.906 221.118C153.95 220.429 153.927 219.737 153.836 219.052L166.023 222.332L166.13 224.274L166.482 230.739L166.526 231.533C166.533 231.553 166.539 231.575 166.542 231.596Z" fill="#474463"/>
<path opacity="0.1" d="M157.262 232.086C157.262 232.086 142.004 231.138 139.724 229.581C139.518 229.446 139.346 229.265 139.221 229.053C142.311 229.306 147.463 229.733 148.393 229.97C149.731 230.287 157.249 230.749 157.249 230.749H166.494L166.538 231.542C166.94 233.782 157.262 232.086 157.262 232.086Z" fill="black"/>
<path d="M145.066 241.436C147.115 241.436 148.776 239.775 148.776 237.726C148.776 235.677 147.115 234.016 145.066 234.016C143.017 234.016 141.356 235.677 141.356 237.726C141.356 239.775 143.017 241.436 145.066 241.436Z" fill="#474463"/>
<path d="M185.361 249.138C187.41 249.138 189.071 247.477 189.071 245.428C189.071 243.379 187.41 241.718 185.361 241.718C183.312 241.718 181.651 243.379 181.651 245.428C181.651 247.477 183.312 249.138 185.361 249.138Z" fill="#474463"/>
<path d="M147.628 111.53C147.628 111.53 146.925 112.795 145.869 114.674C143.339 119.14 138.787 127.057 136.83 129.562C134.046 133.123 134.271 129.786 131.263 122.328C129.03 116.78 135.903 110.433 139.578 107.548C140.843 106.545 141.729 105.967 141.729 105.967L147.628 111.53Z" fill="#F8BDC5"/>
<path d="M161.095 120.101C161.095 120.101 151.856 120.879 150.076 121.436C148.295 121.993 140.616 121.657 139.954 121.436C139.293 121.215 126.149 124.219 132.161 127.224C138.174 130.229 141.966 127.224 141.966 127.224C141.966 127.224 149.759 126.778 151.771 128.005C153.783 129.233 161.12 128.562 161.12 128.562L161.095 120.101Z" fill="#FFC1C8"/>
<path opacity="0.1" d="M141.903 51.9761C143.041 54.8891 142.33 57.4258 140.989 60.0288C137.63 60.6614 134.47 61.5312 132.711 62.6603C127.701 65.8896 131.487 37.5027 131.487 37.5027C131.487 37.5027 133.91 37.5027 136.981 37.3794C136.051 41.624 139.575 46.0299 141.903 51.9761Z" fill="black"/>
<path d="M142.187 51.3435C142.181 56.0058 140.459 60.5028 137.35 63.9766C134.24 67.4504 129.961 69.658 125.327 70.1782C120.694 70.6983 116.032 69.4947 112.229 66.7969C108.427 64.0991 105.75 60.0959 104.711 55.551C103.671 51.0061 104.341 46.2375 106.592 42.1549C108.844 38.0722 112.519 34.9613 116.918 33.4155C121.317 31.8697 126.13 31.9972 130.441 33.7736C134.752 35.5501 138.257 38.8512 140.29 43.0473C141.542 45.6334 142.191 48.4701 142.187 51.3435Z" fill="#F8BDC5"/>
<path opacity="0.1" d="M229.426 85.841C228.825 86.7154 227.925 87.3398 226.896 87.5964C222.553 88.8205 191.94 96.1679 189.938 95.7219C188.169 95.3297 180.582 94.2385 178.833 93.9886L179.361 90.4905L197.842 88.4852L226.115 81.141C226.115 81.141 228.284 82.4852 229.426 85.841Z" fill="black"/>
<path opacity="0.1" d="M154.083 58.4315C150.465 58.6484 146.859 59.0496 143.282 59.6334C143.333 59.4706 143.326 59.2953 143.263 59.1369L150.664 58.2228C150.664 58.2228 149.582 40.8269 145.603 36.6582C147.096 36.4179 148.308 36.1142 148.966 35.7094C151.97 33.9413 154.083 58.4315 154.083 58.4315Z" fill="black"/>
<path d="M144.401 32.3061C144.401 32.3061 150.971 31.7146 151.86 30.6013C152.748 29.4879 159.096 29.1558 159.096 29.1558C159.096 29.1558 162.212 28.5992 162.892 27.8179C163.572 27.0367 180.477 26.0372 182.147 26.9292C183.817 27.8211 185.377 28.3746 186.379 28.4885C187.382 28.6023 195.172 34.1627 195.95 34.1627C196.728 34.1627 218.09 54.3134 218.09 54.3134C218.09 54.3134 220.304 59.4341 221.209 59.6555C222.114 59.8769 230.116 80.1384 230.116 80.1384C230.116 80.1384 231.229 85.0345 226.889 86.2617C222.55 87.4889 191.933 94.8331 189.931 94.3872C187.929 93.9412 178.466 92.6065 178.466 92.6065C178.466 92.6065 178.576 92.6065 178.355 91.3824C178.134 90.1584 177.798 90.4905 178.241 89.3772C178.684 88.2638 179.133 88.3745 178.576 87.7071C178.02 87.0398 178.576 86.7045 176.796 85.5912C175.015 84.4778 173 83.2538 172.899 82.9217C172.798 82.5896 171.229 80.3598 170.451 80.2491C169.673 80.1384 147.852 74.015 147.852 74.015L142.731 72.345C142.731 72.345 140.283 70.675 140.834 69.6755C141.384 68.6761 143.279 59.6334 143.279 59.6334L151.107 58.6687C151.107 58.6687 149.94 39.8179 145.556 36.655C141.172 33.4922 144.401 32.3061 144.401 32.3061Z" fill="#FAC710"/>
<path opacity="0.1" d="M147.628 111.53C147.628 111.53 146.925 112.795 145.869 114.674C145.705 108.867 141.643 107.741 139.578 107.548C140.843 106.545 141.729 105.967 141.729 105.967L147.628 111.53Z" fill="black"/>
<path d="M142.187 69.3402L142.725 72.3449C142.725 72.3449 144.841 74.9069 144.841 75.685C144.841 76.463 147.289 78.6897 147.96 79.9137C148.63 81.1378 150.964 81.3623 150.073 83.4783C149.181 85.5943 144.063 101.734 144.063 101.734L138.832 107.523C138.832 107.523 147.514 106.741 146.176 117.093L157.42 107.288L166.225 91.2685C166.225 91.2685 157.654 75.0176 157.322 73.6829C156.99 72.3481 142.187 69.3402 142.187 69.3402Z" fill="#FAC710"/>
<path opacity="0.1" d="M168.221 74.9069C168.221 74.9069 175.344 69.8969 175.344 69.3402C175.344 68.7836 168.221 74.9069 168.221 74.9069Z" fill="black"/>
<path opacity="0.1" d="M180.142 81.141C180.142 81.141 183.938 80.249 184.254 78.2469C184.57 76.2448 180.142 81.141 180.142 81.141Z" fill="black"/>
<path opacity="0.1" d="M183.248 86.2617C183.248 86.2617 188.593 83.6144 188.369 83.1557C188.144 82.6971 183.248 86.2617 183.248 86.2617Z" fill="black"/>
<path opacity="0.1" d="M211.856 69.3054C211.856 69.3054 209.642 70.7508 210.3 72.1046C210.958 73.4583 211.856 69.3054 211.856 69.3054Z" fill="black"/>
<path opacity="0.1" d="M218.413 69.897C218.413 69.897 212.106 75.9064 213.533 76.0203C214.959 76.1342 218.413 69.897 218.413 69.897Z" fill="black"/>
<path opacity="0.1" d="M204.066 163.069C204.066 163.069 212.192 164.628 212.413 165.185C212.634 165.742 204.066 163.069 204.066 163.069Z" fill="black"/>
<path opacity="0.1" d="M206.96 168.411C206.96 168.411 211.3 171.084 211.41 171.862C211.521 172.64 206.96 168.411 206.96 168.411Z" fill="black"/>
<path opacity="0.1" d="M205.958 174.424C205.958 174.424 206.625 177.429 207.738 177.875C208.852 178.321 205.958 174.424 205.958 174.424Z" fill="black"/>
<path opacity="0.1" d="M140.309 42.9492C140.309 42.9808 140.309 43.0156 140.293 43.0473C140.141 44.0372 139.736 45.1095 138.806 45.4384C138.245 45.5964 137.644 45.5413 137.121 45.2834C135.539 44.5908 134.132 42.9271 132.443 43.3288C131.639 43.5185 131.076 44.129 130.678 44.8786C130.401 45.4182 130.189 45.9882 130.045 46.577C129.729 47.8169 129.476 49.1643 129.96 50.344C130.039 50.537 130.135 50.7232 130.244 50.9007C130.694 51.6187 131.326 52.2291 131.769 52.9534C132.319 53.858 132.462 55.2149 131.604 55.8348C131.389 55.9762 131.146 56.0679 130.891 56.1035C130.636 56.1391 130.376 56.1175 130.131 56.0404C129.503 55.8431 128.899 55.5757 128.331 55.2433C127.211 54.6582 125.801 54.2945 124.738 54.9713C124.371 55.1991 124.077 55.528 123.726 55.7684C122.996 56.2203 122.13 56.4006 121.281 56.2776C119.269 56.072 118.516 54.7974 116.979 53.8106C115.853 53.0831 113.5 52.7731 112.83 54.2597C112.399 55.2086 113.038 56.4041 112.618 57.372C112.197 58.3398 110.859 58.6371 110.239 59.5354C109.423 60.7183 110.182 62.4294 109.584 63.742C109.493 63.9454 109.37 64.1332 109.221 64.2987C105.869 60.6871 104.048 55.9165 104.142 50.9902C104.235 46.0638 106.235 41.3656 109.721 37.8836C113.207 34.4016 117.908 32.4071 122.834 32.3195C127.761 32.232 132.529 34.0582 136.137 37.4142L136.991 37.3825C137.823 37.3509 138.705 37.3066 139.594 37.2529C139.804 37.6978 139.968 38.1631 140.084 38.6414C140.428 40.0506 140.504 41.5119 140.309 42.9492Z" fill="black"/>
<path d="M112.377 53.8169C111.944 54.7657 112.583 55.9613 112.165 56.926C111.748 57.8907 110.4 58.1911 109.787 59.0894C108.968 60.2755 109.727 61.9866 109.132 63.296C108.449 64.7921 106.387 65.0261 104.805 64.5897C103.454 64.2038 102.214 63.5021 101.188 62.5424C100.162 61.5827 99.3787 60.3926 98.9034 59.0704C97.8311 56.0182 98.5238 52.6593 98.2455 49.4363C98.127 48.0551 97.8293 46.6953 97.3599 45.3909C96.9012 44.1258 96.275 42.8796 96.1263 41.5354C96.0199 40.3948 96.2578 39.2486 96.8091 38.2445C97.3605 37.2404 98.2001 36.4246 99.2196 35.9023C100.523 35.2697 102.126 35.0894 103.075 34.0046C103.803 33.1632 103.958 31.9898 104.296 30.9302C105.21 28.0837 107.94 25.7621 110.938 25.7906C113.336 25.8095 115.682 27.2234 118.026 26.6667C119.351 26.3504 120.556 25.4015 121.923 25.5375C122.577 25.6405 123.204 25.8739 123.767 26.2239C127.405 28.1888 130.866 30.4639 134.113 33.0241C134.784 33.6024 135.52 34.1022 136.304 34.5138C136.81 34.7108 137.303 34.9379 137.782 35.1938C138.803 35.8264 139.338 37.0315 139.629 38.2017C139.978 39.61 140.057 41.0717 139.863 42.5096C139.724 43.5248 139.325 44.6635 138.36 45.0019C137.797 45.1591 137.195 45.1016 136.671 44.8406C135.09 44.1543 133.686 42.4906 131.997 42.8891C130.618 43.2054 129.953 44.7679 129.593 46.1374C129.277 47.3772 129.017 48.7246 129.507 49.9075C129.912 50.888 130.773 51.606 131.313 52.5138C131.854 53.4215 132.009 54.7784 131.149 55.3952C130.2 56.0815 128.913 55.3509 127.872 54.8069C126.759 54.2217 125.342 53.858 124.282 54.5317C123.919 54.7594 123.624 55.0884 123.27 55.3319C122.54 55.7795 121.676 55.9584 120.828 55.838C118.814 55.6324 118.061 54.3577 116.527 53.3709C115.398 52.6371 113.051 52.3272 112.377 53.8169Z" fill="#474463"/>
<path opacity="0.1" d="M173.933 98.907C173.848 99.3815 173.196 99.4352 173.063 99.897C171.798 104.36 169.015 108.374 164.72 110.018C163.894 108.718 163.211 107.867 163.211 107.867C163.211 107.867 171.226 93.1759 171.672 95.178C171.814 95.8011 172.741 97.2497 173.933 98.907Z" fill="black"/>
<path d="M174.171 95.8326C174.171 98.739 173.31 101.58 171.696 103.997C170.081 106.414 167.786 108.298 165.101 109.411C162.416 110.524 159.462 110.815 156.611 110.249C153.76 109.682 151.142 108.283 149.086 106.228C147.031 104.173 145.631 101.554 145.064 98.7037C144.496 95.8531 144.787 92.8983 145.899 90.213C147.011 87.5277 148.895 85.2325 151.311 83.6177C153.728 82.0029 156.569 81.141 159.476 81.141C161.407 81.1339 163.321 81.509 165.107 82.2448C166.893 82.9805 168.515 84.0624 169.881 85.428C171.247 86.7936 172.329 88.416 173.066 90.2017C173.802 91.9874 174.177 93.9011 174.171 95.8326Z" fill="#FFC1C8"/>
<path opacity="0.1" d="M166.048 222.342L166.156 224.284C164.869 224.568 162.42 224.942 160.994 224.069C159.15 222.939 156.427 222.664 153.931 221.127C153.976 220.438 153.952 219.746 153.862 219.062L166.048 222.342Z" fill="black"/>
<path opacity="0.1" d="M187.135 226.709C187.05 227.143 186.971 227.408 186.971 227.408C186.971 227.408 177.15 226.403 174.319 225.046C174.319 224.065 174.291 222.832 174.291 222.832L186.651 224.334L187.135 226.709Z" fill="black"/>
<path d="M184.918 182.549C184.251 184.33 183.915 184.665 184.586 185.554C185.256 186.443 184.918 191.121 183.855 191.564C182.793 192.006 178.795 194.679 178.795 194.679C178.795 194.679 181.009 197.573 181.075 198.791C181.133 199.569 181.434 200.309 181.935 200.907C181.935 200.907 185.364 208.254 186.047 210.591C186.73 212.929 187.357 216.601 187.357 216.601C187.357 216.601 186.158 219.941 186.987 221.836C187.815 223.73 186.987 226.51 186.987 226.51C186.987 226.51 175.028 225.286 173.702 223.714C172.377 222.142 173.26 218.606 173.26 218.606C172.986 217.03 172.42 215.52 171.59 214.153C170.252 212.037 171.906 209.813 171.59 209.7C171.273 209.586 170.252 208.365 169.246 206.363C168.24 204.361 167.614 205.135 167.614 205.135C167.614 205.135 168.917 216.38 167.614 217.382C166.311 218.385 166.134 217.939 166.469 219.28C166.729 220.567 166.915 221.868 167.026 223.177C167.026 223.177 163.018 224.401 161.016 223.177C159.014 221.953 156 221.728 153.352 219.837C150.705 217.945 154.551 214.716 155.219 214.27C155.886 213.824 154.997 207.368 154.997 207.368L154.105 201.024C154.105 201.024 157.11 201.691 156.123 199.243C155.136 196.795 153.994 188.334 153.438 187C152.881 185.665 155.336 183.881 154.997 182.992C154.659 182.103 156.443 176.983 156.443 176.983C156.443 176.983 156.556 172.754 157.667 171.96C158.09 171.663 158.366 170.739 158.549 169.718C158.744 168.512 158.859 167.295 158.894 166.074C158.894 166.074 184.383 164.293 188.502 166.741C190.355 167.842 190.225 169.869 189.45 171.922C188.502 174.427 186.553 176.983 186.063 177.909C185.143 179.617 185.585 180.769 184.918 182.549Z" fill="#575988"/>
<path opacity="0.1" d="M189.419 171.922C186.256 172.811 182.043 174.117 181.357 174.867C180.243 176.094 176.457 167.965 176.457 167.965C176.457 167.965 176.682 174.076 171.672 171.52C167.336 169.306 160.336 169.597 158.527 169.718C158.722 168.512 158.837 167.295 158.872 166.074C158.872 166.074 184.361 164.293 188.479 166.741C190.333 167.842 190.203 169.869 189.419 171.922Z" fill="black"/>
<path d="M176.457 104.629C176.457 104.629 178.671 101.956 179.13 102.959C179.589 103.961 182.201 105.963 182.201 105.963C182.201 105.963 182.951 108.301 184.27 108.636C185.589 108.971 195.495 122.328 195.495 122.328L191.93 129.562L189.036 147.15C189.036 147.15 189.163 149.934 188.375 150.946C187.587 151.958 184.58 151.724 185.974 152.948C187.369 154.172 189.371 155.285 190.485 160.855C191.598 166.425 192.933 169.648 192.933 169.648C192.933 169.648 182.47 172.321 181.357 173.545C180.243 174.769 176.457 166.643 176.457 166.643C176.457 166.643 176.682 172.751 171.672 170.198C166.662 167.646 158.09 168.424 158.09 168.424V161.845C158.09 161.845 159.76 159.283 158.872 157.503C157.983 155.722 159.479 152.382 159.479 152.382C159.479 152.382 158.982 148.931 158.09 146.929C157.198 144.927 157.534 135.464 157.534 135.464C157.534 135.464 156.857 129.34 157.474 126.222C157.997 123.519 158.921 120.909 160.216 118.479C161.44 116.094 162.215 113.867 161.883 112.976C161.551 112.084 164.821 110.154 164.821 110.154L166.633 113.086L167.095 114.838C167.095 114.838 176.682 107.969 176.457 104.629Z" fill="#DCE6F2"/>
<path d="M192.477 120.101C192.477 120.101 198.711 126.222 199.379 127.224C200.046 128.227 202.282 133.439 199.388 135.021C196.494 136.602 185.155 139.041 184.029 138.199C182.903 137.358 176.122 139.148 176.122 139.148C176.122 139.148 164.78 141.932 167.228 137.368C169.676 132.803 175.467 133.572 175.467 133.572C175.467 133.572 184.823 133.556 185.823 132.623C186.822 131.69 194.362 129.688 192.654 125.564C190.946 121.439 192.477 120.101 192.477 120.101Z" fill="#FFC1C8"/>
<path opacity="0.1" d="M174.171 147.486C174.171 147.486 159.65 160.064 161.095 160.064C162.541 160.064 174.171 147.486 174.171 147.486Z" fill="black"/>
<path opacity="0.1" d="M183.855 152.606C183.855 152.606 179.241 153.717 180.133 154.387C181.024 155.058 183.855 152.606 183.855 152.606Z" fill="black"/>
<path opacity="0.1" d="M167.582 122.104C167.582 122.104 173.342 122.619 172.327 124.422C171.311 126.225 167.582 122.104 167.582 122.104Z" fill="black"/>
<path opacity="0.1" d="M163.992 176.167C163.992 176.167 163.211 178.431 163.992 179.646C164.774 180.86 163.992 183.758 163.992 183.758V193.879C163.992 193.879 163.885 201.226 166.551 203.785L163.992 176.167Z" fill="black"/>
<path opacity="0.1" d="M156.367 207.707C156.367 207.707 157.923 209.987 158.147 210.822C158.372 211.657 156.367 207.707 156.367 207.707Z" fill="black"/>
<path opacity="0.1" d="M156.756 203.143C156.756 203.143 160.374 202.475 160.931 202.864C161.487 203.254 156.756 203.143 156.756 203.143Z" fill="black"/>
<path opacity="0.1" d="M155.699 216.778C155.699 216.778 154.64 216.889 156.756 218.043C158.872 219.198 162.99 220.659 163.044 220.159C163.097 219.659 155.699 216.778 155.699 216.778Z" fill="black"/>
<path opacity="0.1" d="M171.188 205.702C171.561 205.702 176.22 205.423 175.951 206.148C175.682 206.872 171.188 205.702 171.188 205.702Z" fill="black"/>
<path opacity="0.1" d="M177.517 199.189C177.517 199.189 178.573 197.355 178.962 198.133C179.351 198.911 177.517 199.189 177.517 199.189Z" fill="black"/>
<path opacity="0.1" d="M174.171 95.8325C174.172 97.1985 173.983 98.5581 173.608 99.8715C172.994 100.428 171.934 100.435 171.178 100.02C170.293 99.5331 169.714 98.6475 169.138 97.8062C168.563 96.9648 167.908 96.1235 166.965 95.763C165.773 95.3138 164.413 95.7629 163.376 96.5094C162.338 97.2558 161.51 98.2427 160.529 99.0397C159.549 99.8367 158.299 100.482 157.05 100.286C156.243 100.163 155.528 99.7071 154.836 99.2674C153.887 98.6696 152.868 97.7398 151.828 97.3381C150.787 96.9364 149.93 97.6544 148.94 97.6544C148.153 97.939 147.295 98.5874 147.454 99.4066C147.538 99.7105 147.675 99.9973 147.858 100.254C148.176 100.88 148.302 101.587 148.219 102.284C148.136 102.981 147.849 103.639 147.394 104.173C146.083 102.278 145.236 100.101 144.921 97.8175C144.607 95.5344 144.834 93.2095 145.584 91.0304C146.335 88.8513 147.587 86.8792 149.24 85.2734C150.893 83.6676 152.9 82.4731 155.1 81.7864C157.3 81.0997 159.631 80.9401 161.904 81.3203C164.177 81.7006 166.328 82.6102 168.185 83.9756C170.042 85.3409 171.551 87.1239 172.591 89.1803C173.632 91.2367 174.174 93.509 174.174 95.8136L174.171 95.8325Z" fill="black"/>
<path d="M148.937 97.2274C148.149 97.512 147.292 98.1604 147.447 98.9828C147.535 99.2851 147.673 99.5705 147.855 99.8273C148.779 101.475 147.998 103.841 146.274 104.606C146.004 104.747 145.695 104.796 145.395 104.746C145.156 104.672 144.939 104.541 144.762 104.366C143.835 103.537 143.196 102.435 142.937 101.219C142.665 99.9538 142.833 98.6127 142.693 97.3128C142.554 96.0128 142.108 94.7319 141.953 93.4224C141.844 92.7752 141.913 92.1104 142.153 91.4994C142.361 91.0963 142.63 90.7273 142.95 90.405C143.838 89.4151 144.765 88.4029 145.211 87.1473C145.916 85.1483 145.404 82.6022 146.948 81.1378C147.662 80.4673 148.662 80.2174 149.547 79.7936C150.381 79.3509 151.18 78.8444 151.935 78.2785C154.798 76.3112 158.277 74.7994 161.68 75.4952C163.04 75.8244 164.342 76.3576 165.542 77.0766C167.771 78.3054 169.888 79.7279 171.868 81.3276C172.724 81.9608 173.472 82.7289 174.082 83.6017C174.537 84.349 174.864 85.1667 175.05 86.0213C175.504 87.8859 175.567 89.8245 175.233 91.7145C174.917 93.5679 174.199 95.3676 174.171 97.2495C174.171 97.8821 174.221 98.5653 173.895 99.1093C173.373 99.9759 172.08 100.058 171.194 99.5774C170.309 99.0967 169.73 98.2047 169.157 97.3634C168.585 96.5221 167.927 95.6807 166.984 95.3233C165.792 94.871 164.432 95.3233 163.395 96.0666C162.357 96.8099 161.532 97.7999 160.548 98.5969C159.564 99.394 158.334 100.039 157.069 99.8431C156.262 99.7197 155.547 99.2674 154.855 98.8278C153.906 98.2269 152.887 97.297 151.85 96.8984C150.813 96.4999 149.924 97.2274 148.937 97.2274Z" fill="#794F6A"/>
<path d="M182.691 120.101C182.691 120.101 166.33 135.239 169.667 142.808C173.003 150.376 187.695 137.02 187.695 137.02L192.933 124.899L182.691 120.101Z" fill="#F8BDC5"/>
<g opacity="0.1">
<path opacity="0.1" d="M146.268 103.708C145.999 103.849 145.691 103.898 145.391 103.847C145.152 103.774 144.935 103.643 144.759 103.465C143.832 102.637 143.192 101.536 142.931 100.321C142.662 99.0398 142.83 97.7113 142.69 96.4114C142.551 95.1114 142.102 93.8336 141.95 92.521C141.95 92.4578 141.95 92.3914 141.934 92.325C141.9 92.6871 141.905 93.052 141.95 93.413C142.102 94.7224 142.551 95.9876 142.69 97.3033C142.83 98.6191 142.662 99.9317 142.931 101.209C143.191 102.426 143.831 103.528 144.759 104.357C144.936 104.533 145.153 104.663 145.391 104.736C145.691 104.787 145.999 104.738 146.268 104.597C147.628 103.993 148.396 102.402 148.216 100.947C148.15 101.534 147.937 102.095 147.596 102.578C147.256 103.06 146.799 103.449 146.268 103.708Z" fill="black"/>
<path opacity="0.1" d="M175.211 90.8194C174.895 92.6729 174.177 94.4725 174.152 96.3545C174.152 96.987 174.202 97.6702 173.873 98.2142C173.354 99.0809 172.061 99.1631 171.175 98.6823C170.29 98.2016 169.711 97.3128 169.135 96.4683C168.56 95.6238 167.908 94.7857 166.962 94.4283C165.773 93.9791 164.413 94.4283 163.376 95.1747C162.338 95.9211 161.509 96.9048 160.529 97.705C159.549 98.5052 158.299 99.1473 157.05 98.9543C156.243 98.8278 155.528 98.3755 154.836 97.9359C153.887 97.3349 152.868 96.4082 151.831 96.0065C150.794 95.6049 149.933 96.3228 148.943 96.3228C148.156 96.6106 147.299 97.2559 147.45 98.0814C147.47 98.1706 147.498 98.2575 147.536 98.3407C147.846 97.8009 148.349 97.3986 148.943 97.2148C149.93 97.2148 150.803 96.5063 151.831 96.8985C152.859 97.2907 153.896 98.2269 154.836 98.8278C155.522 99.2675 156.237 99.7198 157.05 99.8431C158.315 100.039 159.555 99.4035 160.529 98.5969C161.503 97.7904 162.341 96.7941 163.376 96.0666C164.41 95.3392 165.773 94.8711 166.962 95.3234C167.911 95.6808 168.563 96.5316 169.135 97.3634C169.708 98.1953 170.29 99.0777 171.175 99.5774C172.061 100.077 173.354 99.976 173.873 99.1093C174.19 98.5653 174.142 97.8853 174.152 97.2495C174.177 95.3676 174.885 93.568 175.211 91.7145C175.378 90.7626 175.446 89.7959 175.414 88.83C175.393 89.4971 175.326 90.1619 175.211 90.8194Z" fill="black"/>
</g>
<path opacity="0.1" d="M163.1 43.0693C163.1 43.0693 157.091 53.9781 165.314 59.5448C173.538 65.1114 174.332 64.5548 174.332 64.5548C174.332 64.5548 174.218 65.8895 174.332 66.2248C174.446 66.56 176.546 67.335 176.546 67.335C176.546 67.335 179.105 71.4467 182.777 73.2369C186.449 75.0271 187.119 79.2464 187.119 79.2464C187.119 79.2464 187.119 80.695 189.017 82.0297C190.915 83.3644 192.376 87.2611 192.376 87.2611V90.8257C192.376 91.3824 193.043 93.0397 191.598 93.2168C190.153 93.394 191.373 96.7245 191.373 96.7245C191.373 96.7245 189.817 98.6222 190.149 99.5078C190.482 100.393 189.482 102.177 189.482 102.177C189.482 102.177 188.258 103.958 188.369 104.293C188.479 104.629 187.034 105.853 187.366 106.631C187.698 107.409 185.699 108.411 186.031 109.303C186.363 110.195 184.608 110.638 184.608 110.638L179.797 121.771C179.797 121.771 189.919 123.985 192.531 129.562L205.29 106.185C205.29 106.185 212.413 88.7097 212.638 87.5964C212.862 86.4831 211.078 82.4757 211.078 82.4757L202.396 66.6613L189.371 48.2944C189.371 48.2944 179.019 26.2618 163.1 43.0693Z" fill="black"/>
<path opacity="0.1" d="M175.951 47.6714C175.951 47.6714 160.314 53.159 168.55 58.7257C176.786 64.2923 177.567 63.7325 177.567 63.7325C177.567 63.7325 177.457 65.0704 177.567 65.4025C177.678 65.7346 179.781 66.5159 179.781 66.5159C179.781 66.5159 182.343 70.6276 186.016 72.4178C189.688 74.208 190.358 78.4273 190.358 78.4273C190.358 78.4273 190.358 79.8759 192.256 81.2106C194.154 82.5453 195.596 86.442 195.596 86.442V90.0034C195.596 90.5601 196.263 92.2174 194.815 92.3977C193.366 92.578 194.593 95.9054 194.593 95.9054C194.593 95.9054 193.034 97.8031 193.369 98.6855C193.705 99.568 192.702 101.358 192.702 101.358C192.702 101.358 191.478 103.139 191.589 103.474C191.699 103.809 190.251 105.033 190.586 105.812C190.921 106.59 188.916 107.592 189.251 108.484C189.586 109.376 187.825 109.819 187.825 109.819L183.017 120.949C183.017 120.949 191.355 121.379 193.986 126.959L208.507 105.378C208.507 105.378 215.633 87.9033 215.854 86.7899C216.076 85.6766 214.301 81.6566 214.301 81.6566L205.619 65.8422L185.813 54.4178C185.813 54.4178 191.87 30.8607 175.951 47.6714Z" fill="black"/>
<path d="M163.992 43.0694C163.992 43.0694 157.983 53.9781 166.206 59.5448C174.43 65.1115 175.224 64.5548 175.224 64.5548C175.224 64.5548 175.113 65.8896 175.224 66.2248C175.334 66.5601 177.438 67.335 177.438 67.335C177.438 67.335 180 71.4468 183.672 73.2369C187.344 75.0271 188.014 79.2464 188.014 79.2464C188.014 79.2464 188.014 80.695 189.912 82.0298C191.81 83.3645 193.268 87.2612 193.268 87.2612V90.8257C193.268 91.3824 193.935 93.0398 192.487 93.2169C191.038 93.394 192.265 96.7245 192.265 96.7245C192.265 96.7245 190.706 98.6222 191.041 99.5079C191.377 100.393 190.374 102.177 190.374 102.177C190.374 102.177 189.15 103.958 189.261 104.293C189.371 104.629 187.923 105.853 188.258 106.631C188.593 107.409 186.588 108.411 186.923 109.303C187.259 110.195 185.497 110.638 185.497 110.638L180.689 121.771C180.689 121.771 190.791 123.985 193.42 129.562L206.179 106.185C206.179 106.185 213.305 88.7098 213.526 87.5964C213.748 86.4831 211.967 82.4757 211.967 82.4757L203.285 66.6613L190.263 48.3008C190.263 48.3008 179.908 26.2618 163.992 43.0694Z" fill="#FAC710"/>
<g opacity="0.1">
<path opacity="0.1" d="M98.2455 48.5474C98.1285 47.165 97.8307 45.8039 97.3599 44.4989C96.9012 43.2338 96.275 41.9876 96.1263 40.6434C96.1263 40.6023 96.1263 40.5643 96.1263 40.5232C96.0931 40.8598 96.0931 41.1988 96.1263 41.5353C96.275 42.8795 96.9012 44.1162 97.3599 45.3909C97.8308 46.6948 98.1285 48.0548 98.2455 49.4362C98.2898 49.9549 98.3087 50.48 98.3151 51.0176C98.3246 50.1795 98.3151 49.3603 98.2455 48.5474Z" fill="black"/>
<path opacity="0.1" d="M109.132 62.4072C108.452 63.9001 106.387 64.1373 104.805 63.6977C103.455 63.3108 102.216 62.609 101.19 61.6501C100.164 60.6911 99.3805 59.5024 98.9033 58.1816C98.4637 56.8224 98.25 55.4002 98.2707 53.9718C98.2518 55.7146 98.3182 57.4352 98.9033 59.0704C99.3803 60.3916 100.164 61.5809 101.19 62.5404C102.216 63.4998 103.455 64.2022 104.805 64.5896C106.387 65.0261 108.452 64.792 109.132 63.296C109.42 62.6634 109.391 61.9296 109.379 61.2085C109.373 61.6201 109.289 62.0268 109.132 62.4072Z" fill="black"/>
<path opacity="0.1" d="M139.863 41.6144C139.727 42.6265 139.325 43.7651 138.36 44.1036C137.798 44.2606 137.198 44.2043 136.674 43.9454C135.093 43.2559 133.686 41.5922 131.997 41.9939C130.618 42.3102 129.957 43.8695 129.593 45.2422C129.329 46.1095 129.215 47.0154 129.254 47.9212C129.315 47.3157 129.428 46.7167 129.593 46.131C129.957 44.7614 130.618 43.2116 131.997 42.8827C133.686 42.4842 135.08 44.1478 136.674 44.8342C137.197 45.0953 137.798 45.1528 138.36 44.9955C139.325 44.6571 139.727 43.5184 139.863 42.5031C139.95 41.8565 139.981 41.2036 139.958 40.5516C139.942 40.9059 139.91 41.2633 139.863 41.6144Z" fill="black"/>
<path opacity="0.1" d="M131.149 54.5C130.2 55.1863 128.913 54.4557 127.872 53.9085C126.759 53.3234 125.342 52.9596 124.282 53.6333C123.919 53.8611 123.624 54.19 123.27 54.4336C122.541 54.8844 121.677 55.0636 120.828 54.9396C118.814 54.734 118.061 53.4594 116.527 52.4726C115.401 51.7483 113.048 51.4383 112.377 52.9249C112.216 53.3625 112.172 53.8343 112.248 54.2944C112.268 54.1299 112.312 53.9692 112.377 53.8168C113.051 52.3271 115.401 52.637 116.527 53.3645C118.061 54.3513 118.814 55.626 120.828 55.8315C121.677 55.953 122.541 55.7728 123.27 55.3223C123.624 55.0819 123.919 54.753 124.282 54.5253C125.351 53.8611 126.759 54.209 127.872 54.8004C128.913 55.3445 130.194 56.0656 131.149 55.3887C131.706 54.9902 131.838 54.2817 131.715 53.5827C131.65 53.9495 131.448 54.2775 131.149 54.5Z" fill="black"/>
<path opacity="0.1" d="M112.165 56.0371C111.732 57.0303 110.4 57.3023 109.787 58.1974C109.328 58.8616 109.366 59.6902 109.382 60.5221C109.376 60.0155 109.517 59.518 109.787 59.0893C110.4 58.1942 111.732 57.919 112.165 56.9259C112.317 56.4937 112.358 56.0306 112.285 55.5785C112.266 55.736 112.226 55.8903 112.165 56.0371Z" fill="black"/>
</g>
</g>
<defs>
<linearGradient id="paint0_linear" x1="163.167" y1="248.85" x2="163.167" y2="23.3994" gradientUnits="userSpaceOnUse">
<stop stop-color="#808080" stop-opacity="0.25"/>
<stop offset="0.54" stop-color="#808080" stop-opacity="0.12"/>
<stop offset="1" stop-color="#808080" stop-opacity="0.1"/>
</linearGradient>
<clipPath id="clip0">
<rect width="347" height="250.149" fill="white" transform="translate(0 0.458984)"/>
</clipPath>
</defs>
</svg>
