<svg width="347" height="254" viewBox="0 0 347 254" fill="none" xmlns="http://www.w3.org/2000/svg">
<g clip-path="url(#clip0)">
<path d="M252.923 225.964C250.741 226.731 248.399 226.923 246.122 226.522C243.844 226.12 241.709 225.14 239.92 223.673C235.366 219.851 233.938 213.555 232.777 207.724L229.34 190.477L236.535 195.43C241.709 198.993 246.999 202.67 250.581 207.83C254.163 212.99 255.726 220.034 252.849 225.617" fill="#A2E5F2"/>
<path d="M251.812 248.046C252.718 241.449 253.649 234.766 253.013 228.099C252.448 222.177 250.642 216.394 246.963 211.65C245.011 209.138 242.635 206.985 239.943 205.289C239.241 204.846 238.595 205.958 239.294 206.399C243.952 209.343 247.556 213.69 249.584 218.814C251.824 224.511 252.184 230.723 251.798 236.775C251.565 240.435 251.069 244.071 250.571 247.703C250.532 247.868 250.557 248.041 250.64 248.187C250.723 248.334 250.859 248.444 251.021 248.494C251.185 248.539 251.36 248.516 251.508 248.432C251.657 248.348 251.765 248.209 251.812 248.045L251.812 248.046Z" fill="#F2F2F2"/>
<path d="M245.294 237.46C244.359 238.883 243.073 240.04 241.56 240.821C240.047 241.602 238.359 241.98 236.658 241.919C232.285 241.712 228.64 238.661 225.36 235.763L215.655 227.195L222.078 226.887C226.697 226.666 231.435 226.459 235.834 227.885C240.233 229.311 244.291 232.737 245.095 237.291" fill="#E6E6E6"/>
<path d="M254.372 251.838C250.012 244.125 244.956 235.552 235.921 232.812C233.409 232.053 230.774 231.781 228.16 232.01C227.336 232.082 227.542 233.352 228.364 233.281C232.746 232.917 237.12 234.074 240.749 236.557C244.241 238.934 246.96 242.239 249.261 245.743C250.671 247.89 251.934 250.127 253.196 252.362C253.6 253.076 254.78 252.561 254.372 251.838Z" fill="#F2F2F2"/>
<path d="M137.025 129.827L134.492 94.681L134.974 82.9503L125.1 85.1473L128.737 131.201C128.325 132.05 128.154 132.995 128.244 133.935C128.333 134.874 128.679 135.771 129.244 136.527C129.809 137.283 130.571 137.869 131.446 138.221C132.321 138.574 133.277 138.678 134.208 138.524C135.139 138.37 136.009 137.963 136.725 137.347C137.44 136.731 137.972 135.931 138.263 135.033C138.553 134.135 138.592 133.175 138.373 132.257C138.155 131.339 137.689 130.498 137.025 129.827V129.827Z" fill="#FFB7B7"/>
<path d="M88.472 97.4984L87.8442 85.7226L81.5075 80.574L77.8364 91.4785L57.3044 118.862C56.3337 119.018 55.4278 119.448 54.694 120.103C53.9602 120.757 53.4292 121.607 53.1637 122.554C52.8982 123.501 52.9095 124.503 53.1961 125.444C53.4827 126.384 54.0327 127.223 54.7809 127.86C55.5292 128.498 56.4445 128.908 57.4185 129.042C58.3924 129.175 59.3843 129.027 60.2768 128.615C61.1692 128.203 61.9249 127.543 62.4544 126.715C62.9838 125.887 63.2649 124.924 63.2644 123.941C63.2644 123.872 63.2568 123.804 63.2541 123.736L88.472 97.4984Z" fill="#FFB7B7"/>
<path d="M89.6082 93.729L74.1416 77.2216L85.6259 53.1931C85.858 52.7008 86.1872 52.2603 86.5935 51.8981C86.9998 51.5358 87.475 51.2592 87.9907 51.0849C88.4977 50.911 89.0346 50.8412 89.5692 50.8796C90.1039 50.918 90.6253 51.0639 91.1022 51.3084L91.2152 51.3657L89.6082 93.729Z" fill="#A2E5F2"/>
<path d="M124.123 91.1276L121.376 75.0212L121.386 74.9806L127.881 49.4476L128.49 49.3769C130.245 49.1833 132.009 49.6514 133.437 50.6896C134.865 51.7278 135.854 53.2613 136.211 54.9903L142.332 85.4627L124.123 91.1276Z" fill="#A2E5F2"/>
<path d="M127.622 42.5536H94.75V27.7019C94.75 23.3428 96.4816 19.1623 99.564 16.08C102.646 12.9976 106.827 11.266 111.186 11.266C115.545 11.266 119.726 12.9976 122.808 16.08C125.89 19.1623 127.622 23.3428 127.622 27.7019V42.5536Z" fill="#2F2E41"/>
<path d="M169.616 227.548L164.053 232.231L143.346 213.001L151.557 206.09L169.616 227.548Z" fill="#FFB7B7"/>
<path d="M175.574 231.747L157.636 246.844L157.445 246.618C155.886 244.766 155.127 242.371 155.335 239.96C155.542 237.548 156.698 235.318 158.55 233.759L158.55 233.759L169.506 224.538L175.574 231.747Z" fill="#2F2E41"/>
<path d="M86.2287 245.737L78.9577 245.736L75.4983 217.69L86.2303 217.69L86.2287 245.737Z" fill="#FFB7B7"/>
<path d="M88.0831 252.785L64.6372 252.784V252.488C64.6374 250.067 65.5989 247.746 67.3103 246.035C69.0217 244.324 71.3428 243.362 73.763 243.362H73.7636L88.0836 243.363L88.0831 252.785Z" fill="#2F2E41"/>
<path d="M54.339 238.697L57.9584 197.268C59.7943 176.286 64.1144 155.596 70.8281 135.632L85.9846 90.5827L87.3083 80.0913C83.2753 71.7283 87.5469 65.3591 88.0388 64.6718L87.5128 54.2501C87.5026 54.0451 87.4879 53.8471 87.474 53.656C87.3233 51.6085 87.433 50.4285 91.4286 49.9864L124.581 48.9642C128.776 48.9468 131.32 49.6441 132.353 51.1312C133.542 52.8426 132.598 55.3226 131.686 57.7209C131.592 57.9704 131.497 58.2198 131.404 58.4693L118.272 93.7286C124.627 106.013 123.402 124.802 123.389 124.99L123.855 130.547L172.059 209.323L143.558 235.937L143.431 235.73L97.5186 161.071L97.1241 236.32L96.9381 236.331L54.339 238.697Z" fill="#2F2E41"/>
<path d="M122.595 36.0093C126.154 29.4991 123.761 21.3364 117.251 17.7776C110.741 14.2188 102.578 16.6114 99.0194 23.1217C95.4606 29.6319 97.8532 37.7945 104.363 41.3534C110.874 44.9122 119.036 42.5196 122.595 36.0093Z" fill="#FFB7B7"/>
<path d="M117.293 18.1679C122.232 18.1679 126.236 14.1641 126.236 9.22513C126.236 4.28617 122.232 0.282349 117.293 0.282349C112.354 0.282349 108.35 4.28617 108.35 9.22513C108.35 14.1641 112.354 18.1679 117.293 18.1679Z" fill="#2F2E41"/>
<path d="M129.206 30.2763H96.3342V30.0782C96.3342 25.7192 98.0659 21.5386 101.148 18.4563C104.231 15.374 108.411 13.6423 112.77 13.6423C117.129 13.6423 121.31 15.374 124.392 18.4563C127.474 21.5386 129.206 25.7192 129.206 30.0782V30.2763Z" fill="#2F2E41"/>
<path d="M346.604 253.26H0.396046C0.291008 253.26 0.190272 253.207 0.115999 253.113C0.0417258 253.02 0 252.892 0 252.76C0 252.627 0.0417258 252.5 0.115999 252.406C0.190272 252.313 0.291008 252.26 0.396046 252.26H346.604C346.709 252.26 346.81 252.313 346.884 252.406C346.958 252.5 347 252.627 347 252.76C347 252.892 346.958 253.02 346.884 253.113C346.81 253.207 346.709 253.26 346.604 253.26Z" fill="#CBCBCB"/>
</g>
<defs>
<clipPath id="clip0">
<rect width="347" height="252.77" fill="white" transform="translate(0 0.282349)"/>
</clipPath>
</defs>
</svg>
