<svg width="1071" height="780" viewBox="0 0 1071 780" fill="none" xmlns="http://www.w3.org/2000/svg">
<g clip-path="url(#clip0)">
<path d="M780.473 696.411C773.741 698.777 766.513 699.37 759.486 698.132C752.458 696.894 745.868 693.868 740.35 689.343C726.297 677.547 721.89 658.12 718.306 640.127L707.702 586.905L729.902 602.191C745.868 613.184 762.193 624.53 773.247 640.452C784.301 656.375 789.123 678.112 780.244 695.342" fill="#A2E5F2"/>
<path d="M777.045 764.552C779.839 744.195 782.714 723.574 780.75 702.998C779.008 684.725 773.433 666.88 762.083 652.242C756.058 644.489 748.727 637.845 740.42 632.611C738.254 631.244 736.26 634.676 738.417 636.038C752.792 645.122 763.91 658.536 770.169 674.347C777.082 691.929 778.192 711.095 777.001 729.772C776.282 741.067 774.752 752.288 773.216 763.495C773.095 764.002 773.171 764.536 773.428 764.989C773.685 765.442 774.105 765.781 774.603 765.936C775.11 766.073 775.651 766.004 776.108 765.744C776.565 765.485 776.901 765.055 777.044 764.549L777.045 764.552Z" fill="#F2F2F2"/>
<path d="M756.933 731.887C754.046 736.276 750.077 739.847 745.409 742.257C740.741 744.667 735.531 745.834 730.282 745.646C716.787 745.006 705.541 735.591 695.419 726.65L665.472 700.21L685.291 699.261C699.544 698.578 714.164 697.938 727.74 702.338C741.316 706.739 753.835 717.312 756.317 731.364" fill="#E6E6E6"/>
<path d="M784.944 776.254C771.491 752.452 755.889 725.998 728.007 717.542C720.256 715.2 712.128 714.36 704.061 715.07C701.518 715.289 702.153 719.208 704.69 718.99C718.213 717.867 731.709 721.438 742.907 729.1C753.683 736.435 762.074 746.633 769.175 757.446C773.525 764.071 777.421 770.975 781.317 777.871C782.562 780.075 786.203 778.483 784.944 776.254Z" fill="#F2F2F2"/>
<path d="M422.834 399.752L415.017 291.296L416.504 255.098L386.035 261.877L397.258 403.989C395.987 406.609 395.461 409.528 395.737 412.427C396.013 415.326 397.08 418.093 398.823 420.426C400.566 422.758 402.917 424.567 405.618 425.654C408.32 426.741 411.268 427.064 414.141 426.588C417.014 426.112 419.7 424.855 421.907 422.955C424.114 421.055 425.755 418.585 426.653 415.815C427.55 413.045 427.669 410.081 426.995 407.248C426.321 404.415 424.882 401.822 422.834 399.752V399.752Z" fill="#FFB7B7"/>
<path d="M273.008 299.991L271.071 263.653L251.517 247.765L240.189 281.415L176.831 365.916C173.835 366.396 171.04 367.724 168.776 369.743C166.511 371.762 164.872 374.387 164.053 377.308C163.234 380.229 163.269 383.323 164.153 386.225C165.038 389.127 166.735 391.715 169.044 393.683C171.353 395.65 174.177 396.915 177.183 397.328C180.188 397.74 183.249 397.284 186.003 396.011C188.757 394.739 191.089 392.704 192.723 390.148C194.356 387.592 195.224 384.621 195.222 381.588C195.222 381.374 195.199 381.166 195.19 380.955L273.008 299.991Z" fill="#FFB7B7"/>
<path d="M276.514 288.359L228.787 237.42L264.226 163.273C264.942 161.753 265.958 160.394 267.212 159.276C268.465 158.159 269.932 157.305 271.523 156.767C273.088 156.231 274.744 156.015 276.394 156.134C278.044 156.252 279.653 156.702 281.125 157.457L281.473 157.634L276.514 288.359Z" fill="#A2E5F2"/>
<path d="M383.021 280.332L374.543 230.63L374.575 230.505L394.618 151.715L396.496 151.497C401.911 150.899 407.355 152.344 411.761 155.548C416.168 158.751 419.221 163.483 420.323 168.819L439.21 262.851L383.021 280.332Z" fill="#A2E5F2"/>
<path d="M393.817 130.441H292.381V84.6117C292.381 71.1604 297.725 58.2601 307.236 48.7486C316.748 39.2371 329.648 33.8936 343.099 33.8936C356.551 33.8936 369.451 39.2371 378.962 48.7486C388.474 58.2601 393.817 71.1604 393.817 84.6117V130.441Z" fill="#2F2E41"/>
<path d="M523.404 701.301L506.237 715.75L442.338 656.41L467.675 635.085L523.404 701.301Z" fill="#FFB7B7"/>
<path d="M541.788 714.257L486.435 760.845L485.845 760.145C481.036 754.431 478.694 747.04 479.334 739.599C479.973 732.158 483.542 725.276 489.256 720.466L489.257 720.465L523.066 692.011L541.788 714.257Z" fill="#2F2E41"/>
<path d="M266.086 757.427L243.649 757.426L232.973 670.879L266.09 670.88L266.086 757.427Z" fill="#FFB7B7"/>
<path d="M271.809 779.177L199.459 779.174V778.259C199.459 770.791 202.426 763.628 207.707 758.347C212.988 753.066 220.151 750.099 227.619 750.099H227.621L271.81 750.101L271.809 779.177Z" fill="#2F2E41"/>
<path d="M167.68 735.704L178.849 607.862C184.514 543.115 197.845 479.269 218.562 417.665L265.333 278.65L269.417 246.276C256.972 220.469 270.154 200.815 271.672 198.694L270.049 166.535C270.017 165.902 269.972 165.291 269.929 164.701C269.464 158.383 269.802 154.742 282.132 153.378L384.435 150.223C397.38 150.17 405.228 152.321 408.416 156.91C412.085 162.191 409.174 169.844 406.36 177.245C406.068 178.015 405.774 178.784 405.488 179.554L364.967 288.358C384.576 326.266 380.796 384.243 380.756 384.826L382.193 401.972L530.943 645.062L442.992 727.186L442.601 726.549L300.924 496.165L299.707 728.369L299.133 728.401L167.68 735.704Z" fill="#2F2E41"/>
<path d="M378.306 110.247C389.288 90.1573 381.904 64.969 361.815 53.9871C341.725 43.0052 316.537 50.3884 305.555 70.4778C294.573 90.5673 301.956 115.756 322.046 126.738C342.135 137.719 367.324 130.336 378.306 110.247Z" fill="#FFB7B7"/>
<path d="M361.944 55.1915C377.185 55.1915 389.54 42.8365 389.54 27.5958C389.54 12.355 377.185 0 361.944 0C346.703 0 334.348 12.355 334.348 27.5958C334.348 42.8365 346.703 55.1915 361.944 55.1915Z" fill="#2F2E41"/>
<path d="M398.706 92.5555H297.27V91.9444C297.27 78.4932 302.613 65.5928 312.125 56.0813C321.636 46.5698 334.536 41.2263 347.988 41.2263C361.439 41.2263 374.339 46.5698 383.851 56.0813C393.362 65.5928 398.706 78.4932 398.706 91.9444V92.5555Z" fill="#2F2E41"/>
<path d="M1069.56 780H1.22212C0.897996 780 0.587143 779.871 0.357951 779.642C0.128758 779.413 0 779.102 0 778.778C0 778.454 0.128758 778.143 0.357951 777.914C0.587143 777.685 0.897996 777.556 1.22212 777.556H1069.56C1069.88 777.556 1070.19 777.685 1070.42 777.914C1070.65 778.143 1070.78 778.454 1070.78 778.778C1070.78 779.102 1070.65 779.413 1070.42 779.642C1070.19 779.871 1069.88 780 1069.56 780Z" fill="#CBCBCB"/>
</g>
<defs>
<clipPath id="clip0">
<rect width="1070.78" height="780" fill="white"/>
</clipPath>
</defs>
</svg>
