<svg width="275" height="58" viewBox="0 0 275 58" fill="none" xmlns="http://www.w3.org/2000/svg">
<path d="M25.695 36H19.202V10.716H10.86V5.298H34.037V10.716H25.695V36ZM63.4964 36H57.0034V22.756H44.8344V36H38.3414V5.298H44.8344V17.338H57.0034V5.298H63.4964V36ZM88.4643 36H70.7912V5.298H88.4643V10.63H77.2842V17.381H87.6902V22.713H77.2842V30.625H88.4643V36ZM118.192 10.286C115.698 10.286 113.791 11.2177 112.473 13.081C111.154 14.9443 110.495 17.4957 110.495 20.735C110.495 24.003 111.097 26.54 112.301 28.346C113.533 30.1233 115.497 31.012 118.192 31.012C119.453 31.012 120.7 30.8687 121.933 30.582C123.194 30.2953 124.556 29.894 126.018 29.378V34.839C124.67 35.3837 123.337 35.785 122.019 36.043C120.7 36.301 119.224 36.43 117.59 36.43C114.436 36.43 111.828 35.785 109.764 34.495C107.728 33.1763 106.223 31.3417 105.249 28.991C104.274 26.6117 103.787 23.8453 103.787 20.692C103.787 17.596 104.346 14.8583 105.464 12.479C106.582 10.0997 108.201 8.23633 110.323 6.889C112.473 5.54166 115.096 4.868 118.192 4.868C119.711 4.868 121.23 5.06867 122.75 5.47C124.298 5.84267 125.774 6.35867 127.179 7.018L125.072 12.307C123.925 11.7623 122.764 11.2893 121.589 10.888C120.442 10.4867 119.31 10.286 118.192 10.286ZM149.785 36H132.112V5.298H149.785V10.63H138.605V17.381H149.011V22.713H138.605V30.625H149.785V36ZM182.962 36H174.706L161.333 12.78H161.161C161.218 14.242 161.276 15.704 161.333 17.166C161.419 18.628 161.491 20.09 161.548 21.552V36H155.743V5.298H163.956L177.286 28.303H177.415C177.386 26.8697 177.343 25.4507 177.286 24.046C177.229 22.6413 177.171 21.2367 177.114 19.832V5.298H182.962V36ZM202.118 36H195.625V10.716H187.283V5.298H210.46V10.716H202.118V36ZM232.437 36H214.764V5.298H232.437V10.63H221.257V17.381H231.663V22.713H221.257V30.625H232.437V36ZM247.34 5.298C251.525 5.298 254.607 6.05767 256.585 7.577C258.591 9.09633 259.595 11.404 259.595 14.5C259.595 15.9047 259.322 17.1373 258.778 18.198C258.262 19.23 257.559 20.1187 256.671 20.864C255.811 21.5807 254.879 22.1683 253.876 22.627L262.906 36H255.682L248.372 24.218H244.889V36H238.396V5.298H247.34ZM246.867 10.63H244.889V18.929H246.996C249.146 18.929 250.679 18.5707 251.597 17.854C252.543 17.1373 253.016 16.0767 253.016 14.672C253.016 13.21 252.514 12.178 251.511 11.576C250.536 10.9453 248.988 10.63 246.867 10.63ZM14.161 52H11.767V38.434H19.462V40.467H14.161V44.457H19.101V46.49H14.161V52ZM33.9226 45.198C33.9226 46.604 33.6883 47.8327 33.2196 48.884C32.7636 49.9227 32.0606 50.7333 31.1106 51.316C30.1606 51.8987 28.97 52.19 27.5386 52.19C26.0946 52.19 24.8976 51.8987 23.9476 51.316C23.0103 50.7333 22.3073 49.9163 21.8386 48.865C21.3826 47.8137 21.1546 46.585 21.1546 45.179C21.1546 43.7857 21.3826 42.5697 21.8386 41.531C22.3073 40.4797 23.0103 39.669 23.9476 39.099C24.8976 38.5163 26.101 38.225 27.5576 38.225C28.989 38.225 30.1733 38.5163 31.1106 39.099C32.0606 39.669 32.7636 40.4797 33.2196 41.531C33.6883 42.5697 33.9226 43.792 33.9226 45.198ZM23.7196 45.198C23.7196 46.7307 24.0236 47.934 24.6316 48.808C25.2396 49.682 26.2086 50.119 27.5386 50.119C28.8813 50.119 29.8503 49.682 30.4456 48.808C31.0536 47.934 31.3576 46.7307 31.3576 45.198C31.3576 43.6653 31.06 42.462 30.4646 41.588C29.8693 40.714 28.9003 40.277 27.5576 40.277C26.2276 40.277 25.2523 40.714 24.6316 41.588C24.0236 42.462 23.7196 43.6653 23.7196 45.198ZM40.4784 38.434C42.2644 38.434 43.5817 38.7633 44.4304 39.422C45.2917 40.0807 45.7224 41.0813 45.7224 42.424C45.7224 43.0827 45.5957 43.6463 45.3424 44.115C45.1017 44.5837 44.785 44.9763 44.3924 45.293C43.9997 45.597 43.5754 45.844 43.1194 46.034L47.0144 52H44.2784L41.0294 46.642H39.0534V52H36.6214V38.434H40.4784ZM40.3264 40.467H39.0534V44.647H40.4024C41.403 44.647 42.125 44.4697 42.5684 44.115C43.0244 43.7477 43.2524 43.2093 43.2524 42.5C43.2524 41.7653 43.0117 41.246 42.5304 40.942C42.0617 40.6253 41.327 40.467 40.3264 40.467ZM64.2901 52H61.8581V45.977H55.8921V52H53.4601V38.434H55.8921V43.906H61.8581V38.434H64.2901V52ZM75.3455 52H67.6315V38.434H75.3455V40.467H70.0635V43.925H75.0035V45.958H70.0635V49.948H75.3455V52ZM86.4152 52L85.1802 48.409H80.0692L78.8532 52H76.2692L81.2472 38.377H84.0212L88.9992 52H86.4152ZM83.3752 42.823C83.3245 42.6457 83.2485 42.405 83.1472 42.101C83.0458 41.797 82.9445 41.4867 82.8432 41.17C82.7545 40.8407 82.6848 40.5683 82.6342 40.353C82.5708 40.6063 82.4885 40.8977 82.3872 41.227C82.2985 41.5563 82.2098 41.8667 82.1212 42.158C82.0325 42.4493 81.9692 42.671 81.9312 42.823L80.7342 46.319H84.5532L83.3752 42.823ZM90.5932 52V38.434H93.0252V49.948H98.6872V52H90.5932ZM105.342 52H102.91V40.486H99.0154V38.434H109.237V40.486H105.342V52ZM121.954 52H119.522V45.977H113.556V52H111.124V38.434H113.556V43.906H119.522V38.434H121.954V52ZM135.817 40.296C134.576 40.296 133.613 40.7393 132.929 41.626C132.258 42.5127 131.922 43.716 131.922 45.236C131.922 46.7687 132.239 47.972 132.872 48.846C133.506 49.7073 134.481 50.138 135.798 50.138C136.368 50.138 136.926 50.081 137.47 49.967C138.015 49.8403 138.585 49.6757 139.18 49.473V51.544C138.623 51.772 138.059 51.9367 137.489 52.038C136.932 52.1393 136.286 52.19 135.551 52.19C134.158 52.19 133.005 51.905 132.093 51.335C131.181 50.7523 130.504 49.9417 130.06 48.903C129.617 47.8517 129.395 46.623 129.395 45.217C129.395 43.849 129.642 42.6457 130.136 41.607C130.63 40.5557 131.352 39.7323 132.302 39.137C133.265 38.5417 134.437 38.244 135.817 38.244C136.501 38.244 137.173 38.3263 137.831 38.491C138.503 38.643 139.13 38.8583 139.712 39.137L138.876 41.132C138.395 40.9167 137.895 40.7267 137.375 40.562C136.869 40.3847 136.349 40.296 135.817 40.296ZM150.291 52L149.056 48.409H143.945L142.729 52H140.145L145.123 38.377H147.897L152.875 52H150.291ZM147.251 42.823C147.2 42.6457 147.124 42.405 147.023 42.101C146.921 41.797 146.82 41.4867 146.719 41.17C146.63 40.8407 146.56 40.5683 146.51 40.353C146.446 40.6063 146.364 40.8977 146.263 41.227C146.174 41.5563 146.085 41.8667 145.997 42.158C145.908 42.4493 145.845 42.671 145.807 42.823L144.61 46.319H148.429L147.251 42.823ZM158.326 38.434C160.112 38.434 161.429 38.7633 162.278 39.422C163.139 40.0807 163.57 41.0813 163.57 42.424C163.57 43.0827 163.443 43.6463 163.19 44.115C162.949 44.5837 162.633 44.9763 162.24 45.293C161.847 45.597 161.423 45.844 160.967 46.034L164.862 52H162.126L158.877 46.642H156.901V52H154.469V38.434H158.326ZM158.174 40.467H156.901V44.647H158.25C159.251 44.647 159.973 44.4697 160.416 44.115C160.872 43.7477 161.1 43.2093 161.1 42.5C161.1 41.7653 160.859 41.246 160.378 40.942C159.909 40.6253 159.175 40.467 158.174 40.467ZM174.276 52H166.562V38.434H174.276V40.467H168.994V43.925H173.934V45.958H168.994V49.948H174.276V52ZM189.597 48.295C189.597 49.4983 189.16 50.4483 188.286 51.145C187.412 51.8417 186.203 52.19 184.657 52.19C183.163 52.19 181.896 51.9367 180.857 51.43V49.15C181.427 49.4033 182.054 49.6377 182.738 49.853C183.422 50.0557 184.119 50.157 184.828 50.157C185.639 50.157 186.234 49.9987 186.614 49.682C186.994 49.3653 187.184 48.9473 187.184 48.428C187.184 47.858 186.944 47.4083 186.462 47.079C185.981 46.7497 185.278 46.3887 184.353 45.996C183.796 45.7553 183.264 45.4703 182.757 45.141C182.251 44.8117 181.833 44.3937 181.503 43.887C181.174 43.3803 181.009 42.7343 181.009 41.949C181.009 40.7837 181.415 39.878 182.225 39.232C183.049 38.5733 184.144 38.244 185.512 38.244C186.234 38.244 186.906 38.32 187.526 38.472C188.16 38.624 188.793 38.8393 189.426 39.118L188.647 41.075C188.077 40.8343 187.533 40.6443 187.013 40.505C186.507 40.3657 185.981 40.296 185.436 40.296C184.778 40.296 184.277 40.448 183.935 40.752C183.593 41.0433 183.422 41.4233 183.422 41.892C183.422 42.272 183.517 42.5887 183.707 42.842C183.897 43.0953 184.189 43.3297 184.581 43.545C184.987 43.7603 185.506 44.0073 186.139 44.286C186.861 44.6027 187.482 44.932 188.001 45.274C188.521 45.616 188.913 46.0277 189.179 46.509C189.458 46.9903 189.597 47.5857 189.597 48.295ZM199.683 52H191.969V38.434H199.683V40.467H194.401V43.925H199.341V45.958H194.401V49.948H199.683V52ZM206.23 38.434C208.016 38.434 209.334 38.7633 210.182 39.422C211.044 40.0807 211.474 41.0813 211.474 42.424C211.474 43.0827 211.348 43.6463 211.094 44.115C210.854 44.5837 210.537 44.9763 210.144 45.293C209.752 45.597 209.327 45.844 208.871 46.034L212.766 52H210.03L206.781 46.642H204.805V52H202.373V38.434H206.23ZM206.078 40.467H204.805V44.647H206.154C207.155 44.647 207.877 44.4697 208.32 44.115C208.776 43.7477 209.004 43.2093 209.004 42.5C209.004 41.7653 208.764 41.246 208.282 40.942C207.814 40.6253 207.079 40.467 206.078 40.467ZM224.689 38.434L219.996 52H217.393L212.7 38.434H215.189L217.925 46.737C218.001 46.965 218.089 47.2627 218.191 47.63C218.292 47.9847 218.387 48.352 218.476 48.732C218.577 49.112 218.653 49.4413 218.704 49.72C218.742 49.4413 218.805 49.112 218.894 48.732C218.982 48.352 219.077 47.9847 219.179 47.63C219.28 47.2627 219.375 46.965 219.464 46.737L222.2 38.434H224.689ZM230.861 52H225.161V50.613L226.795 50.005V40.448L225.161 39.821V38.434H230.861V39.821L229.227 40.448V50.005L230.861 50.613V52ZM238.881 40.296C237.64 40.296 236.677 40.7393 235.993 41.626C235.322 42.5127 234.986 43.716 234.986 45.236C234.986 46.7687 235.303 47.972 235.936 48.846C236.569 49.7073 237.545 50.138 238.862 50.138C239.432 50.138 239.989 50.081 240.534 49.967C241.079 49.8403 241.649 49.6757 242.244 49.473V51.544C241.687 51.772 241.123 51.9367 240.553 52.038C239.996 52.1393 239.35 52.19 238.615 52.19C237.222 52.19 236.069 51.905 235.157 51.335C234.245 50.7523 233.567 49.9417 233.124 48.903C232.681 47.8517 232.459 46.623 232.459 45.217C232.459 43.849 232.706 42.6457 233.2 41.607C233.694 40.5557 234.416 39.7323 235.366 39.137C236.329 38.5417 237.5 38.244 238.881 38.244C239.565 38.244 240.236 38.3263 240.895 38.491C241.566 38.643 242.193 38.8583 242.776 39.137L241.94 41.132C241.459 40.9167 240.958 40.7267 240.439 40.562C239.932 40.3847 239.413 40.296 238.881 40.296ZM252.69 52H244.976V38.434H252.69V40.467H247.408V43.925H252.348V45.958H247.408V49.948H252.69V52ZM263.265 48.295C263.265 49.4983 262.828 50.4483 261.954 51.145C261.08 51.8417 259.871 52.19 258.325 52.19C256.831 52.19 255.564 51.9367 254.525 51.43V49.15C255.095 49.4033 255.722 49.6377 256.406 49.853C257.09 50.0557 257.787 50.157 258.496 50.157C259.307 50.157 259.902 49.9987 260.282 49.682C260.662 49.3653 260.852 48.9473 260.852 48.428C260.852 47.858 260.612 47.4083 260.13 47.079C259.649 46.7497 258.946 46.3887 258.021 45.996C257.464 45.7553 256.932 45.4703 256.425 45.141C255.919 44.8117 255.501 44.3937 255.171 43.887C254.842 43.3803 254.677 42.7343 254.677 41.949C254.677 40.7837 255.083 39.878 255.893 39.232C256.717 38.5733 257.812 38.244 259.18 38.244C259.902 38.244 260.574 38.32 261.194 38.472C261.828 38.624 262.461 38.8393 263.094 39.118L262.315 41.075C261.745 40.8343 261.201 40.6443 260.681 40.505C260.175 40.3657 259.649 40.296 259.104 40.296C258.446 40.296 257.945 40.448 257.603 40.752C257.261 41.0433 257.09 41.4233 257.09 41.892C257.09 42.272 257.185 42.5887 257.375 42.842C257.565 43.0953 257.857 43.3297 258.249 43.545C258.655 43.7603 259.174 44.0073 259.807 44.286C260.529 44.6027 261.15 44.932 261.669 45.274C262.189 45.616 262.581 46.0277 262.847 46.509C263.126 46.9903 263.265 47.5857 263.265 48.295Z" fill="black"/>
</svg>
