<svg width="121" height="249" viewBox="0 0 121 249" fill="none" xmlns="http://www.w3.org/2000/svg">
<g clip-path="url(#clip0)">
<path d="M81.6689 121.005L78.4773 124.167L82.7174 135.271L88.6329 122.961L98.3221 67.0729L83.4206 66.6561L81.6689 121.005Z" fill="#9F616A"/>
<path d="M57.3863 237.976H49.3142L43.0359 166.411H58.7316L57.3863 237.976Z" fill="#9F616A"/>
<path d="M87.8809 237.976H79.8088L73.5305 166.411H89.2263L87.8809 237.976Z" fill="#9F616A"/>
<path d="M81.6293 247.311L69.8441 247.248C68.7933 246.721 67.9743 245.822 67.5448 244.724C67.1154 243.627 67.106 242.408 67.5186 241.304C67.8115 240.52 68.3049 239.827 68.9492 239.295C69.5934 238.763 70.3658 238.41 71.1888 238.273L73.415 237.9L75.3548 235.423C75.9069 234.702 76.7048 234.211 77.5953 234.045C78.4857 233.879 79.406 234.049 80.1793 234.522C82.0401 235.708 84.6209 236.102 87.8029 235.837L90.2797 241.907C90.7704 245.191 88.5304 247.358 85.2624 247.875C84.0224 248.072 82.7521 247.875 81.6293 247.311Z" fill="#2F2E41"/>
<path d="M51.1349 247.311L39.3498 247.248C38.299 246.721 37.4799 245.822 37.0504 244.724C36.621 243.627 36.6117 242.408 37.0242 241.304C37.3171 240.52 37.8105 239.827 38.4548 239.295C39.099 238.763 39.8714 238.411 40.6945 238.273L42.9207 237.9L45.0775 235.145C45.6009 234.482 46.3544 234.042 47.1872 233.913C48.02 233.783 48.8708 233.974 49.5695 234.447C51.4384 235.691 54.0602 236.108 57.3085 235.838L59.7852 241.907C60.276 245.191 58.036 247.358 54.768 247.875C53.528 248.072 52.2577 247.875 51.1349 247.311Z" fill="#2F2E41"/>
<path d="M59.6284 28.6832C66.3156 28.6832 71.7366 23.2424 71.7366 16.5307C71.7366 9.81913 66.3156 4.3783 59.6284 4.3783C52.9413 4.3783 47.5203 9.81913 47.5203 16.5307C47.5203 23.2424 52.9413 28.6832 59.6284 28.6832Z" fill="#9F616A"/>
<path d="M77.1179 39.9355L57.3861 41.2858C57.4559 34.8769 57.1773 29.0722 55.5923 25.5326L69.4942 21.0317C69.6277 26.6748 72.5772 33.0876 77.1179 39.9355Z" fill="#9F616A"/>
<path d="M89.2262 127.703L38.5513 123.652C45.3126 101.031 43.1967 71.4086 36.3091 49.2002C36.3091 46.6069 37.0931 44.0745 38.5575 41.9378C40.0218 39.8011 42.0977 38.1605 44.5107 37.233L57.3862 32.2839L73.5304 34.0843L87.1436 40.9158C89.2436 41.9696 91.0032 43.5989 92.2188 45.6149C93.4343 47.6309 94.0561 49.9513 94.0121 52.3073C88.8953 72.8459 88.2788 99.2547 89.2262 127.703Z" fill="#FAC710"/>
<path d="M51.1078 72.342L28.2368 68.2912L30.2054 52.9789C30.6846 49.2516 32.2547 45.7507 34.7169 42.9193C37.1791 40.0879 40.4229 38.0531 44.0376 37.0726L48.4171 35.8846L51.1078 72.342Z" fill="#FAC710"/>
<path d="M37.6546 123.202L40.3453 126.803L36.3092 138.055L30.4794 124.103L29.134 67.3912L43.9329 69.1915L37.6546 123.202Z" fill="#9F616A"/>
<path d="M76.2212 73.2422L99.0921 69.1914L97.1236 53.8791C96.6444 50.1518 95.0743 46.6509 92.6121 43.8195C90.1499 40.9881 86.9061 38.9534 83.2913 37.9728L78.9119 36.7849L76.2212 73.2422Z" fill="#FAC710"/>
<path d="M90.5714 168.661L71.8089 169.562L66.3551 143.006L59.7326 167.761L39.8966 168.211L35.9315 136.225C35.6255 133.756 35.8188 131.25 36.5001 128.858C37.1814 126.466 38.3366 124.236 39.8966 122.302L89.2261 124.553L90.5714 168.661Z" fill="#2F2E41"/>
<path d="M60.7496 29.8084L69.8039 28.0875L75.1903 18.8519C76.4974 16.6109 77.0629 14.0116 76.8055 11.4277C76.5482 8.84384 75.4812 6.40836 73.7581 4.47134C72.4153 2.96188 70.7215 1.80892 68.8276 1.115C66.9337 0.421077 64.8982 0.207717 62.9023 0.493891L51.1678 2.17638C50.1559 2.32146 49.1826 2.66603 48.304 3.19025C47.4254 3.71447 46.6588 4.40797 46.0484 5.23082C45.438 6.05366 44.9958 6.98959 44.7473 7.98468C44.4989 8.97978 44.449 10.0144 44.6006 11.0289L52.5046 12.3786L60.7496 29.8084Z" fill="#2F2E41"/>
<path d="M55.3682 22.607C56.6066 22.607 57.6105 21.3979 57.6105 19.9064C57.6105 18.415 56.6066 17.2059 55.3682 17.2059C54.1299 17.2059 53.126 18.415 53.126 19.9064C53.126 21.3979 54.1299 22.607 55.3682 22.607Z" fill="#9F616A"/>
<path d="M119.949 248.001H0.0332031V247.018H120.127L119.949 248.001Z" fill="#3F3D56"/>
</g>
<defs>
<clipPath id="clip0">
<rect width="120.185" height="248" fill="white" transform="translate(0 0.00628662)"/>
</clipPath>
</defs>
</svg>
