<svg width="1103" height="800" viewBox="0 0 1103 800" fill="none" xmlns="http://www.w3.org/2000/svg">
<g clip-path="url(#clip0)">
<path d="M396.355 220.253C386.092 230.91 373.732 239.326 360.054 244.968C346.376 250.61 331.678 253.356 316.885 253.033C302.093 252.71 287.528 249.325 274.11 243.092C260.691 236.858 248.71 227.911 238.922 216.816L0 442.968L335.971 797.909L656.213 494.783L396.355 220.253Z" fill="#B7E4C4"/>
<path d="M319.024 230.701C331.633 230.716 344.115 228.179 355.718 223.245C367.32 218.31 377.805 211.078 386.54 201.985L319.917 131.601L248.737 198.977C257.523 208.958 268.338 216.951 280.458 222.422C292.579 227.892 305.727 230.714 319.024 230.701V230.701Z" fill="#B7E4C4"/>
<path d="M843.486 333.636C843.508 355.743 839.171 377.638 830.721 398.066C822.271 418.495 809.876 437.056 794.243 452.688C778.611 468.321 760.05 480.716 739.621 489.166C719.193 497.615 697.298 501.953 675.191 501.931C674.232 501.931 673.273 501.921 672.315 501.9C668.276 501.839 664.288 501.635 660.32 501.288C627.794 498.404 596.81 486.121 571.143 465.936C545.476 445.75 526.236 418.535 515.766 387.605C505.297 356.676 504.051 323.369 512.18 291.744C520.309 260.119 537.463 231.541 561.55 209.494C585.636 187.448 615.616 172.884 647.836 167.578C680.055 162.272 713.122 166.453 743.006 179.612C772.891 192.771 798.302 214.338 816.143 241.687C833.984 269.035 843.484 300.983 843.486 333.636V333.636Z" fill="#FAC710"/>
<path opacity="0.1" d="M772.72 272.734C783.271 254.129 790.157 233.673 793.006 212.476C770.622 190.896 742.697 175.94 712.33 169.265C681.963 162.59 650.34 164.458 620.97 174.662C591.6 184.866 565.631 203.006 545.944 227.071C526.256 251.136 513.62 280.185 509.437 310.994C537.078 337.714 573.062 354.124 611.361 357.473C615.329 357.819 619.317 358.023 623.356 358.085C624.315 358.105 625.274 358.115 626.232 358.115C656.026 358.147 685.293 350.257 711.034 335.254C736.775 320.251 758.064 298.674 772.72 272.734V272.734Z" fill="black"/>
<path d="M749.649 497.851H479.357V799.762H749.649V497.851Z" fill="#2F2E41"/>
<path opacity="0.1" d="M836.213 396.466C825.752 421.024 809.606 442.745 789.104 459.84C768.603 476.935 744.333 488.914 718.295 494.791H755.769V796.702H506.468L646.377 554.367L678.434 498.84L680.77 494.791L786.878 311.013L836.213 396.466Z" fill="black"/>
<path d="M821.556 313.053L962.057 556.407L1102.56 799.762H821.556H540.555L681.055 556.407L821.556 313.053Z" fill="#3F3D56"/>
<path d="M1102.56 797.722H37.7104V799.762H1102.56V797.722Z" fill="#2F2E41"/>
<path d="M174.93 751.549L173.068 767.062L162.519 772.027L150.728 768.303L142.661 772.027L140.179 757.754L154.452 741.619L174.93 751.549Z" fill="#9F616A"/>
<path d="M167.483 763.339C167.483 763.339 177.104 752.123 177.258 757.731C177.412 763.339 198.51 782.576 198.51 782.576C198.51 782.576 231.399 792.504 205.957 798.71C180.514 804.915 124.665 786.919 122.804 783.196C120.942 779.473 138.317 750.928 140.179 753.41C142.041 755.892 151.349 764.58 167.483 763.339Z" fill="#2F2E41"/>
<path d="M191.064 579.036C191.064 579.036 194.787 608.202 191.064 612.546C187.341 616.89 189.202 625.577 191.064 626.819C192.926 628.06 188.582 633.024 185.479 635.506C182.376 637.988 178.032 649.158 178.032 649.158C178.032 649.158 161.278 693.217 161.278 697.561C161.278 701.905 153.831 711.213 154.452 714.316C155.072 717.418 150.108 727.347 150.728 729.209C151.349 731.07 142.661 747.825 145.144 750.307C147.626 752.789 181.756 761.477 179.894 755.892C178.032 750.307 176.791 743.481 178.032 743.481C179.274 743.481 184.858 736.655 183.617 734.173C182.376 731.691 220.85 666.534 220.85 666.534L191.064 579.036Z" fill="#2F2E41"/>
<path opacity="0.1" d="M167.483 763.339C167.483 763.339 177.104 752.123 177.258 757.731C177.412 763.339 198.51 782.576 198.51 782.576C198.51 782.576 231.399 792.504 205.957 798.71C180.514 804.915 124.665 786.919 122.804 783.196C120.942 779.473 138.317 750.928 140.179 753.41C142.041 755.892 151.349 764.58 167.483 763.339Z" fill="black"/>
<path opacity="0.1" d="M191.064 579.036C191.064 579.036 194.787 608.202 191.064 612.546C187.341 616.89 189.202 625.577 191.064 626.819C192.926 628.06 188.582 633.024 185.479 635.506C182.376 637.988 178.032 649.158 178.032 649.158C178.032 649.158 161.278 693.217 161.278 697.561C161.278 701.905 153.831 711.213 154.452 714.316C155.072 717.418 150.108 727.347 150.728 729.209C151.349 731.07 142.661 747.825 145.144 750.307C147.626 752.789 181.756 761.477 179.894 755.892C178.032 750.307 176.791 743.481 178.032 743.481C179.274 743.481 184.858 736.655 183.617 734.173C182.376 731.691 220.85 666.534 220.85 666.534L191.064 579.036Z" fill="black"/>
<path d="M254.36 743.845L261.185 761.22L258.083 785.421L238.225 784.181L227.055 774.251V753.153L254.36 743.845Z" fill="#9F616A"/>
<path d="M250.636 764.943C250.636 764.943 257.462 742.604 261.185 748.809C263.544 752.794 265.618 756.942 267.391 761.22C267.391 761.22 297.798 781.077 305.865 781.077C313.932 781.077 321.378 791.006 310.829 794.729C300.28 798.453 219.609 803.417 218.368 794.729C217.127 786.042 219.609 758.117 223.332 761.22C227.055 764.323 246.292 771.149 250.636 764.943Z" fill="#2F2E41"/>
<path d="M266.15 490.041C266.15 490.041 293.502 508.628 294.743 511.111C295.984 513.593 311.854 521.225 298.823 527.43C285.791 533.636 251.257 494.385 251.257 494.385L266.15 490.041Z" fill="#9F616A"/>
<path d="M252.498 454.05C252.498 454.05 272.355 492.524 268.632 493.765C264.909 495.006 250.016 502.452 250.016 502.452L243.19 463.358L252.498 454.05Z" fill="#575A88"/>
<path opacity="0.1" d="M252.498 454.05C252.498 454.05 272.355 492.524 268.632 493.765C264.909 495.006 250.016 502.452 250.016 502.452L243.19 463.358L252.498 454.05Z" fill="black"/>
<path d="M251.257 486.318C251.257 486.318 255.601 518.586 253.739 525.412C251.877 532.238 254.98 634.629 252.498 640.213C250.016 645.798 248.154 681.79 248.154 686.134C248.154 690.478 253.119 725.849 254.36 728.952C255.601 732.054 259.324 742.604 257.462 747.568C255.601 752.532 230.158 764.943 226.435 760.599C222.712 756.255 225.815 742.603 222.712 741.983C219.609 741.362 215.886 712.197 215.886 712.197L195.408 598.016C195.408 598.016 156.934 502.452 165.622 493.144C174.309 483.836 251.257 486.318 251.257 486.318Z" fill="#2F2E41"/>
<path d="M228.297 266.024C245.09 266.024 258.703 252.411 258.703 235.617C258.703 218.824 245.09 205.211 228.297 205.211C211.503 205.211 197.89 218.824 197.89 235.617C197.89 252.411 211.503 266.024 228.297 266.024Z" fill="#9F616A"/>
<path d="M239.466 260.439C239.466 260.439 229.538 286.502 230.779 292.087C232.02 297.672 201.613 282.158 201.613 282.158C201.613 282.158 203.475 251.752 201.613 243.685C199.751 235.617 239.466 260.439 239.466 260.439Z" fill="#9F616A"/>
<path d="M156.09 430.227C156.226 435.433 156.313 438.536 156.313 438.536C156.313 438.536 154.452 467.081 157.554 476.389C160.657 485.698 160.657 492.523 162.519 498.729C163.065 500.535 170.493 501.503 180.924 501.931C190.493 502.322 202.587 502.266 214.198 501.999C233.422 501.552 251.344 500.522 254.36 499.97C261.186 498.729 253.118 488.18 255.601 482.595C258.083 477.01 251.257 405.647 251.257 405.647C251.257 405.647 251.877 365.312 248.775 349.798C245.672 334.284 233.882 309.463 231.399 306.36C228.917 303.257 230.779 301.395 236.364 297.672C241.949 293.949 236.364 279.676 236.364 279.676C225.814 270.989 199.131 269.748 199.131 269.748C199.131 269.748 158.175 311.945 155.693 320.632C154.191 325.882 154.731 367.819 155.389 400.199C155.643 412.38 155.91 423.215 156.09 430.227Z" fill="#575A88"/>
<path d="M208.439 507.417C208.439 507.417 232.02 555.819 213.404 558.922C194.787 562.025 185.479 514.863 185.479 514.863L208.439 507.417Z" fill="#9F616A"/>
<path d="M256.728 220.205C257.803 214.99 253.818 210.115 249.62 206.839C240.478 199.749 229.231 195.913 217.662 195.941C209.524 195.985 201.126 198.138 194.975 203.467C187.801 209.682 184.528 219.649 185.131 229.122C185.733 238.595 189.853 247.579 195.41 255.275C198.077 258.968 202.36 262.792 206.622 261.182C208.29 260.401 209.721 259.192 210.77 257.679C213.503 254.287 215.885 250.626 217.879 246.753C219.404 243.789 220.725 240.665 222.887 238.127C225.049 235.59 228.298 233.681 231.6 234.137C234.328 234.513 237.003 236.434 239.605 235.531C242.499 234.528 243.199 230.827 243.429 227.772C243.682 224.424 243.503 220.545 244.433 217.38C245.449 217.922 256.228 222.704 256.728 220.205Z" fill="#2F2E41"/>
<path opacity="0.1" d="M156.09 430.227C163.04 455.291 178.982 497.531 179.894 499.349C180.124 499.815 180.483 500.727 180.924 501.931C190.493 502.322 202.587 502.266 214.198 501.999C212.398 497.295 210.301 492.753 210.301 491.282C210.301 488.18 195.408 408.129 195.408 408.129C195.408 408.129 207.198 372.758 217.747 342.972C228.296 313.186 186.41 319.081 186.41 319.081C164.07 313.496 160.036 323.114 160.036 323.114C160.036 323.114 158.069 375.426 155.389 400.199C154.7 406.547 153.968 411.083 153.21 412.473C152.217 414.291 153.558 421.13 156.09 430.227Z" fill="black"/>
<path d="M195.408 298.913C195.408 298.913 223.953 310.704 213.403 340.49C202.854 370.276 191.064 405.647 191.064 405.647C191.064 405.647 205.957 485.698 205.957 488.8C205.957 491.903 215.265 508.658 211.542 511.76C207.819 514.863 182.997 521.069 182.376 517.966C181.756 514.863 176.791 499.35 175.55 496.867C174.309 494.385 145.143 416.817 148.867 409.991C151.607 404.968 154.01 358.947 155.089 334.988C155.338 328.153 157.363 321.5 160.964 315.685C164.565 309.87 169.618 305.093 175.626 301.823C181.411 298.757 188.147 297.098 195.408 298.913Z" fill="#575A88"/>
<path d="M310.042 480.511H273.323V517.23H310.042V480.511Z" fill="#FAC710"/>
<path d="M291.683 480.512C297.879 480.512 302.902 475.488 302.902 469.292C302.902 463.095 297.879 458.072 291.683 458.072C285.486 458.072 280.463 463.095 280.463 469.292C280.463 475.488 285.486 480.512 291.683 480.512Z" fill="#3F3D56"/>
<path d="M725.32 112.534C755.916 112.534 780.719 87.7302 780.719 57.1338C780.719 26.5373 755.916 1.73402 725.32 1.73402C694.723 1.73402 669.92 26.5373 669.92 57.1338C669.92 87.7302 694.723 112.534 725.32 112.534Z" fill="#FF6584"/>
<path d="M725.169 94.9739C725.169 136.773 700.321 151.368 669.668 151.368C639.015 151.368 614.167 136.773 614.167 94.9739C614.167 53.1749 669.668 0 669.668 0C669.668 0 725.169 53.1749 725.169 94.9739Z" fill="#B7E4C4"/>
<path d="M667.646 144.973L668.214 109.991L691.87 66.7141L668.304 104.504L668.559 88.775L684.863 57.464L668.627 84.6125L669.086 56.3227L686.545 31.3946L669.159 51.8736L669.445 0L667.641 68.6714L667.79 65.838L650.039 38.6691L667.505 71.2764L665.851 102.872L665.802 102.033L645.339 73.4408L665.74 104.996L665.533 108.947L665.496 109.006L665.513 109.33L661.317 189.49H666.923L667.596 148.086L687.946 116.609L667.646 144.973Z" fill="#3F3D56"/>
<path d="M858.905 157.45C845.643 197.09 817.447 203.046 788.379 193.321C759.31 183.595 740.375 161.87 753.637 122.231C766.899 82.5918 836.405 49.7739 836.405 49.7739C836.405 49.7739 872.167 117.811 858.905 157.45Z" fill="#B7E4C4"/>
<path d="M788.49 186.616L800.128 153.622L836.293 120.085L801.953 148.445L807.187 133.61L832.582 109.09L808.571 129.684L817.983 103.002L842.448 84.9012L819.463 98.8054L836.194 49.7031L812.695 114.254L813.734 111.614L805.521 80.2175L811.738 116.681L800.145 146.12L800.365 145.309L790.031 111.702L799.366 148.098L797.916 151.78L797.862 151.824L797.776 152.138L768.363 226.824L773.68 228.603L787.455 189.551L816.741 166.157L788.49 186.616Z" fill="#3F3D56"/>
<path d="M583.413 125.555C598.445 164.557 580.508 187.112 551.906 198.136C523.304 209.16 494.869 204.478 479.837 165.476C464.804 126.473 497.468 56.8958 497.468 56.8958C497.468 56.8958 568.38 86.5524 583.413 125.555Z" fill="#B7E4C4"/>
<path d="M547.72 192.897L535.669 160.05L542.179 111.161L533.779 154.899L528.36 140.129L532.312 105.05L526.927 136.221L517.181 109.659L524.507 80.1206L515.649 105.482L497.261 56.9755L520.274 121.702L519.394 119.005L493.06 100.037L521.084 124.181L530.903 154.257L530.556 153.492L501.18 134.173L531.564 156.279L532.792 160.04L532.779 160.109L532.911 160.405L557.824 236.71L563.055 234.695L548.792 195.819L556.461 159.129L547.72 192.897Z" fill="#3F3D56"/>
<path d="M465.539 456.95C462.1 462.436 457.638 462.307 453.615 459.785C449.592 457.263 447.532 453.303 450.971 447.817C454.41 442.331 466.069 439.919 466.069 439.919C466.069 439.919 468.978 451.464 465.539 456.95Z" fill="#FAC710"/>
<path d="M875.699 292.539C876.336 298.982 872.728 301.61 868.003 302.077C863.277 302.543 859.225 300.672 858.588 294.229C857.952 287.785 865.698 278.744 865.698 278.744C865.698 278.744 875.063 286.095 875.699 292.539Z" fill="#FAC710"/>
<path d="M447.245 340.116C443.806 345.602 439.344 345.473 435.321 342.951C431.298 340.429 429.237 336.469 432.676 330.983C436.116 325.497 447.775 323.085 447.775 323.085C447.775 323.085 450.684 334.63 447.245 340.116Z" fill="#FAC710"/>
</g>
<defs>
<clipPath id="clip0">
<rect width="1102.56" height="800" fill="white"/>
</clipPath>
</defs>
</svg>
