<svg width="347" height="252" viewBox="0 0 347 252" fill="none" xmlns="http://www.w3.org/2000/svg">
<g clip-path="url(#clip0)">
<path d="M124.742 69.3185C121.512 72.6727 117.622 75.3213 113.317 77.0969C109.012 78.8726 104.386 79.7368 99.731 79.6352C95.0755 79.5336 90.4916 78.4683 86.2685 76.5064C82.0453 74.5446 78.2746 71.7289 75.1941 68.2368L0 139.412L105.738 251.12L206.525 155.719L124.742 69.3185Z" fill="#F2F2F2"/>
<path d="M100.404 72.6067C104.373 72.6114 108.301 71.8132 111.952 70.2601C115.604 68.707 118.904 66.4311 121.653 63.5693L100.685 41.4177L78.2831 62.6225C81.0485 65.7639 84.452 68.2794 88.2666 70.0011C92.0812 71.7228 96.2191 72.6111 100.404 72.6067Z" fill="#F2F2F2"/>
<path d="M265.464 105.003C265.471 111.96 264.106 118.851 261.447 125.28C258.787 131.71 254.886 137.552 249.966 142.471C245.047 147.391 239.205 151.292 232.776 153.952C226.346 156.611 219.456 157.976 212.498 157.969C212.196 157.969 211.894 157.966 211.593 157.959C210.321 157.94 209.066 157.876 207.818 157.767C197.581 156.859 187.83 152.993 179.752 146.641C171.674 140.288 165.618 131.722 162.323 121.988C159.028 112.254 158.636 101.772 161.195 91.8184C163.753 81.8652 169.152 72.8712 176.732 65.9326C184.313 58.994 193.748 54.4105 203.889 52.7406C214.029 51.0707 224.436 52.3866 233.841 56.5279C243.246 60.6693 251.244 67.4572 256.859 76.0643C262.474 84.6714 265.464 94.7261 265.464 105.003Z" fill="#FAC710"/>
<path opacity="0.1" d="M243.193 85.8355C246.513 79.98 248.68 73.5423 249.577 66.8709C242.532 60.0794 233.744 55.3722 224.187 53.2715C214.629 51.1708 204.677 51.7588 195.434 54.9701C186.19 58.1815 178.017 63.8907 171.821 71.4645C165.625 79.0382 161.648 88.1804 160.331 97.8768C169.031 106.286 180.356 111.451 192.409 112.505C193.658 112.614 194.913 112.678 196.184 112.697C196.486 112.704 196.788 112.707 197.09 112.707C206.466 112.717 215.677 110.234 223.779 105.512C231.88 100.79 238.58 93.9994 243.193 85.8355Z" fill="black"/>
<path d="M235.931 156.685H150.865V251.703H235.931V156.685Z" fill="#2F2E41"/>
<path opacity="0.1" d="M263.175 124.777C259.883 132.506 254.801 139.342 248.349 144.722C241.897 150.102 234.259 153.872 226.064 155.722H237.857V250.74H159.397L203.429 174.472L213.519 156.996L214.254 155.722L247.648 97.8829L263.175 124.777Z" fill="black"/>
<path d="M258.563 98.5249L302.781 175.114L347 251.703H258.563H170.125L214.344 175.114L258.563 98.5249Z" fill="#3F3D56"/>
<path d="M347 251.061H11.8683V251.703H347V251.061Z" fill="#2F2E41"/>
<path d="M55.0543 236.529L54.4685 241.412L51.1483 242.974L47.4375 241.802L44.8986 242.974L44.1176 238.482L48.6095 233.404L55.0543 236.529Z" fill="#9F616A"/>
<path d="M52.7107 240.24C52.7107 240.24 55.7386 236.71 55.787 238.475C55.8355 240.24 62.4757 246.294 62.4757 246.294C62.4757 246.294 72.8266 249.419 64.8193 251.372C56.812 253.325 39.235 247.661 38.6491 246.49C38.0632 245.318 43.5316 236.334 44.1175 237.115C44.7034 237.896 47.6329 240.631 52.7107 240.24Z" fill="#2F2E41"/>
<path d="M60.1322 182.236C60.1322 182.236 61.304 191.415 60.1322 192.782C58.9604 194.149 59.5463 196.883 60.1322 197.274C60.7181 197.665 59.351 199.227 58.3745 200.008C57.398 200.789 56.0309 204.305 56.0309 204.305C56.0309 204.305 50.7578 218.171 50.7578 219.538C50.7578 220.905 48.4142 223.835 48.6095 224.811C48.8048 225.788 47.2424 228.913 47.4377 229.498C47.633 230.084 44.8988 235.357 45.68 236.139C46.4612 236.92 57.2027 239.654 56.6168 237.896C56.0309 236.139 55.6403 233.99 56.0309 233.99C56.4215 233.99 58.1792 231.842 57.7886 231.061C57.398 230.28 69.5066 209.773 69.5066 209.773L60.1322 182.236Z" fill="#2F2E41"/>
<path opacity="0.1" d="M52.7107 240.24C52.7107 240.24 55.7386 236.71 55.787 238.475C55.8355 240.24 62.4757 246.294 62.4757 246.294C62.4757 246.294 72.8266 249.419 64.8193 251.372C56.812 253.325 39.235 247.661 38.6491 246.49C38.0632 245.318 43.5316 236.334 44.1175 237.115C44.7034 237.896 47.6329 240.631 52.7107 240.24Z" fill="black"/>
<path opacity="0.1" d="M60.1322 182.236C60.1322 182.236 61.304 191.415 60.1322 192.782C58.9604 194.149 59.5463 196.883 60.1322 197.274C60.7181 197.665 59.351 199.227 58.3745 200.008C57.398 200.789 56.0309 204.305 56.0309 204.305C56.0309 204.305 50.7578 218.171 50.7578 219.538C50.7578 220.905 48.4142 223.835 48.6095 224.811C48.8048 225.788 47.2424 228.913 47.4377 229.498C47.633 230.084 44.8988 235.357 45.68 236.139C46.4612 236.92 57.2027 239.654 56.6168 237.896C56.0309 236.139 55.6403 233.99 56.0309 233.99C56.4215 233.99 58.1792 231.842 57.7886 231.061C57.398 230.28 69.5066 209.773 69.5066 209.773L60.1322 182.236Z" fill="black"/>
<path d="M80.0528 234.105L82.201 239.573L81.2245 247.19L74.9748 246.799L71.4595 243.674V237.034L80.0528 234.105Z" fill="#9F616A"/>
<path d="M78.881 240.745C78.881 240.745 81.0293 233.714 82.2011 235.667C82.9434 236.921 83.596 238.227 84.1541 239.573C84.1541 239.573 93.7238 245.823 96.2627 245.823C98.8016 245.823 101.145 248.948 97.8251 250.119C94.505 251.291 69.116 252.854 68.7254 250.119C68.3348 247.385 69.116 238.597 70.2878 239.573C71.4596 240.55 77.5139 242.698 78.881 240.745Z" fill="#2F2E41"/>
<path d="M83.7634 154.227C83.7634 154.227 92.3716 160.077 92.7622 160.858C93.1528 161.639 98.1475 164.041 94.0462 165.994C89.9449 167.947 79.0762 155.594 79.0762 155.594L83.7634 154.227Z" fill="#9F616A"/>
<path d="M79.4668 142.9C79.4668 142.9 85.7164 155.008 84.5446 155.399C83.3728 155.79 78.6856 158.133 78.6856 158.133L76.5373 145.829L79.4668 142.9Z" fill="#575A88"/>
<path opacity="0.1" d="M79.4668 142.9C79.4668 142.9 85.7164 155.008 84.5446 155.399C83.3728 155.79 78.6856 158.133 78.6856 158.133L76.5373 145.829L79.4668 142.9Z" fill="black"/>
<path d="M79.0762 153.055C79.0762 153.055 80.4433 163.211 79.8574 165.359C79.2715 167.507 80.248 199.732 79.4668 201.49C78.6856 203.247 78.0997 214.575 78.0997 215.942C78.0997 217.309 79.6621 228.441 80.0527 229.418C80.4433 230.394 81.6151 233.714 81.0292 235.277C80.4433 236.839 72.436 240.745 71.2642 239.378C70.0924 238.011 71.0689 233.714 70.0924 233.519C69.1159 233.324 67.9441 224.144 67.9441 224.144L61.4992 188.209C61.4992 188.209 49.3906 158.133 52.1248 155.204C54.859 152.274 79.0762 153.055 79.0762 153.055Z" fill="#2F2E41"/>
<path d="M71.8501 83.7238C77.1353 83.7238 81.4198 79.4393 81.4198 74.1541C81.4198 68.869 77.1353 64.5845 71.8501 64.5845C66.5649 64.5845 62.2804 68.869 62.2804 74.1541C62.2804 79.4393 66.5649 83.7238 71.8501 83.7238Z" fill="#9F616A"/>
<path d="M75.3655 81.9662C75.3655 81.9662 72.2407 90.1687 72.6313 91.9264C73.0219 93.6841 63.4522 88.8016 63.4522 88.8016C63.4522 88.8016 64.0381 79.2319 63.4522 76.693C62.8663 74.1541 75.3655 81.9662 75.3655 81.9662Z" fill="#9F616A"/>
<path d="M49.1251 135.402C49.168 137.041 49.1954 138.017 49.1954 138.017C49.1954 138.017 48.6094 147.001 49.586 149.931C50.5625 152.86 50.5625 155.008 51.1483 156.961C51.3202 157.53 53.658 157.834 56.9409 157.969C59.9525 158.092 63.7589 158.075 67.4129 157.991C73.4633 157.85 79.1036 157.526 80.0527 157.352C82.201 156.961 79.6621 153.641 80.4433 151.884C81.2245 150.126 79.0762 127.666 79.0762 127.666C79.0762 127.666 79.2715 114.972 78.295 110.089C77.3185 105.207 73.6078 97.3949 72.8266 96.4184C72.0454 95.4419 72.6313 94.856 74.389 93.6842C76.1467 92.5124 74.389 88.0205 74.389 88.0205C71.0689 85.2863 62.671 84.8957 62.671 84.8957C62.671 84.8957 49.7813 98.1761 49.0001 100.91C48.5274 102.562 48.6973 115.761 48.9044 125.952C48.9844 129.785 49.0684 133.195 49.1251 135.402Z" fill="#575A88"/>
<path d="M65.6005 159.696C65.6005 159.696 73.0219 174.929 67.1629 175.905C61.3039 176.882 58.3744 162.039 58.3744 162.039L65.6005 159.696Z" fill="#9F616A"/>
<path d="M80.7981 69.3035C81.1365 67.6622 79.8821 66.1279 78.561 65.0969C75.6839 62.8655 72.1442 61.6584 68.5032 61.6671C65.942 61.681 63.2988 62.3585 61.363 64.0355C59.1051 65.9916 58.0751 69.1285 58.2647 72.1098C58.4543 75.0912 59.7509 77.9189 61.4998 80.3408C62.3392 81.5032 63.6873 82.7065 65.0286 82.1999C65.5535 81.9541 66.0038 81.5737 66.3339 81.0974C67.1942 80.0299 67.9439 78.8777 68.5714 77.6587C69.0514 76.7258 69.4672 75.7426 70.1476 74.944C70.828 74.1454 71.8505 73.5448 72.8897 73.6882C73.7482 73.8067 74.5903 74.411 75.4091 74.1271C76.32 73.8112 76.5402 72.6464 76.6126 71.685C76.692 70.6312 76.6358 69.4106 76.9284 68.4143C77.2484 68.5851 80.6408 70.09 80.7981 69.3035Z" fill="#2F2E41"/>
<path opacity="0.1" d="M49.1251 135.402C51.3124 143.29 56.3297 156.584 56.6167 157.157C56.689 157.303 56.8023 157.59 56.9409 157.969C59.9525 158.092 63.7589 158.075 67.4129 157.991C66.8465 156.51 66.1864 155.081 66.1864 154.618C66.1864 153.641 61.4992 128.448 61.4992 128.448C61.4992 128.448 65.2099 117.315 68.53 107.941C71.8501 98.5666 58.6674 100.422 58.6674 100.422C51.6366 98.6643 50.3672 101.691 50.3672 101.691C50.3672 101.691 49.7481 118.155 48.9044 125.952C48.6876 127.95 48.4571 129.377 48.2189 129.815C47.9064 130.387 48.3282 132.539 49.1251 135.402Z" fill="black"/>
<path d="M61.4992 94.0748C61.4992 94.0748 70.483 97.7854 67.1629 107.16C63.8428 116.534 60.1321 127.666 60.1321 127.666C60.1321 127.666 64.8193 152.86 64.8193 153.837C64.8193 154.813 67.7488 160.086 66.577 161.063C65.4052 162.039 57.5932 163.992 57.3979 163.016C57.2026 162.039 55.6402 157.157 55.2496 156.375C54.859 155.594 45.6799 131.182 46.8517 129.033C47.714 127.453 48.4705 112.969 48.81 105.428C48.8885 103.277 49.5257 101.183 50.659 99.3533C51.7922 97.5231 53.3825 96.0196 55.2733 94.9906C57.0942 94.0256 59.2142 93.5035 61.4992 94.0748Z" fill="#575A88"/>
<path d="M97.5773 151.228H86.0211V162.784H97.5773V151.228Z" fill="#FAC710"/>
<path d="M91.7991 151.228C93.7493 151.228 95.3302 149.647 95.3302 147.697C95.3302 145.747 93.7493 144.166 91.7991 144.166C89.849 144.166 88.2681 145.747 88.2681 147.697C88.2681 149.647 89.849 151.228 91.7991 151.228Z" fill="#3F3D56"/>
<path d="M228.275 35.4169C237.904 35.4169 245.71 27.6107 245.71 17.9813C245.71 8.35191 237.904 0.545746 228.275 0.545746C218.645 0.545746 210.839 8.35191 210.839 17.9813C210.839 27.6107 218.645 35.4169 228.275 35.4169Z" fill="#FF6584"/>
<path d="M228.227 29.8904C228.227 43.0455 220.407 47.6388 210.76 47.6388C201.113 47.6388 193.292 43.0455 193.292 29.8904C193.292 16.7354 210.76 0 210.76 0C210.76 0 228.227 16.7353 228.227 29.8904Z" fill="#F2F2F2"/>
<path d="M210.123 45.6264L210.302 34.6168L217.747 20.9964L210.33 32.8898L210.411 27.9395L215.542 18.0852L210.432 26.6295L210.577 17.726L216.071 9.88061L210.599 16.3258L210.69 0L210.122 21.6125L210.169 20.7207L204.582 12.17L210.079 22.4323L209.558 32.3762L209.543 32.112L203.103 23.1135L209.523 33.0445L209.458 34.2881L209.447 34.3067L209.452 34.4088L208.131 59.6367H209.896L210.108 46.6061L216.512 36.6995L210.123 45.6264Z" fill="#3F3D56"/>
<path d="M270.317 49.5532C266.143 62.0286 257.269 63.9032 248.121 60.8424C238.972 57.7815 233.013 50.9443 237.187 38.4689C241.361 25.9935 263.236 15.665 263.236 15.665C263.236 15.665 274.491 37.0778 270.317 49.5532Z" fill="#F2F2F2"/>
<path d="M248.156 58.7322L251.818 48.3482L263.2 37.7935L252.393 46.7191L254.04 42.0501L262.032 34.333L254.476 40.8145L257.438 32.4169L265.138 26.7203L257.904 31.0963L263.169 15.6427L255.773 35.9583L256.101 35.1275L253.516 25.2463L255.472 36.7223L251.824 45.9872L251.893 45.732L248.641 35.1551L251.579 46.61L251.122 47.7685L251.105 47.7826L251.078 47.8811L241.821 71.3866L243.495 71.9464L247.83 59.656L257.047 52.2934L248.156 58.7322Z" fill="#3F3D56"/>
<path d="M183.613 39.5149C188.344 51.7898 182.699 58.8883 173.697 62.3577C164.696 65.8272 155.747 64.3538 151.016 52.0789C146.285 39.804 156.565 17.9064 156.565 17.9064C156.565 17.9064 178.882 27.24 183.613 39.5149Z" fill="#F2F2F2"/>
<path d="M172.38 60.7089L168.587 50.3715L170.636 34.985L167.992 48.7501L166.287 44.1019L167.531 33.0615L165.836 42.8718L162.769 34.5122L165.074 25.2158L162.287 33.1976L156.499 17.9315L163.742 38.3023L163.465 37.4535L155.177 31.4838L163.997 39.0827L167.087 48.5482L166.978 48.3074L157.733 42.2272L167.295 49.1844L167.682 50.3683L167.678 50.3898L167.719 50.4832L175.56 74.4981L177.206 73.8638L172.717 61.6286L175.131 50.0817L172.38 60.7089Z" fill="#3F3D56"/>
<path d="M146.516 143.813C145.433 145.539 144.029 145.498 142.763 144.705C141.497 143.911 140.848 142.665 141.931 140.938C143.013 139.212 146.683 138.452 146.683 138.452C146.683 138.452 147.598 142.086 146.516 143.813Z" fill="#FAC710"/>
<path d="M275.602 92.0686C275.803 94.0964 274.667 94.9235 273.18 95.0704C271.693 95.2173 270.418 94.6283 270.217 92.6005C270.017 90.5726 272.455 87.7269 272.455 87.7269C272.455 87.7269 275.402 90.0407 275.602 92.0686Z" fill="#FAC710"/>
<path d="M140.758 107.042C139.676 108.769 138.271 108.728 137.005 107.934C135.739 107.141 135.091 105.894 136.173 104.168C137.255 102.441 140.925 101.682 140.925 101.682C140.925 101.682 141.84 105.316 140.758 107.042Z" fill="#FAC710"/>
</g>
<defs>
<clipPath id="clip0">
<rect width="347" height="251.778" fill="white"/>
</clipPath>
</defs>
</svg>
