<svg width="315" height="146" viewBox="0 0 315 146" fill="none" xmlns="http://www.w3.org/2000/svg">
<g clip-path="url(#clip0)">
<path d="M315 124.759H0V125.759H315V124.759Z" fill="#3F3D56"/>
<path d="M292.253 110.235H277.681V124.807H292.253V110.235Z" fill="#FAC710"/>
<path d="M54.3678 105.125L43.0396 114.291L52.2054 125.619L63.5336 116.454L54.3678 105.125Z" fill="#FAC710"/>
<path d="M206.74 11.4811C200.35 0.682993 187.707 0.179772 187.707 0.179772C187.707 0.179772 175.386 -1.39573 167.483 15.0499C160.117 30.3786 149.95 45.1787 165.846 48.7671L168.718 39.8301L170.496 49.4324C172.759 49.5952 175.03 49.634 177.298 49.5487C194.321 48.999 210.534 49.7095 210.012 43.6006C209.318 35.4798 212.889 21.871 206.74 11.4811Z" fill="#2F2E41"/>
<path d="M164.939 106.045C164.751 107.233 164.479 108.406 164.124 109.554C163.724 110.679 163.106 111.719 162.741 112.855C161.575 116.476 163.191 120.514 165.772 123.309C168.009 125.724 170.898 127.439 174.089 128.248C176.438 128.751 178.834 129.003 181.237 128.999C187.88 129.225 194.694 129.426 200.989 127.291C202.978 126.6 204.899 125.727 206.728 124.684C207.305 124.409 207.814 124.008 208.217 123.512C208.639 122.784 208.826 121.944 208.754 121.106C208.74 118.29 208.169 115.488 208.305 112.675C208.38 111.117 208.672 109.56 208.528 108.007C208.329 106.242 207.59 104.583 206.412 103.255C205.234 101.927 203.674 100.995 201.946 100.588C200.138 100.309 198.298 100.309 196.49 100.588C191.771 101.042 187.032 101.254 182.291 101.223C177.447 101.192 172.633 100.453 167.813 100.376C166.388 100.353 166.416 100.792 165.963 102.172C165.545 103.441 165.203 104.735 164.939 106.045Z" fill="#2F2E41"/>
<path d="M178.685 36.5042C178.541 37.741 178.126 38.9306 177.468 39.9882C176.626 41.1406 175.252 41.799 174.345 42.9019C172.981 44.562 172.902 46.898 172.897 49.047C172.891 51.0266 172.932 53.1381 174.036 54.7813C174.821 55.8022 175.796 56.6619 176.908 57.3135C181.048 60.1036 185.521 62.9437 190.513 63.0357C192.581 63.0738 194.799 62.5397 196.16 60.9818C196.747 60.2501 197.209 59.4258 197.527 58.5427C198.803 55.3965 199.577 52.0692 199.82 48.6826C200.003 47.0906 199.855 45.4777 199.383 43.9461C198.777 42.2554 197.551 40.8643 196.74 39.2613C195.782 37.3552 195.432 35.2012 195.736 33.0898C195.777 32.9411 195.764 32.7831 195.701 32.6425C195.634 32.5673 195.551 32.5085 195.458 32.4708C195.365 32.4331 195.264 32.4174 195.164 32.425L185.267 31.7125C184.345 31.6667 183.427 31.5617 182.519 31.3981C181.985 31.2896 180.576 30.5319 180.067 30.7334C179.125 31.1063 178.878 35.4935 178.685 36.5042Z" fill="#FFB8B8"/>
<path opacity="0.1" d="M178.685 36.5042C178.541 37.741 178.126 38.9306 177.468 39.9882C176.626 41.1406 175.252 41.799 174.345 42.9019C172.981 44.562 172.902 46.898 172.897 49.047C172.891 51.0266 172.932 53.1381 174.036 54.7813C174.821 55.8022 175.796 56.6619 176.908 57.3135C181.048 60.1036 185.521 62.9437 190.513 63.0357C192.581 63.0738 194.799 62.5397 196.16 60.9818C196.747 60.2501 197.209 59.4258 197.527 58.5427C198.803 55.3965 199.577 52.0692 199.82 48.6826C200.003 47.0906 199.855 45.4777 199.383 43.9461C198.777 42.2554 197.551 40.8643 196.74 39.2613C195.782 37.3552 195.432 35.2012 195.736 33.0898C195.777 32.9411 195.764 32.7831 195.701 32.6425C195.634 32.5673 195.551 32.5085 195.458 32.4708C195.365 32.4331 195.264 32.4174 195.164 32.425L185.267 31.7125C184.345 31.6667 183.427 31.5617 182.519 31.3981C181.985 31.2896 180.576 30.5319 180.067 30.7334C179.125 31.1063 178.878 35.4935 178.685 36.5042Z" fill="black"/>
<path d="M188.151 37.8314C196.17 37.8314 202.672 31.3302 202.672 23.3106C202.672 15.291 196.17 8.78979 188.151 8.78979C180.131 8.78979 173.63 15.291 173.63 23.3106C173.63 31.3302 180.131 37.8314 188.151 37.8314Z" fill="#FFB8B8"/>
<path d="M180.722 55.8338C181.439 56.6645 182.304 57.3554 183.272 57.8718C184.282 58.2891 185.366 58.4956 186.459 58.4785C189.076 58.5521 191.914 58.0725 193.735 56.1907C196.082 53.7649 196.005 49.8524 197.844 47.0224C197.993 46.7659 198.195 46.5446 198.437 46.3741C198.746 46.2061 199.095 46.1259 199.446 46.1422C201.769 46.1205 203.793 47.6275 205.62 49.0637C206.48 49.6554 207.218 50.407 207.793 51.2776C208.155 51.9824 208.402 52.7398 208.526 53.5219C209.331 57.9683 209.829 62.4647 210.018 66.9794C210.179 69.4692 210.34 71.9614 210.328 74.4564C210.288 82.6762 208.378 90.7586 206.478 98.7559C206.233 99.7864 205.898 100.938 204.961 101.432C204.543 101.62 204.095 101.729 203.637 101.755C198.206 102.486 192.741 102.941 187.264 103.118C185.126 103.151 182.989 103.099 180.853 102.963C180.485 102.958 180.121 102.894 179.773 102.775C179.301 102.548 178.896 102.204 178.596 101.775C175.632 98.0405 175.457 92.8778 175.476 88.1107C175.523 76.4554 175.939 64.8094 176.726 53.1727C176.79 52.2122 176.805 51.0457 176.113 50.2901C177.46 52.2873 179.004 54.1444 180.722 55.8338Z" fill="#D0CDE1"/>
<path d="M177.646 39.0673C177.156 39.9551 173.54 42.1595 172.842 42.8953C168.942 47.0063 161.823 46.852 158.257 51.2552C157.074 52.8699 156.26 54.7235 155.87 56.6862C155.192 59.4232 154.83 62.4081 155.966 64.9889C157.059 67.4721 159.36 69.1889 160.923 71.4071C162.639 73.8427 163.41 76.7999 164.149 79.6859C164.695 81.8168 165.245 84.0005 165.033 86.1898C164.791 88.6791 163.586 90.9584 162.875 93.3561C162.164 95.7538 162.041 98.6095 163.686 100.494C164.894 101.878 166.789 102.427 168.6 102.736C170.92 103.084 173.259 103.288 175.605 103.346C177.675 103.437 179.957 103.455 181.549 102.127C182.145 101.565 182.619 100.885 182.941 100.132C183.263 99.3781 183.427 98.5663 183.422 97.7467C183.402 96.111 183.241 94.48 182.939 92.8721C182.719 91.1913 182.634 89.4958 182.563 87.802C182.244 80.2022 182.201 72.5975 182.433 64.9878C182.549 63.4063 182.472 61.8164 182.202 60.2537C181.758 58.2181 180.657 56.3989 179.739 54.5286C177.905 51.0059 177.074 47.0467 177.337 43.0836C177.615 39.0109 179.391 35.9081 177.646 39.0673Z" fill="#FAC710"/>
<path d="M198.037 39.3762C198.784 40.144 201.322 40.3971 202.273 40.8915C203.166 41.3045 204.099 41.6274 205.057 41.8556C208.523 42.8555 211.82 44.3687 214.838 46.3449C215.466 46.7118 216.02 47.1907 216.474 47.7578C216.953 48.5361 217.261 49.4069 217.379 50.3129C217.938 52.5995 218.216 54.9456 218.207 57.2994C218.096 59.7928 217.345 62.2077 216.6 64.5898L213.816 73.4905C211.738 80.1343 209.647 86.8435 209.062 93.7801C208.738 97.6245 208.882 101.494 209.49 105.304C209.547 105.489 209.564 105.685 209.54 105.877C209.516 106.069 209.451 106.255 209.35 106.42C209.166 106.601 208.925 106.712 208.668 106.734C207.324 106.944 206.024 106.259 204.806 105.652C201.085 103.801 197.114 102.501 193.018 101.795C194.619 99.4821 195.854 96.9364 196.68 94.2475C197.149 92.5401 197.518 90.8069 197.786 89.0567L199.081 81.566C199.608 78.8282 199.979 76.0626 200.192 73.2826C200.29 72.2394 200.229 71.1873 200.012 70.1623C199.713 69.1868 199.317 68.244 198.829 67.3483C196.694 62.9084 195.693 57.8418 196.533 52.9877C196.9 50.8634 197.615 48.7362 197.317 46.601C197.03 44.5481 197.328 42.9526 196.801 40.921C194.639 32.5792 196.632 37.9318 198.037 39.3762Z" fill="#FAC710"/>
<path d="M158.22 58.275C157.247 60.2942 155.62 62.0144 155.066 64.1864C154.851 65.2015 154.758 66.2389 154.791 67.2761C154.695 68.8392 154.85 70.4077 155.249 71.9219C155.558 72.8797 156.061 73.7631 156.423 74.7021C156.928 76.014 157.153 77.4169 157.084 78.8209C156.986 80.7659 156.325 82.654 156.274 84.6008C156.192 87.6623 157.608 90.5403 158.99 93.2735C159.338 92.4123 159.87 91.6375 160.548 91.0032C161.227 90.3689 162.036 89.8906 162.918 89.6016C163.801 89.3127 164.736 89.22 165.658 89.3302C166.581 89.4404 167.468 89.7507 168.257 90.2396C168.574 89.8509 168.724 89.353 168.675 88.8542C168.777 85.3023 168.876 81.7504 168.971 78.1984C169.12 72.7049 169.263 67.1381 167.999 61.7899C167.524 59.343 166.466 57.0469 164.913 55.0968C164.056 54.1107 161.147 51.513 159.74 52.6178C159.108 53.1146 159.255 54.467 159.155 55.1519C159.004 56.2344 158.688 57.2876 158.22 58.275Z" fill="#FAC710"/>
<path d="M218.492 52.456C218.883 53.9121 219.051 55.4192 218.989 56.9257C219.008 59.9962 218.967 63.0662 218.867 66.1358C218.882 67.7102 218.681 69.2793 218.268 70.7988C217.954 71.7869 217.469 72.7136 217.145 73.6984C216.172 76.6498 216.704 79.8509 216.787 82.9574C216.846 83.9628 216.76 84.9715 216.532 85.9525C216.019 87.8783 214.64 89.4343 213.677 91.1793C212.762 92.8366 212.211 94.6943 211.119 96.2403C210.027 97.7863 208.136 99.0113 206.304 98.5367C204.916 98.1771 203.929 96.9483 203.247 95.6869C201.758 92.9134 201.249 89.7186 201.802 86.6196C202.487 82.8493 204.701 79.5045 205.5 75.7566C206.597 70.6099 204.93 65.2989 204.979 60.0369C204.957 59.212 205.069 58.389 205.311 57.6001C205.826 56.4329 206.555 55.3726 207.461 54.4743C208.499 53.2697 209.464 52.0033 210.35 50.6822C210.945 49.7947 211.754 47.5121 212.809 47.3223C215.164 46.8986 217.907 50.6362 218.492 52.456Z" fill="#FAC710"/>
<path d="M145.997 103.756C144.695 103.429 143.353 103.286 142.01 103.332C140.6 103.41 139.222 103.788 137.969 104.439C136.716 105.091 135.616 106.002 134.742 107.111C133.868 108.221 133.24 109.504 132.901 110.875C132.561 112.246 132.517 113.674 132.772 115.063C133.097 116.568 133.629 118.021 134.352 119.38C135.409 121.526 136.677 123.667 138.635 125.042C139.814 125.798 141.084 126.402 142.414 126.841L152.724 130.725C154.24 131.296 155.757 131.867 157.289 132.397C164.984 135.057 173.006 136.652 181.133 137.137C183.606 137.369 186.1 137.243 188.536 136.762C189.126 136.686 189.665 136.394 190.053 135.943C190.249 135.601 190.365 135.218 190.391 134.824L191.026 130.383C191.168 129.765 191.149 129.12 190.972 128.511C190.599 127.795 189.995 127.226 189.258 126.896C182.481 123.003 174.567 120.856 168.862 115.513C167.519 114.255 166.395 112.262 164.763 111.407C162.913 110.438 160.734 109.885 158.821 108.993C154.64 107.041 150.529 104.798 145.997 103.756Z" fill="#2F2E41"/>
<path opacity="0.1" d="M156.29 109.743C159.933 110.885 175.318 118.796 177.955 121.558C177.602 121.685 165.609 114.964 165.249 114.856C161.951 113.95 158.72 112.812 155.582 111.45C154.958 111.161 151.523 109.802 151.678 109.014C151.854 108.124 155.643 109.541 156.29 109.743Z" fill="black"/>
<path d="M201.75 139.441C201.957 139.456 202.162 139.395 202.328 139.271C202.4 139.177 202.454 139.071 202.485 138.956C202.516 138.842 202.524 138.723 202.508 138.606L202.491 132.556C200.707 131.818 198.819 131.362 196.895 131.206L187.982 130.014C188.187 130.042 186.588 133.853 186.833 134.362C187.265 135.259 190.567 136.054 191.498 136.477C194.737 137.949 198.102 139.568 201.75 139.441Z" fill="#FFB8B8"/>
<path d="M173.786 132.535C172.103 132.803 170.225 133.04 169.135 134.35C167.753 136.011 168.341 138.487 169 140.545C169.041 140.811 169.134 141.066 169.274 141.295C169.414 141.524 169.599 141.722 169.818 141.879C170.036 142.035 170.284 142.146 170.546 142.205C170.808 142.264 171.08 142.269 171.344 142.222C172.879 142.319 174.512 142.395 175.853 141.642C176.46 141.241 177.045 140.806 177.604 140.34C178.593 139.682 179.68 139.185 180.825 138.868C182.929 138.206 185.095 137.76 187.289 137.536C188.154 137.496 189.009 137.345 189.835 137.087C190.248 136.954 190.624 136.728 190.935 136.426C191.246 136.124 191.484 135.754 191.629 135.346C191.939 134.246 191.3 133.125 190.687 132.161C189.981 130.898 189.065 129.765 187.977 128.811C186.316 127.521 185.495 128.511 183.822 129.336C180.655 130.899 177.272 131.977 173.786 132.535Z" fill="#FFB8B8"/>
<path d="M169.388 134.051L158.703 130.892C157.421 130.446 156.082 130.187 154.726 130.122C154.048 130.094 153.371 130.211 152.741 130.466C152.111 130.721 151.543 131.107 151.074 131.599C150.246 132.571 150.009 133.9 149.802 135.161L149.36 137.858C149.066 139.218 148.982 140.614 149.113 141.999C149.184 142.692 149.412 143.359 149.78 143.951C150.148 144.542 150.646 145.042 151.236 145.411C152.714 146.218 154.527 145.824 156.177 145.487C159.51 144.805 162.901 144.442 166.303 144.401C167.582 144.386 168.923 144.402 170.053 143.803C170.709 143.414 171.261 142.871 171.659 142.22C172.057 141.57 172.29 140.832 172.339 140.071C172.549 137.767 171.781 134.758 169.388 134.051Z" fill="#2F2E41"/>
<path d="M205.95 131.298C207.335 131.056 208.558 130.268 209.885 129.804C211.753 129.149 213.778 129.15 215.757 129.157C216.485 129.09 217.217 129.237 217.863 129.578C218.735 130.159 218.958 131.321 219.106 132.357L220.001 138.614C220.24 139.781 220.265 140.982 220.074 142.158C219.971 142.745 219.712 143.294 219.324 143.747C218.937 144.2 218.435 144.541 217.871 144.734C216.474 145.097 215.104 144.205 213.785 143.618C210.487 142.153 206.654 142.527 203.216 141.432C202.887 141.366 202.576 141.231 202.304 141.036C202.031 140.841 201.803 140.591 201.634 140.301C201.517 139.954 201.475 139.585 201.511 139.22C201.57 137.209 201.146 134.463 201.751 132.541C202.296 130.813 204.404 131.298 205.95 131.298Z" fill="#2F2E41"/>
<path d="M228.563 101.238C230.698 100.703 232.911 100.552 235.099 100.792C236.847 100.984 238.647 101.47 239.923 102.68C241.476 104.152 241.975 106.429 242.017 108.568C242.085 112.829 240.672 116.982 238.018 120.317C237.37 121.16 236.6 121.902 235.732 122.517C234.796 123.103 233.799 123.583 232.758 123.951L209.67 133.057C203.597 135.453 197.501 137.855 191.166 139.435C190.993 139.518 190.805 139.566 190.613 139.576C190.421 139.586 190.228 139.557 190.048 139.492C189.867 139.426 189.701 139.325 189.56 139.195C189.419 139.064 189.305 138.906 189.226 138.731C187.203 135.842 185.506 132.737 184.165 129.475C184.102 129.397 184.058 129.306 184.038 129.208C184.017 129.109 184.021 129.008 184.048 128.911C184.075 128.815 184.124 128.726 184.193 128.653C184.262 128.58 184.347 128.525 184.441 128.491L200.771 119.109C201.968 118.484 203.085 117.715 204.095 116.819C204.801 116.135 205.378 115.33 205.801 114.443C206.14 113.736 206.171 112.068 206.604 111.545C207.027 111.033 208.475 110.992 209.144 110.791C210.087 110.502 211.011 110.153 211.909 109.746C215.562 108.112 218.815 105.737 222.317 103.824C224.281 102.701 226.38 101.832 228.563 101.238Z" fill="#2F2E41"/>
<path opacity="0.1" d="M219.305 108.245C216.5 110.352 212.867 112.289 210.086 114.452C209.137 115.19 193.318 124.084 193.094 125.265C195.688 125.702 212.213 114.142 214.577 112.988C216.902 111.753 219.093 110.28 221.114 108.593C221.643 108.182 223.886 106.945 222.367 106.485C221.511 106.226 219.937 107.824 219.305 108.245Z" fill="black"/>
<path d="M203.915 10.44L191.424 3.89734L174.175 6.57391L170.606 22.3364L179.49 21.9946L181.972 16.2036V21.8992L186.071 21.7413L188.45 12.5221L189.937 22.3364L204.51 22.0389L203.915 10.44Z" fill="#2F2E41"/>
<path d="M201.127 42.7747H174.248V75.2148H201.127V42.7747Z" fill="#3F3D56"/>
<path d="M161.487 99.1966C162.053 100.157 162.856 100.956 163.819 101.516C164.451 101.805 165.141 101.945 165.835 101.927C166.53 101.908 167.211 101.731 167.827 101.409C169.057 100.749 170.063 99.7401 170.719 98.5086C172.077 96.1115 172.358 93.243 172.189 90.4934C172.019 87.7437 171.432 85.0362 171.172 82.2936C170.983 80.2999 170.968 78.2944 170.953 76.2918C170.906 75.8707 170.994 75.4456 171.205 75.078C171.568 74.7171 172.038 74.4827 172.544 74.4094C175.284 73.5953 177.103 71.0273 178.406 68.4839C179.277 66.7855 180.034 64.9291 179.866 63.028C179.698 61.1269 178.332 59.2118 176.433 59.0178C174.868 58.8579 173.423 59.8521 172.294 60.9479C169.445 63.7295 167.615 67.3877 167.096 71.335C166.848 73.2679 166.919 75.2535 166.394 77.13C165.271 81.1368 161.759 83.5933 160.008 87.1987C158.08 91.1714 159.144 95.6815 161.487 99.1966Z" fill="#FFB8B8"/>
<path d="M213.173 83.8892C212.774 84.8185 212.193 85.6583 211.463 86.3591C210.734 87.0599 209.872 87.6075 208.927 87.9695C207.753 88.441 206.458 88.5203 205.236 88.1956C204.629 88.0274 204.07 87.7216 203.601 87.3021C203.132 86.8826 202.766 86.3607 202.531 85.7768C202.344 85.1886 202.242 84.5769 202.227 83.9599C202.051 81.2579 202.119 78.4736 203.1 75.9501C203.479 74.9767 203.989 74.0537 204.288 73.053C204.582 71.8972 204.732 70.7097 204.735 69.5172L205.058 62.1449C205.111 61.6097 205.074 61.0693 204.949 60.5463C204.627 59.4796 203.63 58.7864 202.715 58.1502C200.506 56.6139 198.323 54.8211 197.252 52.3523C196.884 51.609 196.753 50.771 196.875 49.9507C197.176 48.4867 198.654 47.539 200.114 47.2197C201.069 47.0108 202.057 46.9975 203.018 47.1805C203.979 47.3636 204.893 47.7392 205.704 48.2848C206.516 48.8304 207.209 49.5346 207.741 50.3551C208.273 51.1756 208.634 52.0954 208.801 53.0589C208.946 53.8909 208.944 54.7408 209.028 55.5809C209.208 57.3632 209.773 59.0812 210.127 60.8371C210.999 65.1624 210.547 69.6334 211.41 73.9579C212.131 77.5737 214.849 79.933 213.173 83.8892Z" fill="#FFB8B8"/>
<path d="M188.376 58.6847C190.788 58.6847 192.743 56.7298 192.743 54.3184C192.743 51.9069 190.788 49.952 188.376 49.952C185.965 49.952 184.01 51.9069 184.01 54.3184C184.01 56.7298 185.965 58.6847 188.376 58.6847Z" fill="#FAC710"/>
</g>
<defs>
<clipPath id="clip0">
<rect width="315" height="145.96" fill="white" transform="translate(0 0.00634766)"/>
</clipPath>
</defs>
</svg>
