<svg width="347" height="276" viewBox="0 0 347 276" fill="none" xmlns="http://www.w3.org/2000/svg">
<g clip-path="url(#clip0)">
<path d="M185.417 58.3542C197.997 58.3542 208.195 48.156 208.195 35.576C208.195 22.9959 197.997 12.7978 185.417 12.7978C172.837 12.7978 162.639 22.9959 162.639 35.576C162.639 48.156 172.837 58.3542 185.417 58.3542Z" fill="#F8BDC5"/>
<path d="M116.832 145.201C116.832 189.195 90.6782 204.556 58.416 204.556C26.1537 204.556 0 189.195 0 145.201C0 101.207 58.416 45.2397 58.416 45.2397C58.416 45.2397 116.832 101.207 116.832 145.201Z" fill="#B7E4C4"/>
<path d="M56.2881 197.826L56.8861 161.007L81.7844 115.457L56.98 155.231L57.2487 138.676L74.4089 105.721L57.3199 134.295L57.804 104.52L76.1789 78.283L57.8798 99.8376L58.1819 45.2397L56.2828 117.517L56.4387 114.536L37.7567 85.9393L56.1394 120.259L54.3986 153.513L54.3467 152.631L32.8095 122.538L54.2815 155.749L54.0637 159.908L54.0249 159.97L54.0427 160.312L49.6262 244.68H55.5269L56.2348 201.102L77.6541 167.972L56.2881 197.826Z" fill="#3F3D56"/>
<path d="M289.941 122.12C289.941 175.867 257.989 194.633 218.575 194.633C179.161 194.633 147.21 175.867 147.21 122.12C147.21 68.3739 218.575 0 218.575 0C218.575 0 289.941 68.3739 289.941 122.12Z" fill="#B7E4C4"/>
<path d="M215.975 186.412L216.706 141.431L247.124 85.7827L216.821 134.374L217.15 114.149L238.113 73.8886L217.236 108.797L217.827 72.4208L240.276 40.3683L217.92 66.7006L218.29 0L215.969 88.2997L216.16 84.657L193.336 49.722L215.794 91.6495L213.667 132.275L213.604 131.197L187.292 94.4331L213.524 135.006L213.258 140.087L213.211 140.164L213.232 140.581L207.837 243.652H215.045L215.911 190.413L242.078 149.939L215.975 186.412Z" fill="#3F3D56"/>
<path d="M142.352 247.698C202.894 247.698 251.972 245.945 251.972 243.783C251.972 241.621 202.894 239.868 142.352 239.868C81.8105 239.868 32.7319 241.621 32.7319 243.783C32.7319 245.945 81.8105 247.698 142.352 247.698Z" fill="#3F3D56"/>
<path d="M296.461 275.459C324.373 275.459 347 273.308 347 270.654C347 268.001 324.373 265.849 296.461 265.849C268.549 265.849 245.922 268.001 245.922 270.654C245.922 273.308 268.549 275.459 296.461 275.459Z" fill="#3F3D56"/>
<path d="M148.758 123.486H135.946V243.783H148.758V123.486Z" fill="#2F2E41"/>
<path d="M201.077 150.891H122.421V128.824H201.077L223.855 139.857L201.077 150.891Z" fill="#3F3D56"/>
<path opacity="0.1" d="M201.077 149.111H122.421V150.891H201.077L223.855 139.857L222.019 138.968L201.077 149.111Z" fill="black"/>
<path d="M83.9829 180.075H162.639V158.009H83.9829L61.2047 169.042L83.9829 180.075Z" fill="#3F3D56"/>
<path opacity="0.1" d="M63.0416 168.152L61.2047 169.042L83.9829 180.075H162.639V178.296H83.9829L63.0416 168.152Z" fill="black"/>
<path d="M180.078 133.095H166.554V146.62H180.078V133.095Z" fill="#FAC710"/>
<path d="M112.1 175.804C115.834 175.804 118.862 172.777 118.862 169.042C118.862 165.307 115.834 162.28 112.1 162.28C108.365 162.28 105.337 165.307 105.337 169.042C105.337 172.777 108.365 175.804 112.1 175.804Z" fill="#FAC710"/>
<path d="M142.352 143.061C144.514 143.061 146.267 141.308 146.267 139.146C146.267 136.983 144.514 135.231 142.352 135.231C140.19 135.231 138.437 136.983 138.437 139.146C138.437 141.308 140.19 143.061 142.352 143.061Z" fill="#2F2E41"/>
<path d="M142.352 172.245C144.514 172.245 146.267 170.492 146.267 168.33C146.267 166.168 144.514 164.415 142.352 164.415C140.19 164.415 138.437 166.168 138.437 168.33C138.437 170.492 140.19 172.245 142.352 172.245Z" fill="#2F2E41"/>
<path d="M116.015 230.378C116.015 238.375 111.261 241.167 105.397 241.167C105.261 241.167 105.125 241.166 104.99 241.162C104.718 241.157 104.449 241.144 104.183 241.126C98.8904 240.751 94.7784 237.815 94.7784 230.378C94.7784 222.681 104.614 212.97 105.353 212.251L105.354 212.25C105.382 212.222 105.397 212.208 105.397 212.208C105.397 212.208 116.015 222.381 116.015 230.378Z" fill="#FAC710"/>
<path d="M105.01 239.944L108.893 234.517L105 240.54L104.99 241.163C104.718 241.157 104.449 241.144 104.183 241.126L104.602 233.125L104.598 233.063L104.605 233.051L104.645 232.296L100.742 226.258L104.657 231.729L104.666 231.889L104.983 225.844L101.641 219.606L105.023 224.783L105.353 212.251L105.354 212.208V212.25L105.299 222.132L108.625 218.214L105.285 222.984L105.197 228.396L108.303 223.202L105.184 229.192L105.135 232.201L109.644 224.972L105.118 233.251L105.01 239.944Z" fill="#3F3D56"/>
<path d="M280.103 261.904C280.103 261.904 275.064 266.147 272.412 265.882C269.759 265.617 264.72 265.617 266.842 268.535C268.964 271.452 277.716 273.043 281.429 273.309C285.143 273.574 293.365 273.839 292.834 272.248C292.304 270.656 291.773 263.23 289.651 262.699C287.53 262.169 280.103 261.904 280.103 261.904Z" fill="#575A89"/>
<path d="M309.026 257.737C309.026 257.737 305.313 263.179 302.687 263.637C300.061 264.094 295.207 265.448 298.035 267.688C300.863 269.928 309.721 269.109 313.369 268.366C317.017 267.624 325.008 265.669 324.069 264.279C323.13 262.889 320.624 255.878 318.437 255.938C316.251 255.997 309.026 257.737 309.026 257.737Z" fill="#575A89"/>
<path d="M277.151 179.911C277.151 179.911 273.738 203.288 274.533 207.532C275.329 211.776 275.86 218.406 275.86 218.406C275.86 218.406 275.329 223.976 275.86 226.628C276.39 229.281 279.573 254.477 279.573 255.008C279.573 255.538 279.042 257.13 279.573 258.456C280.103 259.782 281.164 258.721 279.573 260.843C277.981 262.965 279.042 263.495 279.308 263.495C279.573 263.495 289.917 264.556 290.447 263.495C290.978 262.434 290.182 262.169 290.447 260.843C290.712 259.517 290.978 259.252 291.508 258.986C292.039 258.721 293.099 259.252 292.304 257.925C291.508 256.599 289.651 255.008 290.182 254.212C290.712 253.416 289.917 247.581 289.917 247.581C289.917 247.581 289.386 234.585 289.121 226.628C288.856 218.672 291.508 210.449 291.508 210.449C291.838 216.96 294.256 223.191 298.404 228.22C305.3 236.442 308.748 251.825 308.748 251.825C308.748 251.825 310.339 254.212 309.544 256.334C308.748 258.456 306.361 257.13 308.748 258.456C311.135 259.782 319.357 257.925 320.153 257.13C320.948 256.334 319.092 255.273 319.622 253.151C320.153 251.029 322.275 251.56 320.418 250.499C318.561 249.438 318.031 249.703 318.031 248.642C318.031 247.581 313.257 224.507 305.83 217.876L305.3 193.74C305.3 193.74 311.931 176.765 305.035 175.174C298.139 173.583 277.151 179.911 277.151 179.911Z" fill="#2F2E41"/>
<path d="M281.96 117.089C281.96 117.089 286.469 128.229 285.408 129.82C284.347 131.411 298.404 124.515 298.404 124.515C298.404 124.515 293.895 113.376 293.895 112.05C293.895 110.724 281.96 117.089 281.96 117.089Z" fill="#A0616A"/>
<path d="M285.275 119.874C290.695 119.874 295.089 115.48 295.089 110.06C295.089 104.641 290.695 100.247 285.275 100.247C279.855 100.247 275.462 104.641 275.462 110.06C275.462 115.48 279.855 119.874 285.275 119.874Z" fill="#A0616A"/>
<path d="M298.404 120.007C298.404 120.007 291.508 119.211 288.06 123.454C284.612 127.698 284.082 128.759 284.082 128.759C284.082 128.759 275.86 142.02 277.451 148.651C277.839 149.25 278.193 149.87 278.512 150.508C279.042 151.569 279.042 166.422 278.512 168.809C277.981 171.196 277.451 171.991 277.981 175.439C278.512 178.887 273.738 184.457 279.308 185.518C284.877 186.579 289.121 185.783 290.978 183.396C292.834 181.009 291.243 179.418 297.078 179.418C302.913 179.418 306.626 175.439 306.626 175.439C306.626 175.439 303.709 172.257 304.77 171.726C305.831 171.196 304.77 169.869 304.239 168.543C303.709 167.217 303.709 166.156 304.504 166.156C305.3 166.156 304.77 165.626 304.239 164.3C303.709 162.974 313.522 140.164 307.687 133.533C301.852 126.902 298.935 123.189 298.935 123.189C298.935 123.189 299.995 119.211 298.404 120.007Z" fill="#FAC710"/>
<path d="M283.286 145.203V156.873L274.799 184.987C274.799 184.987 269.229 199.575 274.799 199.575C280.369 199.575 280.07 185.652 280.07 185.652L292.039 164.565C292.039 164.565 296.813 147.855 296.282 146.529C295.752 145.203 283.286 145.203 283.286 145.203Z" fill="#A0616A"/>
<path d="M287.795 127.963C287.795 127.963 279.838 131.146 281.96 139.633C284.082 148.121 281.96 147.856 281.96 147.856C281.96 147.856 292.834 146.795 296.282 149.182L297.078 145.999C297.078 145.999 300.261 127.698 287.795 127.963Z" fill="#FAC710"/>
<path d="M281.924 102.693C281.312 102.911 280.655 102.972 280.013 102.872C279.371 102.772 278.764 102.514 278.246 102.121C277.247 101.297 276.822 99.7774 277.411 98.6232C277.918 97.6265 279.005 97.0797 280.046 96.6719C282.344 95.7732 284.764 95.2267 287.225 95.0509C288.399 94.9675 289.631 94.9807 290.678 95.5167C291.196 95.7819 291.646 96.1646 292.159 96.4394C293.102 96.9445 294.2 97.0568 295.22 97.3819C296.263 97.7222 297.221 98.2825 298.029 99.0251C298.836 99.7676 299.475 100.675 299.902 101.686C300.179 102.372 300.373 103.089 300.479 103.822C300.784 105.828 300.571 107.879 299.86 109.779C298.729 112.789 296.358 115.421 296.224 118.634C294.773 117.581 294.235 115.68 293.071 114.316C292.206 113.307 291.024 112.621 289.719 112.371C289.358 112.349 289.011 112.223 288.72 112.007C288.517 111.765 288.39 111.469 288.355 111.155L287.362 106.467C287.16 105.512 286.904 104.472 286.12 103.892C285.632 103.58 285.078 103.385 284.501 103.322C283.132 103.083 281.745 102.956 280.355 102.944" fill="#2F2E41"/>
</g>
<defs>
<clipPath id="clip0">
<rect width="347" height="275.459" fill="white"/>
</clipPath>
</defs>
</svg>
