<svg width="1000" height="794" viewBox="0 0 1000 794" fill="none" xmlns="http://www.w3.org/2000/svg">
<g clip-path="url(#clip0)">
<path d="M534.343 168.168C570.597 168.168 599.986 138.778 599.986 102.524C599.986 66.2706 570.597 36.8812 534.343 36.8812C498.089 36.8812 468.7 66.2706 468.7 102.524C468.7 138.778 498.089 168.168 534.343 168.168Z" fill="#FF6584"/>
<path d="M336.692 418.447C336.692 545.23 261.321 589.499 168.346 589.499C75.371 589.499 0 545.23 0 418.447C0 291.663 168.346 130.374 168.346 130.374C168.346 130.374 336.692 291.663 336.692 418.447Z" fill="#B7E4C4"/>
<path d="M162.214 570.104L163.937 463.998L235.69 332.729L164.208 447.353L164.982 399.643L214.435 304.671L165.187 387.017L166.582 301.209L219.536 225.599L166.801 287.716L167.671 130.374L162.198 338.666L162.648 330.074L108.809 247.664L161.785 346.569L156.768 442.402L156.619 439.858L94.552 353.134L156.431 448.844L155.803 460.829L155.692 461.009L155.743 461.993L143.015 705.13H160.02L162.06 579.545L223.787 484.07L162.214 570.104Z" fill="#3F3D56"/>
<path d="M835.564 351.932C835.564 506.82 743.485 560.902 629.9 560.902C516.315 560.902 424.236 506.82 424.236 351.932C424.236 197.043 629.9 -6.10352e-05 629.9 -6.10352e-05C629.9 -6.10352e-05 835.564 197.043 835.564 351.932Z" fill="#B7E4C4"/>
<path d="M622.408 537.209L624.513 407.581L712.173 247.212L624.844 387.246L625.791 328.96L686.206 212.935L626.042 313.536L627.744 208.706L692.438 116.335L628.012 192.221L629.077 0L622.389 254.466L622.939 243.968L557.166 143.291L621.885 264.12L615.755 381.196L615.574 378.09L539.748 272.142L615.344 389.068L614.577 403.709L614.44 403.93L614.503 405.132L598.954 702.166H619.728L622.221 548.742L697.631 432.102L622.408 537.209Z" fill="#3F3D56"/>
<path d="M410.236 713.827C584.708 713.827 726.145 708.776 726.145 702.545C726.145 696.314 584.708 691.262 410.236 691.262C235.765 691.262 94.3284 696.314 94.3284 702.545C94.3284 708.776 235.765 713.827 410.236 713.827Z" fill="#3F3D56"/>
<path d="M854.354 793.83C934.792 793.83 1000 787.631 1000 779.983C1000 772.336 934.792 766.137 854.354 766.137C773.916 766.137 708.708 772.336 708.708 779.983C708.708 787.631 773.916 793.83 854.354 793.83Z" fill="#3F3D56"/>
<path d="M428.699 355.866H391.774V702.545H428.699V355.866Z" fill="#2F2E41"/>
<path d="M579.473 434.843H352.799V371.252H579.473L645.116 403.048L579.473 434.843Z" fill="#3F3D56"/>
<path opacity="0.1" d="M579.473 429.715H352.799V434.843H579.473L645.116 403.047L639.823 400.483L579.473 429.715Z" fill="black"/>
<path d="M242.026 518.949H468.7V455.357H242.026L176.382 487.153L242.026 518.949Z" fill="#3F3D56"/>
<path opacity="0.1" d="M181.676 484.589L176.382 487.153L242.026 518.949H468.7V513.821H242.026L181.676 484.589Z" fill="black"/>
<path d="M518.958 383.56H479.982V422.535H518.958V383.56Z" fill="#FAC710"/>
<path d="M323.054 506.641C333.817 506.641 342.542 497.916 342.542 487.153C342.542 476.39 333.817 467.665 323.054 467.665C312.291 467.665 303.566 476.39 303.566 487.153C303.566 497.916 312.291 506.641 323.054 506.641Z" fill="#FAC710"/>
<path d="M410.237 412.278C416.468 412.278 421.519 407.227 421.519 400.996C421.519 394.765 416.468 389.714 410.237 389.714C404.005 389.714 398.954 394.765 398.954 400.996C398.954 407.227 404.005 412.278 410.237 412.278Z" fill="#2F2E41"/>
<path d="M410.237 496.384C416.468 496.384 421.519 491.333 421.519 485.101C421.519 478.87 416.468 473.819 410.237 473.819C404.005 473.819 398.954 478.87 398.954 485.101C398.954 491.333 404.005 496.384 410.237 496.384Z" fill="#2F2E41"/>
<path d="M334.336 663.914C334.336 686.959 320.637 695.006 303.737 695.006C303.345 695.006 302.954 695.001 302.564 694.993C301.781 694.976 301.005 694.939 300.239 694.887C284.987 693.807 273.137 685.347 273.137 663.914C273.137 641.733 301.481 613.745 303.61 611.674L303.614 611.67C303.696 611.59 303.737 611.551 303.737 611.551C303.737 611.551 334.336 640.868 334.336 663.914Z" fill="#FAC710"/>
<path d="M302.622 691.48L313.813 675.842L302.594 693.197L302.564 694.993C301.781 694.976 301.005 694.939 300.239 694.887L301.445 671.83L301.436 671.651L301.456 671.617L301.57 669.44L290.322 652.041L301.605 667.807L301.632 668.269L302.543 650.848L292.914 632.87L302.661 647.791L303.61 611.674L303.613 611.551V611.67L303.455 640.15L313.042 628.86L303.416 642.604L303.162 658.201L312.113 643.232L303.125 660.496L302.983 669.168L315.978 648.333L302.935 672.193L302.622 691.48Z" fill="#3F3D56"/>
<path d="M807.214 754.766C807.214 754.766 792.691 766.996 785.048 766.231C777.405 765.467 762.882 765.467 768.997 773.875C775.112 782.282 800.335 786.869 811.036 787.633C821.737 788.397 845.431 789.162 843.903 784.575C842.374 779.989 840.845 758.588 834.731 757.059C828.616 755.53 807.214 754.766 807.214 754.766Z" fill="#575A89"/>
<path d="M890.566 742.759C890.566 742.759 879.864 758.442 872.297 759.76C864.729 761.078 850.741 764.981 858.89 771.436C867.04 777.891 892.568 775.529 903.08 773.389C913.593 771.25 936.621 765.618 933.916 761.611C931.211 757.605 923.987 737.401 917.686 737.572C911.386 737.743 890.566 742.759 890.566 742.759Z" fill="#575A89"/>
<path d="M798.707 518.475C798.707 518.475 788.87 585.845 791.163 598.075C793.456 610.304 794.984 629.413 794.984 629.413C794.984 629.413 793.456 645.464 794.984 653.108C796.513 660.751 805.685 733.364 805.685 734.893C805.685 736.422 804.157 741.008 805.685 744.829C807.214 748.651 810.271 745.594 805.685 751.709C801.099 757.823 804.157 759.352 804.921 759.352C805.685 759.352 835.495 762.409 837.024 759.352C838.552 756.295 836.259 755.53 837.024 751.709C837.788 747.887 838.552 747.123 840.081 746.358C841.61 745.594 844.667 747.122 842.374 743.301C840.081 739.479 834.731 734.893 836.259 732.6C837.788 730.307 835.495 713.491 835.495 713.491C835.495 713.491 833.966 676.038 833.202 653.108C832.437 630.177 840.081 606.483 840.081 606.483C841.033 625.244 848.001 643.201 859.954 657.694C879.827 681.389 889.764 725.721 889.764 725.721C889.764 725.721 894.35 732.6 892.057 738.715C889.764 744.829 882.884 741.008 889.764 744.829C896.643 748.651 920.337 743.301 922.63 741.008C924.924 738.715 919.573 735.657 921.102 729.542C922.63 723.428 928.745 724.956 923.395 721.899C918.044 718.842 916.516 719.606 916.516 716.549C916.516 713.491 902.757 646.993 881.356 627.884L879.827 558.329C879.827 558.329 898.936 509.41 879.063 504.824C859.19 500.238 798.707 518.475 798.707 518.475Z" fill="#2F2E41"/>
<path d="M812.564 337.432C812.564 337.432 825.558 369.535 822.501 374.121C819.444 378.707 859.954 358.834 859.954 358.834C859.954 358.834 846.96 326.731 846.96 322.91C846.96 319.088 812.564 337.432 812.564 337.432Z" fill="#A0616A"/>
<path d="M822.119 345.458C837.738 345.458 850.4 332.796 850.4 317.177C850.4 301.558 837.738 288.896 822.119 288.896C806.5 288.896 793.838 301.558 793.838 317.177C793.838 332.796 806.5 345.458 822.119 345.458Z" fill="#A0616A"/>
<path d="M859.954 345.84C859.954 345.84 840.081 343.547 830.144 355.777C820.208 368.006 818.679 371.064 818.679 371.064C818.679 371.064 794.985 409.281 799.571 428.39C800.688 430.115 801.709 431.901 802.628 433.74C804.157 436.797 804.157 479.601 802.628 486.48C801.099 493.359 799.571 495.652 801.099 505.589C802.628 515.525 788.87 531.576 804.921 534.634C820.972 537.691 833.202 535.398 838.552 528.519C843.903 521.64 839.317 517.054 856.132 517.054C872.948 517.054 883.649 505.589 883.649 505.589C883.649 505.589 875.241 496.416 878.298 494.888C881.356 493.359 878.298 489.537 876.77 485.716C875.241 481.894 875.241 478.836 877.534 478.836C879.827 478.836 878.298 477.308 876.77 473.486C875.241 469.664 903.522 403.93 886.706 384.822C869.891 365.713 861.483 355.012 861.483 355.012C861.483 355.012 864.54 343.547 859.954 345.84Z" fill="#FAC710"/>
<path d="M816.386 418.453V452.084L791.927 533.105C791.927 533.105 775.876 575.144 791.927 575.144C807.978 575.144 807.118 535.02 807.118 535.02L841.61 474.25C841.61 474.25 855.368 426.097 853.839 422.275C852.31 418.453 816.386 418.453 816.386 418.453Z" fill="#A0616A"/>
<path d="M829.38 368.771C829.38 368.771 806.45 377.943 812.565 402.402C818.679 426.861 812.565 426.097 812.565 426.097C812.565 426.097 843.903 423.039 853.839 429.918L856.132 420.746C856.132 420.746 865.305 368.006 829.38 368.771Z" fill="#FAC710"/>
<path d="M812.462 295.946C810.697 296.572 808.804 296.749 806.954 296.461C805.103 296.173 803.354 295.429 801.863 294.297C798.982 291.923 797.76 287.543 799.454 284.217C800.918 281.344 804.048 279.769 807.05 278.593C813.672 276.003 820.647 274.428 827.739 273.922C831.12 273.681 834.671 273.72 837.689 275.264C839.182 276.028 840.478 277.131 841.957 277.923C844.676 279.379 847.84 279.703 850.778 280.639C853.784 281.62 856.544 283.235 858.872 285.375C861.2 287.515 863.041 290.129 864.271 293.042C865.07 295.021 865.628 297.088 865.933 299.199C866.812 304.98 866.198 310.89 864.149 316.367C860.891 325.042 854.058 332.626 853.672 341.884C849.489 338.85 847.938 333.373 844.587 329.44C842.093 326.533 838.687 324.557 834.926 323.836C833.884 323.773 832.884 323.408 832.046 322.786C831.462 322.089 831.097 321.236 830.994 320.333L828.132 306.82C827.55 304.07 826.814 301.072 824.554 299.401C823.146 298.501 821.55 297.938 819.889 297.758C815.943 297.068 811.946 296.704 807.94 296.668" fill="#2F2E41"/>
</g>
<defs>
<clipPath id="clip0">
<rect width="1000" height="793.83" fill="white"/>
</clipPath>
</defs>
</svg>
