<svg width="347" height="217" viewBox="0 0 347 217" fill="none" xmlns="http://www.w3.org/2000/svg">
<g clip-path="url(#clip0)">
<path d="M311.441 42.2024H240.322V171.936H311.441V42.2024Z" fill="#E6E6E6"/>
<path d="M246.965 165.293H304.798V48.8454H246.965V165.293Z" fill="white"/>
<path d="M286.077 73.8208H269.187V75.3893H286.077V73.8208Z" fill="#E6E6E6"/>
<path d="M298.624 79.2467H269.187V80.8152H298.624V79.2467Z" fill="#E6E6E6"/>
<path d="M298.596 84.6726H269.187V86.2411H298.596V84.6726Z" fill="#E6E6E6"/>
<path d="M265.686 73.8441H253.138V86.392H265.686V73.8441Z" fill="#E6E6E6"/>
<path d="M286.077 100.783H269.187V102.352H286.077V100.783Z" fill="#E6E6E6"/>
<path d="M298.624 106.209H269.187V107.778H298.624V106.209Z" fill="#E6E6E6"/>
<path d="M298.596 111.635H269.187V113.204H298.596V111.635Z" fill="#E6E6E6"/>
<path d="M265.686 100.807H253.138V113.355H265.686V100.807Z" fill="#E6E6E6"/>
<path d="M286.077 127.746H269.187V129.315H286.077V127.746Z" fill="#E6E6E6"/>
<path d="M298.624 133.172H269.187V134.74H298.624V133.172Z" fill="#E6E6E6"/>
<path d="M298.596 138.598H269.187V140.166H298.596V138.598Z" fill="#E6E6E6"/>
<path d="M265.686 127.769H253.138V140.317H265.686V127.769Z" fill="#E6E6E6"/>
<path d="M112.933 42.2024H41.8145V171.936H112.933V42.2024Z" fill="#E6E6E6"/>
<path d="M48.4573 165.293H106.29V48.8454H48.4573V165.293Z" fill="white"/>
<path d="M87.569 73.8208H70.679V75.3893H87.569V73.8208Z" fill="#E6E6E6"/>
<path d="M100.117 79.2467H70.679V80.8152H100.117V79.2467Z" fill="#E6E6E6"/>
<path d="M100.088 84.6726H70.679V86.2411H100.088V84.6726Z" fill="#E6E6E6"/>
<path d="M67.1787 73.8441H54.6309V86.392H67.1787V73.8441Z" fill="#E6E6E6"/>
<path d="M87.569 100.783H70.679V102.352H87.569V100.783Z" fill="#E6E6E6"/>
<path d="M100.117 106.209H70.679V107.778H100.117V106.209Z" fill="#E6E6E6"/>
<path d="M100.088 111.635H70.679V113.204H100.088V111.635Z" fill="#E6E6E6"/>
<path d="M67.1787 100.807H54.6309V113.355H67.1787V100.807Z" fill="#E6E6E6"/>
<path d="M87.569 127.746H70.679V129.315H87.569V127.746Z" fill="#E6E6E6"/>
<path d="M100.117 133.172H70.679V134.74H100.117V133.172Z" fill="#E6E6E6"/>
<path d="M100.088 138.598H70.679V140.166H100.088V138.598Z" fill="#E6E6E6"/>
<path d="M67.1787 127.769H54.6309V140.317H67.1787V127.769Z" fill="#E6E6E6"/>
<path d="M173.5 182.486C269.321 182.486 347 179.337 347 175.453C347 171.568 269.321 168.419 173.5 168.419C77.6786 168.419 0 171.568 0 175.453C0 179.337 77.6786 182.486 173.5 182.486Z" fill="#E6E6E6"/>
<path d="M225.04 0H128.215V176.625H225.04V0Z" fill="#3F3D56"/>
<path d="M132.399 172.131H220.856V4.49377H132.399V172.131Z" fill="white"/>
<path d="M190.508 43.0468H167.513V45.1822H190.508V43.0468Z" fill="#FAC710"/>
<path d="M207.591 50.4338H167.513V52.5692H207.591V50.4338Z" fill="#E6E6E6"/>
<path d="M207.552 57.8209H167.513V59.9563H207.552V57.8209Z" fill="#E6E6E6"/>
<path d="M162.747 43.0785H145.664V60.1617H162.747V43.0785Z" fill="#FAC710"/>
<path d="M190.508 79.7549H167.513V81.8903H190.508V79.7549Z" fill="#FAC710"/>
<path d="M207.591 87.142H167.513V89.2774H207.591V87.142Z" fill="#E6E6E6"/>
<path d="M207.552 94.529H167.513V96.6644H207.552V94.529Z" fill="#E6E6E6"/>
<path d="M162.747 79.7867H145.664V96.8699H162.747V79.7867Z" fill="#FAC710"/>
<path d="M190.508 116.463H167.513V118.599H190.508V116.463Z" fill="#FAC710"/>
<path d="M207.591 123.85H167.513V125.986H207.591V123.85Z" fill="#E6E6E6"/>
<path d="M207.552 131.237H167.513V133.373H207.552V131.237Z" fill="#E6E6E6"/>
<path d="M162.747 116.495H145.664V133.578H162.747V116.495Z" fill="#FAC710"/>
<path d="M141.263 125.24L140.091 130.319C140.091 130.319 140.482 142.042 137.356 140.87C134.23 139.698 135.011 129.538 135.011 129.538L137.747 124.458L141.263 125.24Z" fill="#FFB8B8"/>
<path d="M123.875 69.5558C128.191 69.5558 131.69 66.0568 131.69 61.7406C131.69 57.4243 128.191 53.9253 123.875 53.9253C119.558 53.9253 116.059 57.4243 116.059 61.7406C116.059 66.0568 119.558 69.5558 123.875 69.5558Z" fill="#FFB8B8"/>
<path d="M117.818 63.8897L117.036 75.2219L126.805 76.3941C126.805 76.3941 126.805 67.0158 127.587 65.8435C128.368 64.6713 117.818 63.8897 117.818 63.8897Z" fill="#FFB8B8"/>
<path d="M139.505 78.5434L126.851 73.1847C126.851 73.1847 120.806 68.5205 117.261 71.9689L115.669 74.245C115.669 74.245 101.601 79.7156 101.601 84.014L107.072 105.506C107.072 105.506 103.946 117.62 108.635 118.401L134.034 120.746C134.034 120.746 137.551 116.447 134.425 110.977L135.597 98.0815L139.505 78.5434Z" fill="#575A89"/>
<path d="M130.908 78.9341L139.505 78.5433C139.505 78.5433 142.24 79.3249 144.194 86.7494C146.148 94.1739 146.539 106.288 146.539 106.288L141.85 128.17L135.988 127.389L138.333 106.288L134.425 92.22L130.908 78.9341Z" fill="#575A89"/>
<path d="M106.29 81.2787L102.052 82.5987C102.052 82.5987 98.4749 87.9217 98.4749 90.657C98.4749 93.3923 96.9119 114.103 96.9119 114.103L107.072 130.906L110.198 122.7L103.946 112.149L109.026 99.2538L106.29 81.2787Z" fill="#575A89"/>
<path d="M135.207 119.964L107.112 117.492C107.112 117.492 104.336 135.204 104.727 142.238C105.118 149.271 105.509 160.213 105.509 160.213L102.383 207.886L114.496 206.323L116.059 166.856L121.139 145.364L127.001 172.717L130.908 207.886L141.459 206.714L137.942 164.12C137.942 164.12 141.068 125.826 135.207 119.964Z" fill="#2F2E41"/>
<path d="M139.114 204.76L142.631 205.932C142.631 205.932 150.056 203.978 148.102 209.058C146.148 214.138 140.677 213.357 140.677 213.357C140.677 213.357 134.034 218.437 131.299 214.529L132.862 206.323L139.114 204.76Z" fill="#2F2E41"/>
<path d="M110.589 204.76L114.106 205.932C114.106 205.932 121.53 203.978 119.576 209.058C117.622 214.138 112.152 213.357 112.152 213.357C112.152 213.357 105.509 218.437 102.773 214.529L104.336 206.323L110.589 204.76Z" fill="#2F2E41"/>
<path d="M117.818 68.5789C117.818 68.5789 109.612 62.7174 113.91 55.6837C116.892 50.8041 123.071 51.1904 126.576 51.8846C127.521 52.0589 128.408 52.4602 129.163 53.054C129.918 53.6478 130.517 54.4162 130.908 55.2929C131.494 56.6606 131.494 58.0283 129.15 58.0283C124.461 58.0283 126.805 61.5452 126.805 61.5452C126.805 61.5452 123.679 62.3267 124.461 65.062C125.242 67.7974 117.818 68.5789 117.818 68.5789Z" fill="#2F2E41"/>
</g>
<defs>
<clipPath id="clip0">
<rect width="347" height="216.006" fill="white"/>
</clipPath>
</defs>
</svg>
