<svg width="1286" height="800" viewBox="0 0 1286 800" fill="none" xmlns="http://www.w3.org/2000/svg">
<g clip-path="url(#clip0)">
<path d="M1153.45 156.301H890.055V636.78H1153.45V156.301Z" fill="#E6E6E6"/>
<path d="M914.658 612.178H1128.85V180.904H914.658V612.178Z" fill="white"/>
<path d="M1059.51 273.402H996.958V279.212H1059.51V273.402Z" fill="#E6E6E6"/>
<path d="M1105.98 293.498H996.958V299.307H1105.98V293.498Z" fill="#E6E6E6"/>
<path d="M1105.88 313.593H996.958V319.402H1105.88V313.593Z" fill="#E6E6E6"/>
<path d="M983.994 273.489H937.522V319.961H983.994V273.489Z" fill="#E6E6E6"/>
<path d="M1059.51 373.261H996.958V379.07H1059.51V373.261Z" fill="#E6E6E6"/>
<path d="M1105.98 393.356H996.958V399.166H1105.98V393.356Z" fill="#E6E6E6"/>
<path d="M1105.88 413.452H996.958V419.261H1105.88V413.452Z" fill="#E6E6E6"/>
<path d="M983.994 373.347H937.522V419.82H983.994V373.347Z" fill="#E6E6E6"/>
<path d="M1059.51 473.12H996.958V478.929H1059.51V473.12Z" fill="#E6E6E6"/>
<path d="M1105.98 493.215H996.958V499.024H1105.98V493.215Z" fill="#E6E6E6"/>
<path d="M1105.88 513.311H996.958V519.12H1105.88V513.311Z" fill="#E6E6E6"/>
<path d="M983.994 473.206H937.522V519.678H983.994V473.206Z" fill="#E6E6E6"/>
<path d="M418.259 156.301H154.863V636.78H418.259V156.301Z" fill="#E6E6E6"/>
<path d="M179.466 612.178H393.656V180.904H179.466V612.178Z" fill="white"/>
<path d="M324.32 273.402H261.766V279.212H324.32V273.402Z" fill="#E6E6E6"/>
<path d="M370.792 293.498H261.766V299.307H370.792V293.498Z" fill="#E6E6E6"/>
<path d="M370.685 313.593H261.766V319.402H370.685V313.593Z" fill="#E6E6E6"/>
<path d="M248.802 273.489H202.33V319.961H248.802V273.489Z" fill="#E6E6E6"/>
<path d="M324.32 373.261H261.766V379.07H324.32V373.261Z" fill="#E6E6E6"/>
<path d="M370.792 393.356H261.766V399.166H370.792V393.356Z" fill="#E6E6E6"/>
<path d="M370.685 413.452H261.766V419.261H370.685V413.452Z" fill="#E6E6E6"/>
<path d="M248.802 373.347H202.33V419.82H248.802V373.347Z" fill="#E6E6E6"/>
<path d="M324.32 473.12H261.766V478.929H324.32V473.12Z" fill="#E6E6E6"/>
<path d="M370.792 493.215H261.766V499.024H370.792V493.215Z" fill="#E6E6E6"/>
<path d="M370.685 513.311H261.766V519.12H370.685V513.311Z" fill="#E6E6E6"/>
<path d="M248.802 473.206H202.33V519.678H248.802V473.206Z" fill="#E6E6E6"/>
<path d="M642.574 675.855C997.458 675.855 1285.15 664.192 1285.15 649.805C1285.15 635.418 997.458 623.755 642.574 623.755C287.69 623.755 0 635.418 0 649.805C0 664.192 287.69 675.855 642.574 675.855Z" fill="#E6E6E6"/>
<path d="M833.456 0H474.858V654.147H833.456V0Z" fill="#3F3D56"/>
<path d="M490.354 637.504H817.96V16.6431H490.354V637.504Z" fill="white"/>
<path d="M705.564 159.428H620.4V167.336H705.564V159.428Z" fill="#FAC710"/>
<path d="M768.833 186.786H620.4V194.695H768.833V186.786Z" fill="#E6E6E6"/>
<path d="M768.688 214.145H620.4V222.054H768.688V214.145Z" fill="#E6E6E6"/>
<path d="M602.75 159.545H539.481V222.815H602.75V159.545Z" fill="#FAC710"/>
<path d="M705.564 295.38H620.4V303.289H705.564V295.38Z" fill="#FAC710"/>
<path d="M768.833 322.739H620.4V330.647H768.833V322.739Z" fill="#E6E6E6"/>
<path d="M768.688 350.097H620.4V358.006H768.688V350.097Z" fill="#E6E6E6"/>
<path d="M602.75 295.497H539.481V358.767H602.75V295.497Z" fill="#FAC710"/>
<path d="M705.564 431.332H620.4V439.241H705.564V431.332Z" fill="#FAC710"/>
<path d="M768.833 458.691H620.4V466.6H768.833V458.691Z" fill="#E6E6E6"/>
<path d="M768.688 486.05H620.4V493.958H768.688V486.05Z" fill="#E6E6E6"/>
<path d="M602.75 431.45H539.481V494.719H602.75V431.45Z" fill="#FAC710"/>
<path d="M523.183 463.837L518.841 482.651C518.841 482.651 520.288 526.067 508.711 521.726C497.133 517.384 500.027 479.756 500.027 479.756L510.158 460.942L523.183 463.837Z" fill="#FFB8B8"/>
<path d="M458.781 257.607C474.767 257.607 487.726 244.648 487.726 228.662C487.726 212.676 474.767 199.717 458.781 199.717C442.796 199.717 429.837 212.676 429.837 228.662C429.837 244.648 442.796 257.607 458.781 257.607Z" fill="#FFB8B8"/>
<path d="M436.349 236.622L433.455 278.591L469.636 282.933C469.636 282.933 469.636 248.2 472.53 243.858C475.424 239.516 436.349 236.622 436.349 236.622Z" fill="#FFB8B8"/>
<path d="M516.67 290.893L469.805 271.046C469.805 271.046 447.418 253.772 434.286 266.544L428.39 274.973C428.39 274.973 376.289 295.234 376.289 311.154L396.551 390.752C396.551 390.752 384.973 435.616 402.339 438.51L496.409 447.193C496.409 447.193 509.434 431.274 497.856 411.013L502.198 363.254L516.67 290.893Z" fill="#575A89"/>
<path d="M484.831 292.34L516.67 290.893C516.67 290.893 526.801 293.787 534.037 321.285C541.273 348.782 542.72 393.646 542.72 393.646L525.354 474.691L503.645 471.796L512.329 393.646L497.856 341.546L484.831 292.34Z" fill="#575A89"/>
<path d="M393.656 301.023L377.959 305.912C377.959 305.912 364.712 325.626 364.712 335.757C364.712 345.887 358.923 422.591 358.923 422.591L396.55 484.821L408.128 454.43L384.973 415.354L403.787 367.596L393.656 301.023Z" fill="#575A89"/>
<path d="M500.751 444.299L396.7 435.144C396.7 435.144 386.42 500.741 387.867 526.791C389.314 552.841 390.761 593.364 390.761 593.364L379.184 769.925L424.048 764.136L429.837 617.966L448.651 538.369L470.359 639.675L484.831 769.925L523.906 765.584L510.881 607.836C510.881 607.836 522.459 466.007 500.751 444.299Z" fill="#2F2E41"/>
<path d="M515.223 758.347L528.248 762.689C528.248 762.689 555.746 755.453 548.509 774.267C541.273 793.081 521.012 790.187 521.012 790.187C521.012 790.187 496.409 809.001 486.279 794.528L492.067 764.136L515.223 758.347Z" fill="#2F2E41"/>
<path d="M409.575 758.347L422.6 762.689C422.6 762.689 450.098 755.453 442.862 774.267C435.625 793.081 415.364 790.187 415.364 790.187C415.364 790.187 390.761 809.001 380.631 794.528L386.42 764.136L409.575 758.347Z" fill="#2F2E41"/>
<path d="M436.349 253.988C436.349 253.988 405.957 232.28 421.877 206.23C432.921 188.158 455.806 189.588 468.787 192.16C472.285 192.805 475.573 194.292 478.368 196.491C481.163 198.69 483.381 201.535 484.831 204.783C487.002 209.848 487.002 214.913 478.319 214.913C460.952 214.913 469.635 227.938 469.635 227.938C469.635 227.938 458.058 230.833 460.952 240.963C463.846 251.094 436.349 253.988 436.349 253.988Z" fill="#2F2E41"/>
</g>
<defs>
<clipPath id="clip0">
<rect width="1285.15" height="800" fill="white"/>
</clipPath>
</defs>
</svg>
