<svg width="870" height="800" viewBox="0 0 870 800" fill="none" xmlns="http://www.w3.org/2000/svg">
<g clip-path="url(#clip0)">
<path d="M616.234 733.672H219.653C210.234 733.662 201.205 729.915 194.546 723.254C187.888 716.593 184.144 707.562 184.137 698.143V545.701C183.316 546.637 182.456 547.561 181.571 548.459V698.143C181.58 708.241 185.595 717.924 192.734 725.065C199.874 732.207 209.555 736.225 219.653 736.238H617.35C616.964 735.391 616.593 734.532 616.234 733.672ZM184.137 170.207C184.144 160.788 187.888 151.757 194.546 145.096C201.205 138.435 210.234 134.688 219.653 134.678H351.791C351.547 133.818 351.316 132.972 351.098 132.112H219.653C209.555 132.125 199.874 136.143 192.734 143.285C185.595 150.426 181.58 160.109 181.571 170.207V403.905C182.456 404.802 183.303 405.726 184.137 406.662V170.207ZM716.639 200.169L633.78 134.537C631.802 132.968 629.353 132.114 626.829 132.112H553.089C552.884 132.972 552.653 133.831 552.41 134.678H626.829C628.773 134.682 630.66 135.337 632.19 136.537L715.049 202.183C715.835 202.803 716.471 203.595 716.906 204.497C717.342 205.399 717.566 206.389 717.562 207.391V589.401C718.422 589.426 719.282 589.49 720.128 589.554V207.391C720.133 206.001 719.821 204.629 719.217 203.378C718.612 202.126 717.731 201.029 716.639 200.169Z" fill="#3F3D56"/>
<path d="M715.544 203.558H648.686C646.269 203.558 643.876 203.082 641.643 202.157C639.41 201.232 637.381 199.876 635.672 198.168C633.964 196.459 632.608 194.43 631.683 192.197C630.758 189.964 630.282 187.571 630.282 185.154V135.774C630.282 135.557 630.343 135.346 630.458 135.162C630.573 134.979 630.737 134.832 630.932 134.738C631.126 134.644 631.344 134.607 631.559 134.63C631.773 134.654 631.977 134.738 632.147 134.872L716.258 201.506C716.446 201.654 716.582 201.857 716.649 202.087C716.715 202.316 716.709 202.56 716.631 202.786C716.552 203.011 716.405 203.207 716.211 203.345C716.016 203.483 715.783 203.558 715.544 203.558Z" fill="#E6E6E6"/>
<path d="M715.544 204.84H648.686C643.466 204.834 638.463 202.759 634.772 199.068C631.081 195.377 629.005 190.374 629 185.154V135.774C629 135.316 629.128 134.868 629.371 134.481C629.614 134.094 629.961 133.783 630.373 133.583C630.785 133.384 631.244 133.305 631.699 133.355C632.153 133.405 632.584 133.582 632.943 133.866L717.055 200.501C717.451 200.814 717.739 201.244 717.88 201.729C718.022 202.214 718.008 202.731 717.842 203.208C717.676 203.685 717.365 204.098 716.954 204.391C716.542 204.683 716.049 204.841 715.544 204.84V204.84ZM631.565 136.047V185.154C631.57 189.693 633.375 194.045 636.585 197.255C639.795 200.465 644.147 202.27 648.686 202.275H715.164L631.565 136.047Z" fill="#3F3D56"/>
<path d="M582.827 288.673H386.141C383.7 288.673 381.36 287.704 379.634 285.978C377.909 284.253 376.939 281.912 376.939 279.472C376.939 277.031 377.909 274.691 379.634 272.965C381.36 271.239 383.7 270.27 386.141 270.27H582.827C585.267 270.27 587.608 271.239 589.334 272.965C591.059 274.691 592.029 277.031 592.029 279.472C592.029 281.912 591.059 284.253 589.334 285.978C587.608 287.704 585.267 288.673 582.827 288.673Z" fill="#CCCCCC"/>
<path d="M620.784 319.729H386.141C383.7 319.729 381.36 318.76 379.634 317.034C377.909 315.308 376.939 312.968 376.939 310.527C376.939 308.087 377.909 305.746 379.634 304.021C381.36 302.295 383.7 301.326 386.141 301.326H620.784C623.224 301.326 625.565 302.295 627.29 304.021C629.016 305.746 629.986 308.087 629.986 310.527C629.986 312.968 629.016 315.308 627.29 317.034C625.565 318.76 623.224 319.729 620.784 319.729H620.784Z" fill="#CCCCCC"/>
<path d="M582.827 427.849H386.141C383.7 427.849 381.36 426.879 379.634 425.154C377.909 423.428 376.939 421.088 376.939 418.647C376.939 416.207 377.909 413.866 379.634 412.141C381.36 410.415 383.7 409.445 386.141 409.445H582.827C585.267 409.445 587.608 410.415 589.334 412.141C591.059 413.866 592.029 416.207 592.029 418.647C592.029 421.088 591.059 423.428 589.334 425.154C587.608 426.879 585.267 427.849 582.827 427.849Z" fill="#CCCCCC"/>
<path d="M620.784 458.905H386.141C383.7 458.905 381.36 457.935 379.634 456.209C377.909 454.484 376.939 452.143 376.939 449.703C376.939 447.262 377.909 444.922 379.634 443.196C381.36 441.471 383.7 440.501 386.141 440.501H620.784C623.224 440.501 625.565 441.471 627.29 443.196C629.016 444.922 629.986 447.262 629.986 449.703C629.986 452.143 629.016 454.484 627.29 456.209C625.565 457.935 623.224 458.905 620.784 458.905H620.784Z" fill="#CCCCCC"/>
<path d="M582.827 567.024H386.141C384.933 567.024 383.736 566.786 382.62 566.324C381.503 565.862 380.489 565.184 379.634 564.329C378.78 563.475 378.102 562.461 377.64 561.344C377.177 560.228 376.939 559.031 376.939 557.823C376.939 556.614 377.177 555.418 377.64 554.301C378.102 553.185 378.78 552.171 379.634 551.316C380.489 550.462 381.503 549.784 382.62 549.322C383.736 548.859 384.933 548.621 386.141 548.621H582.827C585.267 548.621 587.608 549.591 589.334 551.316C591.059 553.042 592.029 555.382 592.029 557.823C592.029 560.263 591.059 562.604 589.334 564.329C587.608 566.055 585.267 567.024 582.827 567.024V567.024Z" fill="#CCCCCC"/>
<path d="M620.784 598.08H386.141C384.933 598.08 383.736 597.842 382.62 597.38C381.503 596.917 380.489 596.239 379.634 595.385C378.78 594.531 378.102 593.516 377.64 592.4C377.177 591.283 376.939 590.087 376.939 588.878C376.939 587.67 377.177 586.474 377.64 585.357C378.102 584.241 378.78 583.226 379.634 582.372C380.489 581.517 381.503 580.84 382.62 580.377C383.736 579.915 384.933 579.677 386.141 579.677H620.784C621.992 579.677 623.189 579.915 624.305 580.377C625.422 580.84 626.436 581.517 627.29 582.372C628.145 583.226 628.823 584.241 629.285 585.357C629.748 586.474 629.986 587.67 629.986 588.878C629.986 590.087 629.748 591.283 629.285 592.4C628.823 593.516 628.145 594.531 627.29 595.385C626.436 596.239 625.422 596.917 624.305 597.38C623.189 597.842 621.992 598.08 620.784 598.08H620.784Z" fill="#CCCCCC"/>
<path d="M304.236 327.522C322.198 327.522 336.759 312.961 336.759 295C336.759 277.038 322.198 262.477 304.236 262.477C286.274 262.477 271.713 277.038 271.713 295C271.713 312.961 286.274 327.522 304.236 327.522Z" fill="#A2E5F2"/>
<path d="M301.013 307.406C300.282 307.407 299.569 307.171 298.984 306.732L298.948 306.704L291.304 300.858C290.95 300.586 290.652 300.248 290.428 299.862C290.204 299.475 290.059 299.049 290 298.606C289.941 298.163 289.97 297.714 290.085 297.282C290.2 296.851 290.4 296.446 290.671 296.092C290.943 295.738 291.282 295.44 291.668 295.217C292.055 294.994 292.482 294.849 292.925 294.791C293.367 294.733 293.817 294.763 294.248 294.878C294.68 294.994 295.084 295.194 295.438 295.466L300.388 299.263L312.087 284C312.358 283.646 312.697 283.35 313.083 283.126C313.469 282.903 313.895 282.758 314.337 282.7C314.779 282.642 315.228 282.671 315.659 282.786C316.09 282.901 316.493 283.1 316.847 283.372L316.848 283.372L316.776 283.473L316.85 283.372C317.564 283.921 318.031 284.73 318.149 285.623C318.267 286.516 318.026 287.418 317.478 288.133L303.718 306.077C303.4 306.491 302.99 306.825 302.522 307.055C302.053 307.285 301.538 307.404 301.016 307.402L301.013 307.406Z" fill="white"/>
<path d="M304.236 466.698C322.198 466.698 336.759 452.137 336.759 434.175C336.759 416.213 322.198 401.652 304.236 401.652C286.274 401.652 271.713 416.213 271.713 434.175C271.713 452.137 286.274 466.698 304.236 466.698Z" fill="#E6E6E6"/>
<path d="M301.013 446.581C300.281 446.583 299.569 446.346 298.984 445.907L298.947 445.88L291.304 440.033C290.589 439.485 290.121 438.675 290.003 437.782C289.885 436.889 290.127 435.986 290.675 435.271C291.223 434.556 292.033 434.088 292.926 433.97C293.819 433.852 294.722 434.094 295.437 434.642L300.388 438.438L312.087 423.176C312.358 422.822 312.697 422.525 313.083 422.302C313.469 422.079 313.895 421.934 314.337 421.875C314.779 421.817 315.228 421.846 315.659 421.962C316.089 422.077 316.493 422.276 316.847 422.547L316.848 422.548L316.776 422.648L316.85 422.548C317.564 423.096 318.031 423.906 318.149 424.798C318.266 425.691 318.025 426.594 317.478 427.309L303.718 445.253C303.399 445.666 302.99 446.001 302.522 446.231C302.053 446.46 301.538 446.579 301.016 446.577L301.013 446.581Z" fill="white"/>
<path d="M304.236 605.873C322.198 605.873 336.759 591.312 336.759 573.35C336.759 555.389 322.198 540.828 304.236 540.828C286.274 540.828 271.713 555.389 271.713 573.35C271.713 591.312 286.274 605.873 304.236 605.873Z" fill="#E6E6E6"/>
<path d="M301.013 585.757C300.282 585.758 299.569 585.522 298.984 585.083L298.948 585.055L291.304 579.209C290.95 578.937 290.652 578.599 290.428 578.213C290.204 577.826 290.059 577.4 290 576.957C289.941 576.514 289.97 576.065 290.085 575.633C290.2 575.202 290.4 574.797 290.671 574.443C290.943 574.089 291.282 573.791 291.668 573.568C292.055 573.345 292.482 573.2 292.925 573.142C293.367 573.084 293.817 573.113 294.248 573.229C294.68 573.345 295.084 573.545 295.438 573.817L300.388 577.614L312.087 562.351C312.358 561.997 312.697 561.7 313.083 561.477C313.469 561.254 313.895 561.109 314.337 561.051C314.779 560.993 315.228 561.022 315.659 561.137C316.09 561.252 316.493 561.451 316.847 561.722L316.848 561.723L316.776 561.824L316.85 561.723C317.564 562.272 318.031 563.081 318.149 563.974C318.267 564.867 318.026 565.769 317.478 566.484L303.718 584.428C303.4 584.842 302.99 585.176 302.522 585.406C302.053 585.636 301.538 585.754 301.016 585.753L301.013 585.757Z" fill="white"/>
<path d="M761.501 787.96C759.666 788.919 757.799 789.826 755.901 790.683C754.172 791.464 752.416 792.198 750.633 792.885C749.981 793.133 749.319 793.382 748.656 793.631C743.414 795.532 738.03 797.016 732.554 798.07C729.843 798.603 727.096 799.021 724.314 799.325C722.017 799.586 719.697 799.771 717.353 799.882C715.683 799.965 714.014 800 712.332 800C705.675 800.003 699.031 799.381 692.49 798.141C690.785 797.834 689.116 797.467 687.446 797.064C679.371 795.129 671.554 792.244 664.158 788.469C663.495 788.137 662.832 787.782 662.169 787.439C661.187 786.918 660.228 786.373 659.269 785.805C659.73 785.166 660.228 784.538 660.737 783.922C666.277 777.057 673.201 771.436 681.059 767.426C688.917 763.416 697.531 761.106 706.341 760.648C715.151 760.19 723.959 761.594 732.19 764.768C740.421 767.941 747.891 772.814 754.113 779.068C756.273 781.235 758.275 783.554 760.104 786.006C760.589 786.645 761.051 787.297 761.501 787.96Z" fill="#A2E5F2"/>
<path d="M714.695 735.953C743.407 735.953 766.682 712.678 766.682 683.967C766.682 655.256 743.407 631.981 714.695 631.981C685.984 631.981 662.709 655.256 662.709 683.967C662.709 712.678 685.984 735.953 714.695 735.953Z" fill="#2F2E41"/>
<path d="M728.522 736.026C747.272 725.776 754.163 702.267 743.914 683.517C733.664 664.767 710.155 657.876 691.404 668.125C672.654 678.375 665.763 701.884 676.013 720.635C686.263 739.385 709.772 746.276 728.522 736.026Z" fill="#A0616A"/>
<path d="M750.619 677.739C741.778 683.833 731.283 687.076 720.545 687.033C724.376 689.689 728.736 691.483 733.327 692.292C719.05 695.354 704.294 695.437 689.983 692.535C686.802 692.025 683.733 690.971 680.91 689.419C679.503 688.633 678.277 687.56 677.312 686.27C676.347 684.979 675.665 683.5 675.309 681.928C674.358 676.496 678.591 671.56 682.99 668.234C689.726 663.219 697.492 659.764 705.726 658.118C713.961 656.473 722.458 656.678 730.604 658.719C735.923 660.094 741.251 662.417 744.706 666.688C748.16 670.96 749.184 677.545 745.892 681.943L750.619 677.739Z" fill="#2F2E41"/>
<path d="M720.128 587.169C719.282 587.105 718.422 587.054 717.562 587.015C715.831 586.925 714.086 586.887 712.329 586.887C694.856 586.887 677.652 591.185 662.231 599.4C646.81 607.616 633.647 619.498 623.9 633.999C614.152 648.501 608.121 665.177 606.337 682.558C604.553 699.94 607.07 717.493 613.668 733.673C614.015 734.532 614.374 735.391 614.759 736.238C623.573 756.206 638.267 773.012 656.88 784.414L657.561 784.812C658.137 785.158 658.702 785.491 659.267 785.799C660.229 786.376 661.191 786.915 662.165 787.441C662.832 787.787 663.499 788.134 664.153 788.467C671.55 792.244 679.369 795.128 687.446 797.061C689.113 797.471 690.781 797.83 692.487 798.138C699.028 799.377 705.671 800 712.329 799.998C714.009 799.998 715.677 799.96 717.358 799.883C719.692 799.78 722.013 799.588 724.309 799.331C727.093 799.023 729.842 798.604 732.556 798.074C738.03 797.017 743.412 795.533 748.654 793.636C749.321 793.38 749.988 793.136 750.629 792.879C752.425 792.2 754.169 791.468 755.901 790.686C757.799 789.827 759.667 788.916 761.506 787.954C779.934 778.298 795.167 763.506 805.36 745.37C805.406 745.274 805.457 745.179 805.513 745.088C814.192 729.448 818.792 711.874 818.89 693.987C818.987 676.1 814.579 658.477 806.072 642.743C797.564 627.009 785.232 613.67 770.212 603.957C755.191 594.245 737.967 588.471 720.128 587.169L720.128 587.169ZM814.684 712.996C812.625 723.755 808.871 734.12 803.564 743.703C803.474 743.87 803.384 744.036 803.295 744.19C793.311 762.062 778.292 776.603 760.107 786.004C758.286 786.954 756.443 787.843 754.579 788.672C753.027 789.365 751.437 790.032 749.834 790.648C749.167 790.904 748.474 791.174 747.794 791.404C743.264 793.058 738.622 794.387 733.903 795.381C730.405 796.128 726.868 796.685 723.309 797.048C721.115 797.292 718.896 797.458 716.652 797.535C715.215 797.6 713.779 797.638 712.329 797.638C705.887 797.641 699.458 797.039 693.128 795.842C689.275 795.136 685.468 794.202 681.725 793.046C676.023 791.289 670.483 789.045 665.166 786.338C664.55 786.017 663.935 785.697 663.332 785.363C662.46 784.901 661.588 784.427 660.741 783.927C660.1 783.567 659.459 783.183 658.83 782.811C658.458 782.593 658.099 782.375 657.727 782.144C640.008 771.191 625.952 755.21 617.349 736.238C616.964 735.391 616.593 734.532 616.233 733.673C609.605 717.838 606.992 700.612 608.626 683.524C610.26 666.437 616.092 650.018 625.601 635.727C635.11 621.437 648.003 609.717 663.134 601.61C678.264 593.503 695.164 589.261 712.329 589.26C714.086 589.26 715.831 589.298 717.562 589.401C718.422 589.426 719.281 589.491 720.128 589.555C734.763 590.664 749 594.851 761.907 601.841C774.813 608.831 786.098 618.468 795.024 630.12C803.95 641.772 810.315 655.178 813.702 669.459C817.09 683.741 817.425 698.577 814.684 712.996L814.684 712.996Z" fill="#3F3D56"/>
<path d="M688.369 632.698C687.81 626.817 680.604 623.196 674.97 624.972C669.335 626.749 665.635 632.423 664.517 638.224C663.979 640.667 663.929 643.193 664.368 645.656C664.808 648.118 665.73 650.47 667.081 652.576C669.929 656.675 675.163 659.233 680.045 658.193C685.618 657.005 689.478 651.563 690.583 645.973C691.688 640.383 690.591 634.62 689.496 629.029L688.369 632.698Z" fill="#2F2E41"/>
<path d="M767.671 641.101C767.112 635.219 759.907 631.598 754.272 633.375C748.637 635.151 744.938 640.825 743.819 646.626C743.281 649.07 743.231 651.595 743.671 654.058C744.111 656.521 745.032 658.873 746.383 660.978C749.231 665.078 754.465 667.636 759.347 666.595C764.92 665.407 768.781 659.966 769.886 654.376C770.99 648.786 769.893 643.023 768.798 637.431L767.671 641.101Z" fill="#2F2E41"/>
<path d="M508.928 195.277C492.434 205.839 473.324 211.598 453.741 211.91C434.157 212.221 414.874 207.073 398.052 197.041C401.012 191.533 404.761 186.487 409.182 182.065C416.002 175.211 424.303 170.013 433.447 166.868C442.59 163.724 452.333 162.717 461.926 163.925C471.52 165.134 480.708 168.525 488.786 173.839C496.864 179.153 503.617 186.248 508.525 194.579C508.655 194.804 508.797 195.04 508.928 195.277Z" fill="#A2E5F2"/>
<path d="M448.861 138.661C477.763 138.661 501.192 115.232 501.192 86.3298C501.192 57.4279 477.763 33.9983 448.861 33.9983C419.959 33.9983 396.529 57.4279 396.529 86.3298C396.529 115.232 419.959 138.661 448.861 138.661Z" fill="#2F2E41"/>
<path d="M482.67 123.241C492.988 104.367 486.051 80.7012 467.176 70.3833C448.301 60.0653 424.636 67.0021 414.318 85.8769C404 104.752 410.937 128.417 429.811 138.735C448.686 149.053 472.352 142.116 482.67 123.241Z" fill="#FFB8B8"/>
<path d="M412.698 80.0604C421.599 86.1949 432.163 89.4596 442.972 89.4164C439.116 92.0901 434.727 93.896 430.106 94.7099C444.478 97.7928 459.332 97.8763 473.737 94.9551C476.94 94.4416 480.029 93.3804 482.871 91.818C484.287 91.0271 485.521 89.947 486.493 88.6479C487.464 87.3489 488.151 85.86 488.509 84.278C489.466 78.8093 485.205 73.8409 480.777 70.4924C473.997 65.444 466.179 61.9657 457.89 60.3093C449.6 58.6528 441.046 58.8596 432.847 60.9147C427.493 62.2987 422.129 64.6369 418.651 68.9367C415.174 73.2365 414.144 79.8653 417.457 84.2929L412.698 80.0604Z" fill="#2F2E41"/>
<path d="M452.068 0C423.818 0.0314104 396.734 11.2668 376.756 31.2415C356.779 51.2161 345.541 78.2991 345.506 106.549C345.51 115.167 346.57 123.752 348.661 132.112C348.879 132.972 349.097 133.831 349.328 134.678C355.475 157.213 368.863 177.101 387.43 191.275C405.996 205.449 428.71 213.122 452.068 213.111C475.431 213.111 498.147 205.434 516.721 191.263C535.296 177.092 548.7 157.211 554.872 134.678C555.103 133.818 555.321 132.972 555.526 132.112C559.39 116.416 559.635 100.047 556.242 84.2424C552.848 68.4378 545.906 53.6116 535.94 40.8848C525.974 28.1581 513.244 17.864 498.714 10.7809C484.183 3.69787 468.233 0.0113085 452.068 0V0ZM553.089 132.112C552.883 132.972 552.653 133.831 552.409 134.678C548.082 150.09 540.262 164.299 529.558 176.202C518.853 188.105 505.551 197.383 490.682 203.316C475.813 209.248 459.778 211.677 443.819 210.413C427.861 209.149 412.408 204.226 398.659 196.026C375.808 182.276 359.05 160.34 351.791 134.678C351.547 133.818 351.316 132.972 351.098 132.112C348.961 123.759 347.879 115.171 347.879 106.549C347.896 91.7904 351.048 77.2035 357.127 63.7547C363.206 50.3059 372.073 38.3022 383.141 28.5386C394.208 18.7751 407.224 11.4745 421.326 7.1204C435.428 2.76634 450.294 1.45821 464.94 3.28263C479.586 5.10704 493.677 10.0224 506.279 17.7031C518.882 25.3837 529.709 35.6545 538.044 47.835C546.378 60.0155 552.029 73.8277 554.623 88.3569C557.216 102.886 556.694 117.8 553.089 132.112H553.089Z" fill="#3F3D56"/>
<path d="M163.422 564.851C146.929 575.413 127.82 581.173 108.238 581.486C88.6549 581.799 69.372 576.651 52.5503 566.621C52.7294 566.274 52.9217 565.928 53.1271 565.595C58.523 555.868 66.3866 547.735 75.9259 542.015C85.4652 536.295 96.3435 533.189 107.465 533.011C118.587 532.833 129.559 535.588 139.276 541C148.994 546.412 157.114 554.289 162.819 563.837C162.896 563.94 162.96 564.056 163.024 564.158C163.153 564.376 163.294 564.62 163.422 564.851Z" fill="#A2E5F2"/>
<path d="M155.687 455.903C155.687 466.253 152.618 476.371 146.868 484.977C141.117 493.583 132.944 500.29 123.382 504.251C113.82 508.212 103.297 509.248 93.146 507.229C82.9947 505.21 73.6701 500.226 66.3515 492.907C59.0328 485.588 54.0487 476.263 52.0295 466.112C50.0103 455.961 51.0466 445.439 55.0075 435.876C58.9683 426.314 65.6758 418.141 74.2817 412.391C82.8876 406.64 93.0054 403.571 103.356 403.571C110.237 403.538 117.057 404.869 123.421 407.488C129.785 410.106 135.567 413.959 140.433 418.825C145.299 423.692 149.153 429.474 151.771 435.838C154.389 442.202 155.72 449.022 155.687 455.903V455.903Z" fill="#2F2E41"/>
<path d="M144.361 488.418C143.762 489.925 143.073 491.394 142.296 492.817C137.341 501.881 128.989 508.605 119.076 511.511C109.164 514.416 98.5028 513.266 89.4386 508.312C84.9468 505.86 80.982 502.548 77.7709 498.564C74.5598 494.58 72.1652 490.002 70.724 485.092C69.2829 480.182 68.8234 475.036 69.3718 469.948C69.9202 464.861 71.4658 459.931 73.9202 455.441C76.3746 450.951 79.6897 446.988 83.6762 443.78C87.6626 440.572 92.2421 438.18 97.1531 436.743C102.064 435.305 107.21 434.849 112.298 435.401C117.385 435.953 122.313 437.502 126.802 439.96C135.128 444.513 141.507 451.948 144.74 460.87C147.973 469.792 147.838 479.588 144.361 488.418V488.418Z" fill="#A0616A"/>
<path d="M184.136 403.186C183.315 402.289 182.456 401.404 181.571 400.544C167.319 386.42 149.366 376.609 129.781 372.243C110.196 367.877 89.7761 369.132 70.8738 375.866C51.9715 382.599 35.3561 394.535 22.9418 410.3C10.5276 426.064 2.81976 445.015 0.706385 464.969C-1.40699 484.923 2.16009 505.068 10.9967 523.084C19.8332 541.099 33.5797 556.251 50.6522 566.794C67.7248 577.337 87.4286 582.843 107.494 582.676C127.559 582.509 147.168 576.677 164.063 565.851C170.373 561.802 176.241 557.104 181.571 551.832C182.443 550.973 183.303 550.1 184.136 549.203C202.747 529.449 213.111 503.334 213.111 476.194C213.111 449.055 202.747 422.94 184.136 403.186V403.186ZM181.571 548.459C175.938 554.295 169.645 559.456 162.819 563.837C162.806 563.85 162.793 563.85 162.78 563.863C146.471 574.305 127.577 579.998 108.214 580.306C88.8516 580.614 69.7856 575.525 53.1526 565.608C53.1401 565.608 53.1401 565.595 53.1269 565.595C40.3701 557.988 29.3874 547.74 20.9155 535.541C12.4435 523.341 6.67815 509.471 4.00608 494.86C1.33401 480.25 1.817 465.237 5.42267 450.828C9.02834 436.42 15.6733 422.949 24.9119 411.319C34.1505 399.689 45.7692 390.169 58.9886 383.398C72.208 376.626 86.7226 372.76 101.559 372.058C116.395 371.355 131.21 373.834 145.01 379.326C158.81 384.819 171.275 393.199 181.571 403.905C182.456 404.802 183.303 405.726 184.136 406.662C201.265 425.767 210.738 450.523 210.738 476.182C210.738 501.841 201.265 526.596 184.136 545.701C183.315 546.637 182.456 547.561 181.571 548.459Z" fill="#3F3D56"/>
<path d="M145.769 412.444C143.191 408.068 139.454 404.49 134.97 402.104C130.486 399.718 125.431 398.618 120.361 398.925C115.04 399.324 109.977 401.284 105.006 403.224L79.732 413.083C73.192 415.634 66.0294 418.759 63.1915 425.179C60.5575 431.139 62.5226 438.021 64.5119 444.225L73.9679 473.717C75.2636 467.092 76.5797 460.402 79.3264 454.235C82.0731 448.069 86.4173 442.383 92.4235 439.302C98.9884 435.934 106.726 436.004 114.096 436.359C124.534 436.861 135.882 438.189 143.298 445.551C147.235 449.732 149.904 454.945 150.995 460.583C152.069 466.191 152.609 471.888 152.609 477.598C156.889 470.24 160.495 462.511 163.381 454.503C165.756 448.541 167.109 442.221 167.384 435.809C167.44 429.406 165.627 422.8 161.357 418.028C157.088 413.256 150.13 410.679 144.012 412.568" fill="#2F2E41"/>
<path d="M66.0723 271.719L63.5073 271.689C63.5379 269.124 63.6118 266.52 63.727 263.952L66.2897 264.067C66.1758 266.607 66.1027 269.182 66.0723 271.719Z" fill="#E6E6E6"/>
<path d="M67.4165 249.419L64.8662 249.14C65.4018 244.237 66.1033 239.292 66.9511 234.443L69.4782 234.885C68.6396 239.68 67.946 244.57 67.4165 249.419ZM72.4728 220.513L69.9796 219.91C71.1406 215.119 72.4738 210.305 73.9423 205.601L76.3911 206.365C74.939 211.017 73.6207 215.777 72.4728 220.513ZM81.2237 192.486L78.8297 191.564C80.6013 186.962 82.5478 182.357 84.6149 177.876L86.9442 178.951C84.9002 183.381 82.9756 187.935 81.2237 192.486V192.486ZM93.5268 165.816L91.2719 164.593C93.6205 160.262 96.1432 155.947 98.7699 151.769L100.942 153.135C98.344 157.266 95.8495 161.532 93.5269 165.816L93.5268 165.816ZM109.155 140.957L107.075 139.456C109.961 135.459 113.015 131.504 116.151 127.701L118.13 129.333C115.029 133.094 112.009 137.005 109.155 140.957V140.957ZM127.83 118.308L125.959 116.553C129.33 112.96 132.862 109.429 136.459 106.055L138.214 107.926C134.657 111.263 131.163 114.755 127.83 118.308V118.308ZM149.237 98.23L147.606 96.2509C151.408 93.1156 155.361 90.0637 159.355 87.1803L160.857 89.2596C156.907 92.1118 152.998 95.1299 149.237 98.23V98.23ZM173.025 81.054L171.66 78.882C175.832 76.2591 180.142 73.7395 184.47 71.3928L185.693 73.6475C181.413 75.9685 177.151 78.4599 173.025 81.054V81.054ZM198.808 67.0745L197.733 64.7447C202.203 62.6823 206.8 60.739 211.394 58.9684L212.317 61.3621C207.773 63.1126 203.228 65.0347 198.808 67.0745V67.0745ZM226.162 56.5365L225.397 54.0877C230.098 52.6178 234.912 51.2826 239.703 50.1195L240.308 52.6122C235.571 53.7627 230.811 55.0829 226.162 56.5366V56.5365ZM254.678 49.6116L254.235 47.0852C259.083 46.2353 264.028 45.532 268.932 44.9946L269.211 47.5449C264.362 48.076 259.472 48.7718 254.678 49.6117V49.6116Z" fill="#E6E6E6"/>
<path d="M283.947 46.4089L283.832 43.8461C286.402 43.7308 289.005 43.6569 291.569 43.6262L291.6 46.1915C289.063 46.2216 286.488 46.2949 283.947 46.4089Z" fill="#E6E6E6"/>
<path d="M75.5465 263.473L73.7136 261.676L64.8711 270.72L56.4954 261.24L54.5728 262.942L64.7762 274.486L75.5465 263.473Z" fill="#E6E6E6"/>
<path d="M283.354 55.6654L281.557 53.8325L290.601 44.99L281.121 36.6143L282.823 34.6917L294.367 44.8951L283.354 55.6654Z" fill="#E6E6E6"/>
<path d="M667.136 71.7728C664.878 70.5846 662.603 69.4168 660.312 68.2696L661.46 65.976C663.767 67.1303 666.057 68.3057 668.33 69.5024L667.136 71.7728Z" fill="#E6E6E6"/>
<path d="M841.453 545.231L839.079 544.258C841.009 539.549 842.865 534.745 844.596 529.979L847.007 530.854C845.265 535.653 843.396 540.49 841.453 545.231ZM851.97 516.262L849.525 515.486C851.063 510.642 852.52 505.701 853.857 500.802L856.331 501.478C854.986 506.411 853.518 511.385 851.97 516.262V516.262ZM860.082 486.526L857.581 485.953C858.717 480.996 859.762 475.952 860.691 470.962L863.213 471.431C862.278 476.456 861.225 481.534 860.082 486.526V486.526ZM865.719 456.22L863.18 455.856C863.902 450.826 864.529 445.712 865.043 440.658L867.596 440.918C867.077 446.007 866.446 451.156 865.719 456.22V456.22ZM868.84 425.551L866.279 425.397C866.584 420.327 866.788 415.18 866.885 410.097L869.45 410.146C869.353 415.263 869.147 420.446 868.84 425.551V425.551ZM869.426 394.728L866.862 394.785C866.812 392.553 866.743 390.324 866.654 388.097C866.54 385.241 866.39 382.343 866.209 379.484L868.769 379.323C868.951 382.201 869.102 385.118 869.217 387.994C869.307 390.236 869.377 392.481 869.426 394.728L869.426 394.728ZM864.932 364.232C864.404 359.178 863.765 354.068 863.031 349.044L865.569 348.672C866.308 353.732 866.952 358.877 867.483 363.966L864.932 364.232ZM860.512 333.942C859.574 328.952 858.52 323.91 857.378 318.956L859.878 318.379C861.028 323.368 862.089 328.444 863.033 333.469L860.512 333.942ZM853.637 304.108C852.294 299.203 850.833 294.263 849.294 289.423L851.739 288.645C853.288 293.518 854.759 298.492 856.111 303.431L853.637 304.108ZM844.357 274.926C842.621 270.149 840.763 265.343 838.834 260.64L841.208 259.667C843.149 264.401 845.02 269.241 846.768 274.05L844.357 274.926ZM832.734 246.59C830.614 241.968 828.371 237.328 826.065 232.799L828.352 231.635C830.673 236.196 832.932 240.867 835.065 245.52L832.734 246.59ZM818.84 219.29C816.351 214.858 813.737 210.416 811.068 206.087L813.251 204.741C815.938 209.099 818.571 213.572 821.077 218.034L818.84 219.29ZM802.761 193.213C799.917 188.996 796.946 184.782 793.933 180.688L795.999 179.168C799.033 183.29 802.023 187.533 804.888 191.779L802.761 193.213ZM784.596 168.535C781.413 164.563 778.105 160.607 774.766 156.776L776.7 155.091C780.062 158.948 783.392 162.931 786.598 166.93L784.596 168.535ZM764.459 145.431C760.958 141.734 757.335 138.063 753.69 134.519L755.478 132.68C759.148 136.248 762.796 139.945 766.321 143.667L764.459 145.431ZM742.479 124.059C738.685 120.665 734.771 117.304 730.842 114.07L732.473 112.09C736.428 115.346 740.37 118.73 744.189 122.148L742.479 124.059ZM718.801 104.569C714.756 101.509 710.584 98.4864 706.401 95.5851L707.863 93.477C712.075 96.3984 716.276 99.4419 720.349 102.522L718.801 104.569ZM693.641 87.1185C689.361 84.401 684.955 81.7299 680.548 79.1779L681.833 76.9578C686.271 79.5267 690.706 82.2166 695.016 84.9524L693.641 87.1185Z" fill="#E6E6E6"/>
<path d="M832.024 566.38L829.713 565.265C830.827 562.957 831.915 560.644 832.977 558.324L835.31 559.391C834.24 561.727 833.145 564.057 832.024 566.38Z" fill="#E6E6E6"/>
<path d="M663.525 80.4128L665.945 79.5598L661.729 67.6351L673.932 64.3002L673.252 61.8247L658.392 65.8881L663.525 80.4128Z" fill="#E6E6E6"/>
<path d="M824.84 553.688L827.279 552.885L831.224 564.902L842.923 560.09L843.897 562.465L829.648 568.324L824.84 553.688Z" fill="#E6E6E6"/>
</g>
<defs>
<clipPath id="clip0">
<rect width="869.45" height="800" fill="white"/>
</clipPath>
</defs>
</svg>
