<svg width="347" height="320" viewBox="0 0 347 320" fill="none" xmlns="http://www.w3.org/2000/svg">
<g clip-path="url(#clip0)">
<path d="M245.941 292.811H87.6641C83.9051 292.807 80.3014 291.311 77.6439 288.653C74.9864 285.994 73.4923 282.39 73.4894 278.631V217.791C73.1617 218.164 72.8188 218.533 72.4656 218.891V278.631C72.4692 282.661 74.0715 286.525 76.9208 289.376C79.7702 292.226 83.6338 293.83 87.6641 293.835H246.386C246.232 293.497 246.084 293.154 245.941 292.811ZM73.4894 67.9301C73.4923 64.1711 74.9864 60.5669 77.6439 57.9084C80.3014 55.25 83.9051 53.7545 87.6641 53.7502H140.401C140.303 53.4073 140.211 53.0694 140.124 52.7264H87.6641C83.6338 52.7315 79.7702 54.335 76.9208 57.1853C74.0715 60.0356 72.4692 63.8998 72.4656 67.9301V161.2C72.8188 161.558 73.1567 161.926 73.4894 162.3V67.9301ZM286.013 79.8882L252.944 53.6939C252.154 53.068 251.176 52.7271 250.169 52.7264H220.739C220.657 53.0694 220.565 53.4124 220.468 53.7502H250.169C250.945 53.7521 251.698 54.0134 252.309 54.4925L285.378 80.6919C285.692 80.9395 285.945 81.2553 286.119 81.6153C286.293 81.9754 286.383 82.3704 286.381 82.7702V235.231C286.724 235.242 287.067 235.267 287.405 235.293V82.7702C287.407 82.2157 287.283 81.668 287.041 81.1686C286.8 80.6693 286.448 80.2314 286.013 79.8882Z" fill="#3F3D56"/>
<path d="M285.576 81.2405H258.892C257.928 81.2405 256.973 81.0505 256.082 80.6814C255.19 80.3123 254.381 79.7713 253.699 79.0893C253.017 78.4072 252.476 77.5975 252.107 76.7064C251.737 75.8153 251.547 74.8602 251.547 73.8957V54.1876C251.547 54.1013 251.572 54.0168 251.618 53.9437C251.664 53.8706 251.729 53.8119 251.807 53.7744C251.884 53.7368 251.971 53.7219 252.057 53.7313C252.143 53.7408 252.224 53.7742 252.292 53.8278L285.861 80.4216C285.936 80.4808 285.99 80.5618 286.017 80.6533C286.043 80.7448 286.041 80.8424 286.009 80.9324C285.978 81.0224 285.919 81.1004 285.842 81.1556C285.764 81.2108 285.671 81.2405 285.576 81.2405Z" fill="#E6E6E6"/>
<path d="M285.576 81.7524H258.892C256.809 81.75 254.812 80.9215 253.339 79.4486C251.866 77.9756 251.038 75.9786 251.036 73.8956V54.1877C251.036 54.0052 251.087 53.8264 251.184 53.6718C251.281 53.5171 251.419 53.393 251.584 53.3135C251.748 53.234 251.931 53.2025 252.113 53.2224C252.294 53.2424 252.466 53.313 252.609 53.4263L286.179 80.0205C286.337 80.1456 286.452 80.3169 286.508 80.5105C286.564 80.704 286.559 80.9104 286.493 81.1008C286.427 81.2912 286.303 81.4562 286.138 81.573C285.974 81.6897 285.777 81.7524 285.576 81.7524ZM252.059 54.2969V73.8956C252.061 75.7072 252.782 77.444 254.063 78.725C255.344 80.006 257.081 80.7265 258.892 80.7286H285.424L252.059 54.2969Z" fill="#3F3D56"/>
<path d="M232.608 115.21H154.11C153.136 115.21 152.202 114.823 151.513 114.135C150.825 113.446 150.438 112.512 150.438 111.538C150.438 110.564 150.825 109.63 151.513 108.941C152.202 108.252 153.136 107.866 154.11 107.866H232.608C233.582 107.866 234.516 108.252 235.205 108.941C235.894 109.63 236.28 110.564 236.28 111.538C236.28 112.512 235.894 113.446 235.205 114.135C234.516 114.823 233.582 115.21 232.608 115.21Z" fill="#CCCCCC"/>
<path d="M247.757 127.605H154.11C153.136 127.605 152.202 127.218 151.513 126.529C150.825 125.84 150.438 124.906 150.438 123.932C150.438 122.958 150.825 122.024 151.513 121.336C152.202 120.647 153.136 120.26 154.11 120.26H247.757C248.731 120.26 249.665 120.647 250.354 121.336C251.042 122.024 251.429 122.958 251.429 123.932C251.429 124.906 251.042 125.84 250.354 126.529C249.665 127.218 248.731 127.605 247.757 127.605H247.757Z" fill="#CCCCCC"/>
<path d="M232.608 170.756H154.11C153.136 170.756 152.202 170.369 151.513 169.68C150.825 168.991 150.438 168.057 150.438 167.083C150.438 166.109 150.825 165.175 151.513 164.486C152.202 163.798 153.136 163.411 154.11 163.411H232.608C233.582 163.411 234.516 163.798 235.205 164.486C235.894 165.175 236.28 166.109 236.28 167.083C236.28 168.057 235.894 168.991 235.205 169.68C234.516 170.369 233.582 170.756 232.608 170.756Z" fill="#CCCCCC"/>
<path d="M247.757 183.15H154.11C153.136 183.15 152.202 182.763 151.513 182.075C150.825 181.386 150.438 180.452 150.438 179.478C150.438 178.504 150.825 177.57 151.513 176.881C152.202 176.192 153.136 175.805 154.11 175.805H247.757C248.731 175.805 249.665 176.192 250.354 176.881C251.042 177.57 251.429 178.504 251.429 179.478C251.429 180.452 251.042 181.386 250.354 182.075C249.665 182.763 248.731 183.15 247.757 183.15H247.757Z" fill="#CCCCCC"/>
<path d="M232.608 226.301H154.11C153.628 226.301 153.15 226.206 152.705 226.022C152.259 225.837 151.854 225.566 151.513 225.225C151.172 224.884 150.902 224.48 150.717 224.034C150.533 223.588 150.438 223.111 150.438 222.629C150.438 222.146 150.533 221.669 150.717 221.223C150.902 220.778 151.172 220.373 151.513 220.032C151.854 219.691 152.259 219.42 152.705 219.236C153.15 219.051 153.628 218.956 154.11 218.956H232.608C233.582 218.956 234.516 219.343 235.205 220.032C235.894 220.721 236.28 221.655 236.28 222.629C236.28 223.603 235.894 224.537 235.205 225.225C234.516 225.914 233.582 226.301 232.608 226.301Z" fill="#CCCCCC"/>
<path d="M247.757 238.695H154.11C153.628 238.695 153.15 238.6 152.705 238.416C152.259 238.231 151.854 237.961 151.513 237.62C151.172 237.279 150.902 236.874 150.717 236.428C150.533 235.983 150.438 235.505 150.438 235.023C150.438 234.541 150.533 234.063 150.717 233.618C150.902 233.172 151.172 232.767 151.513 232.426C151.854 232.085 152.259 231.815 152.705 231.63C153.15 231.446 153.628 231.351 154.11 231.351H247.757C248.239 231.351 248.717 231.446 249.162 231.63C249.608 231.815 250.013 232.085 250.354 232.426C250.695 232.767 250.965 233.172 251.15 233.618C251.334 234.063 251.429 234.541 251.429 235.023C251.429 235.505 251.334 235.983 251.15 236.428C250.965 236.874 250.695 237.279 250.354 237.62C250.013 237.961 249.608 238.231 249.162 238.416C248.717 238.6 248.239 238.695 247.757 238.695H247.757Z" fill="#CCCCCC"/>
<path d="M121.421 130.715C128.59 130.715 134.401 124.904 134.401 117.735C134.401 110.567 128.59 104.755 121.421 104.755C114.253 104.755 108.441 110.567 108.441 117.735C108.441 124.904 114.253 130.715 121.421 130.715Z" fill="#A2E5F2"/>
<path d="M120.135 122.687C119.843 122.687 119.559 122.593 119.325 122.417L119.311 122.407L116.26 120.073C116.119 119.965 116 119.83 115.911 119.676C115.821 119.521 115.763 119.351 115.74 119.175C115.716 118.998 115.728 118.818 115.774 118.646C115.82 118.474 115.899 118.313 116.008 118.171C116.116 118.03 116.251 117.911 116.406 117.822C116.56 117.733 116.73 117.675 116.907 117.652C117.084 117.629 117.263 117.641 117.435 117.687C117.607 117.733 117.769 117.813 117.91 117.921L119.886 119.437L124.555 113.345C124.663 113.204 124.798 113.086 124.952 112.997C125.106 112.908 125.276 112.85 125.453 112.826C125.629 112.803 125.808 112.815 125.98 112.861C126.152 112.907 126.313 112.986 126.455 113.094L126.455 113.095L126.426 113.135L126.456 113.095C126.741 113.314 126.927 113.637 126.974 113.993C127.021 114.349 126.925 114.71 126.706 114.995L121.215 122.156C121.088 122.321 120.924 122.455 120.737 122.547C120.55 122.638 120.345 122.686 120.136 122.685L120.135 122.687Z" fill="white"/>
<path d="M121.421 186.26C128.59 186.26 134.401 180.449 134.401 173.281C134.401 166.112 128.59 160.301 121.421 160.301C114.253 160.301 108.441 166.112 108.441 173.281C108.441 180.449 114.253 186.26 121.421 186.26Z" fill="#E6E6E6"/>
<path d="M120.135 178.232C119.843 178.233 119.559 178.138 119.325 177.963L119.311 177.952L116.26 175.618C115.975 175.4 115.788 175.077 115.741 174.72C115.694 174.364 115.791 174.003 116.009 173.718C116.228 173.433 116.551 173.246 116.908 173.199C117.264 173.152 117.625 173.248 117.91 173.467L119.886 174.982L124.555 168.891C124.663 168.749 124.798 168.631 124.952 168.542C125.106 168.453 125.276 168.395 125.453 168.372C125.629 168.348 125.808 168.36 125.98 168.406C126.152 168.452 126.313 168.531 126.455 168.64L126.455 168.64L126.426 168.68L126.456 168.64C126.741 168.859 126.927 169.182 126.974 169.538C127.021 169.895 126.925 170.255 126.706 170.54L121.215 177.702C121.088 177.867 120.924 178 120.737 178.092C120.55 178.184 120.345 178.231 120.136 178.23L120.135 178.232Z" fill="white"/>
<path d="M121.421 241.806C128.59 241.806 134.401 235.994 134.401 228.826C134.401 221.657 128.59 215.846 121.421 215.846C114.253 215.846 108.441 221.657 108.441 228.826C108.441 235.994 114.253 241.806 121.421 241.806Z" fill="#E6E6E6"/>
<path d="M120.135 233.777C119.843 233.778 119.559 233.683 119.325 233.508L119.311 233.497L116.26 231.164C116.119 231.056 116 230.921 115.911 230.766C115.821 230.612 115.763 230.442 115.74 230.265C115.716 230.089 115.728 229.909 115.774 229.737C115.82 229.565 115.899 229.403 116.008 229.262C116.116 229.12 116.251 229.002 116.406 228.913C116.56 228.824 116.73 228.766 116.907 228.743C117.084 228.719 117.263 228.731 117.435 228.778C117.607 228.824 117.769 228.904 117.91 229.012L119.886 230.527L124.555 224.436C124.663 224.295 124.798 224.176 124.952 224.087C125.106 223.998 125.276 223.94 125.453 223.917C125.629 223.894 125.808 223.905 125.98 223.951C126.152 223.997 126.313 224.077 126.455 224.185L126.455 224.185L126.426 224.226L126.456 224.185C126.741 224.404 126.927 224.727 126.974 225.084C127.021 225.44 126.925 225.8 126.706 226.086L121.215 233.247C121.088 233.412 120.924 233.546 120.737 233.637C120.55 233.729 120.345 233.776 120.136 233.776L120.135 233.777Z" fill="white"/>
<path d="M303.917 314.477C303.185 314.86 302.44 315.222 301.682 315.564C300.992 315.876 300.292 316.168 299.58 316.443C299.32 316.542 299.055 316.641 298.791 316.74C296.699 317.499 294.55 318.091 292.364 318.512C291.282 318.725 290.186 318.892 289.076 319.013C288.159 319.117 287.233 319.191 286.298 319.235C285.631 319.268 284.965 319.282 284.294 319.282C281.637 319.283 278.986 319.035 276.375 318.54C275.694 318.418 275.028 318.271 274.362 318.11C271.139 317.338 268.019 316.187 265.068 314.68C264.803 314.548 264.538 314.406 264.274 314.269C263.882 314.061 263.499 313.844 263.116 313.617C263.3 313.362 263.499 313.111 263.702 312.866C265.913 310.126 268.677 307.882 271.813 306.282C274.949 304.681 278.387 303.76 281.903 303.577C285.419 303.394 288.934 303.954 292.219 305.221C295.504 306.488 298.486 308.432 300.969 310.928C301.831 311.793 302.63 312.719 303.36 313.697C303.553 313.952 303.738 314.212 303.917 314.477Z" fill="#A2E5F2"/>
<path d="M285.237 293.721C296.696 293.721 305.985 284.432 305.985 272.973C305.985 261.514 296.696 252.225 285.237 252.225C273.778 252.225 264.489 261.514 264.489 272.973C264.489 284.432 273.778 293.721 285.237 293.721Z" fill="#2F2E41"/>
<path d="M290.755 293.75C298.239 289.659 300.989 280.277 296.898 272.794C292.807 265.31 283.425 262.56 275.942 266.651C268.458 270.742 265.708 280.124 269.799 287.607C273.889 295.091 283.272 297.841 290.755 293.75Z" fill="#A0616A"/>
<path d="M299.574 270.488C296.046 272.92 291.857 274.214 287.572 274.197C289.101 275.257 290.841 275.973 292.673 276.296C286.975 277.518 281.086 277.551 275.374 276.393C274.105 276.189 272.88 275.769 271.753 275.149C271.192 274.835 270.702 274.407 270.317 273.892C269.932 273.377 269.66 272.787 269.518 272.16C269.138 269.991 270.828 268.022 272.583 266.694C275.272 264.693 278.371 263.314 281.658 262.657C284.944 262 288.335 262.082 291.586 262.897C293.709 263.446 295.835 264.373 297.214 266.077C298.593 267.782 299.001 270.41 297.688 272.166L299.574 270.488Z" fill="#2F2E41"/>
<path d="M287.405 234.341C287.067 234.315 286.724 234.295 286.381 234.279C285.69 234.243 284.994 234.228 284.293 234.228C277.319 234.228 270.453 235.943 264.298 239.222C258.144 242.501 252.89 247.243 249 253.031C245.11 258.819 242.703 265.474 241.991 272.411C241.279 279.348 242.284 286.354 244.917 292.811C245.055 293.154 245.198 293.497 245.352 293.835C248.87 301.804 254.734 308.511 262.163 313.062L262.434 313.221C262.665 313.359 262.89 313.492 263.115 313.615C263.499 313.845 263.883 314.06 264.272 314.27C264.538 314.408 264.804 314.546 265.065 314.679C268.017 316.187 271.138 317.338 274.362 318.109C275.027 318.273 275.693 318.416 276.374 318.539C278.984 319.034 281.635 319.282 284.293 319.282C284.963 319.282 285.629 319.266 286.299 319.235C287.231 319.194 288.158 319.118 289.074 319.015C290.185 318.892 291.282 318.725 292.365 318.514C294.55 318.092 296.698 317.5 298.79 316.742C299.056 316.64 299.322 316.543 299.578 316.44C300.295 316.169 300.991 315.877 301.682 315.565C302.44 315.222 303.185 314.859 303.919 314.475C311.274 310.621 317.353 304.718 321.421 297.479C321.44 297.441 321.46 297.403 321.483 297.367C324.946 291.125 326.782 284.111 326.821 276.972C326.86 269.834 325.101 262.8 321.706 256.52C318.31 250.241 313.388 244.917 307.394 241.041C301.399 237.165 294.525 234.861 287.405 234.341L287.405 234.341ZM325.143 284.559C324.321 288.853 322.823 292.989 320.705 296.814C320.669 296.88 320.633 296.947 320.597 297.008C316.613 304.141 310.619 309.944 303.361 313.697C302.634 314.075 301.899 314.43 301.155 314.761C300.535 315.038 299.901 315.304 299.261 315.55C298.995 315.652 298.718 315.76 298.447 315.852C296.639 316.512 294.786 317.042 292.903 317.439C291.507 317.737 290.095 317.959 288.675 318.104C287.799 318.201 286.914 318.268 286.018 318.299C285.444 318.324 284.871 318.34 284.293 318.34C281.721 318.341 279.156 318.101 276.629 317.623C275.092 317.341 273.572 316.968 272.079 316.507C269.803 315.806 267.592 314.91 265.47 313.83C265.224 313.702 264.978 313.574 264.738 313.441C264.39 313.256 264.042 313.067 263.704 312.867C263.448 312.724 263.192 312.57 262.941 312.422C262.793 312.335 262.649 312.248 262.501 312.156C255.429 307.784 249.819 301.406 246.386 293.835C246.232 293.497 246.084 293.154 245.941 292.811C243.295 286.491 242.252 279.616 242.904 272.797C243.557 265.977 245.884 259.424 249.679 253.721C253.474 248.017 258.62 243.34 264.659 240.104C270.697 236.869 277.442 235.176 284.293 235.175C284.994 235.175 285.69 235.191 286.381 235.232C286.724 235.242 287.067 235.267 287.405 235.293C293.246 235.736 298.928 237.407 304.079 240.196C309.23 242.986 313.734 246.832 317.296 251.483C320.859 256.133 323.399 261.483 324.751 267.183C326.103 272.883 326.237 278.804 325.143 284.559L325.143 284.559Z" fill="#3F3D56"/>
<path d="M274.73 252.512C274.507 250.164 271.631 248.719 269.382 249.428C267.134 250.137 265.657 252.402 265.211 254.717C264.996 255.692 264.976 256.7 265.151 257.683C265.327 258.666 265.695 259.604 266.234 260.445C267.371 262.081 269.46 263.102 271.408 262.687C273.632 262.212 275.173 260.041 275.614 257.81C276.055 255.579 275.617 253.279 275.18 251.047L274.73 252.512Z" fill="#2F2E41"/>
<path d="M306.38 255.865C306.157 253.518 303.281 252.073 301.032 252.782C298.783 253.491 297.307 255.755 296.861 258.07C296.646 259.046 296.626 260.054 296.801 261.036C296.977 262.019 297.345 262.958 297.884 263.798C299.02 265.434 301.109 266.455 303.058 266.04C305.282 265.566 306.823 263.394 307.264 261.163C307.704 258.932 307.267 256.632 306.83 254.401L306.38 255.865Z" fill="#2F2E41"/>
<path d="M203.114 77.9357C196.532 82.1509 188.905 84.4495 181.089 84.5738C173.273 84.6982 165.577 82.6434 158.864 78.6397C160.045 76.4413 161.541 74.4275 163.306 72.6625C166.028 69.9273 169.341 67.8526 172.99 66.5976C176.639 65.3426 180.527 64.9408 184.356 65.4231C188.185 65.9054 191.852 67.259 195.076 69.3797C198.3 71.5005 200.995 74.3321 202.954 77.6569C203.006 77.7467 203.062 77.8412 203.114 77.9357Z" fill="#A2E5F2"/>
<path d="M179.142 55.3401C190.676 55.3401 200.027 45.9893 200.027 34.4545C200.027 22.9196 190.676 13.5688 179.142 13.5688C167.607 13.5688 158.256 22.9196 158.256 34.4545C158.256 45.9893 167.607 55.3401 179.142 55.3401Z" fill="#2F2E41"/>
<path d="M192.635 49.186C196.753 41.653 193.984 32.2081 186.451 28.0902C178.918 23.9722 169.473 26.7407 165.355 34.2737C161.238 41.8067 164.006 51.2517 171.539 55.3696C179.072 59.4875 188.517 56.719 192.635 49.186Z" fill="#FFB8B8"/>
<path d="M164.709 31.9523C168.261 34.4006 172.477 35.7036 176.791 35.6863C175.253 36.7534 173.501 37.4742 171.656 37.799C177.392 39.0294 183.32 39.0627 189.07 37.8968C190.348 37.6919 191.581 37.2684 192.715 36.6448C193.28 36.3292 193.773 35.8981 194.161 35.3796C194.548 34.8612 194.822 34.2669 194.965 33.6356C195.347 31.453 193.647 29.4701 191.879 28.1337C189.173 26.1189 186.053 24.7307 182.745 24.0696C179.437 23.4085 176.023 23.491 172.75 24.3112C170.613 24.8636 168.473 25.7968 167.085 27.5128C165.697 29.2289 165.286 31.8744 166.608 33.6415L164.709 31.9523Z" fill="#2F2E41"/>
<path d="M180.422 0C169.147 0.012536 158.338 4.4966 150.365 12.4686C142.392 20.4405 137.906 31.2494 137.892 42.5241C137.894 45.9635 138.317 49.3898 139.152 52.7264C139.239 53.0694 139.326 53.4124 139.418 53.7502C141.871 62.7441 147.214 70.6814 154.624 76.3383C162.034 81.9952 171.099 85.0576 180.422 85.0533C189.746 85.0531 198.812 81.9895 206.225 76.3337C213.638 70.6779 218.988 62.7432 221.451 53.7502C221.543 53.4073 221.63 53.0694 221.712 52.7264C223.254 46.4621 223.352 39.9291 221.998 33.6214C220.644 27.3137 217.873 21.3965 213.895 16.3172C209.918 11.238 204.837 7.12956 199.038 4.30269C193.239 1.47583 186.873 0.00451325 180.422 0ZM220.739 52.7264C220.657 53.0694 220.565 53.4124 220.468 53.7502C218.741 59.9014 215.62 65.5722 211.348 70.3227C207.076 75.0733 201.767 78.7761 195.833 81.1439C189.899 83.5117 183.499 84.4809 177.13 83.9764C170.761 83.4719 164.593 81.5072 159.106 78.2347C149.986 72.7468 143.298 63.9922 140.401 53.7502C140.304 53.4073 140.211 53.0694 140.124 52.7264C139.271 49.3927 138.84 45.9652 138.84 42.5241C138.846 36.6338 140.104 30.8121 142.53 25.4447C144.957 20.0772 148.495 15.2865 152.913 11.3899C157.33 7.49318 162.524 4.57949 168.153 2.84177C173.781 1.10406 179.714 0.581976 185.559 1.31011C191.404 2.03824 197.028 3.99996 202.058 7.06534C207.088 10.1307 211.409 14.2298 214.735 19.0911C218.061 23.9523 220.316 29.4649 221.352 35.2635C222.387 41.0621 222.178 47.0145 220.739 52.7264H220.739Z" fill="#3F3D56"/>
<path d="M65.2221 225.434C58.6397 229.649 51.0134 231.948 43.1979 232.073C35.3823 232.198 27.6865 230.143 20.9729 226.14C21.0444 226.002 21.1211 225.864 21.2031 225.73C23.3566 221.849 26.495 218.603 30.3022 216.32C34.1094 214.037 38.4509 212.797 42.8895 212.726C47.3282 212.655 51.7072 213.755 55.5856 215.915C59.4639 218.075 62.7046 221.218 64.9814 225.029C65.0121 225.07 65.0376 225.116 65.0634 225.157C65.1146 225.244 65.1709 225.341 65.2221 225.434Z" fill="#A2E5F2"/>
<path d="M62.1352 181.952C62.1352 186.083 60.9102 190.121 58.6153 193.556C56.3203 196.99 53.0584 199.667 49.242 201.248C45.4257 202.829 41.2262 203.242 37.1748 202.437C33.1234 201.631 29.4019 199.641 26.481 196.721C23.5601 193.8 21.571 190.078 20.7651 186.027C19.9592 181.975 20.3728 177.776 21.9536 173.959C23.5344 170.143 26.2114 166.881 29.646 164.586C33.0807 162.291 37.1187 161.066 41.2495 161.066C43.9959 161.053 46.7177 161.585 49.2576 162.63C51.7975 163.674 54.1052 165.212 56.0472 167.154C57.9893 169.096 59.5272 171.404 60.5721 173.944C61.6171 176.484 62.1483 179.206 62.1352 181.952Z" fill="#2F2E41"/>
<path d="M57.6149 194.929C57.3759 195.53 57.1007 196.117 56.7908 196.685C54.8132 200.302 51.4797 202.986 47.5236 204.145C43.5675 205.305 39.3127 204.846 35.6952 202.869C33.9025 201.89 32.3201 200.568 31.0386 198.978C29.757 197.388 28.8013 195.561 28.2261 193.602C27.651 191.642 27.4676 189.588 27.6865 187.558C27.9053 185.527 28.5222 183.56 29.5017 181.768C30.4813 179.976 31.8044 178.394 33.3954 177.114C34.9864 175.834 36.8141 174.879 38.7741 174.305C40.7341 173.732 42.7879 173.55 44.8183 173.77C46.8486 173.99 48.8156 174.608 50.607 175.589C53.93 177.406 56.4756 180.374 57.766 183.935C59.0563 187.496 59.0026 191.405 57.6149 194.929Z" fill="#A0616A"/>
<path d="M73.4895 160.913C73.1618 160.555 72.8189 160.201 72.4657 159.858C66.7775 154.221 59.6125 150.306 51.7961 148.563C43.9797 146.821 35.8301 147.322 28.2861 150.009C20.7421 152.696 14.1109 157.46 9.1563 163.752C4.20175 170.043 1.12552 177.607 0.282072 185.571C-0.561382 193.534 0.86225 201.574 4.38895 208.764C7.91565 215.954 13.4019 222.001 20.2156 226.209C27.0293 230.417 34.8932 232.614 42.9012 232.548C50.9092 232.481 58.7354 230.153 65.4782 225.833C67.9964 224.217 70.3383 222.342 72.4657 220.238C72.8139 219.895 73.1568 219.547 73.4895 219.188C80.917 211.305 85.0534 200.882 85.0534 190.051C85.0534 179.219 80.917 168.797 73.4895 160.913V160.913ZM72.4657 218.891C70.2176 221.221 67.7059 223.281 64.9816 225.029C64.9765 225.034 64.9713 225.034 64.9663 225.039C58.4573 229.207 50.9165 231.479 43.1888 231.602C35.4611 231.725 27.8518 229.694 21.2135 225.736C21.2085 225.736 21.2085 225.73 21.2033 225.73C16.112 222.694 11.7288 218.605 8.34757 213.736C4.96639 208.867 2.66542 203.331 1.59899 197.5C0.532558 191.669 0.725321 185.677 2.16435 179.927C3.60339 174.176 6.25541 168.8 9.94257 164.159C13.6297 159.517 18.2668 155.718 23.5427 153.015C28.8186 150.313 34.6114 148.769 40.5326 148.489C46.4537 148.209 52.3664 149.198 57.874 151.39C63.3815 153.582 68.3567 156.927 72.4657 161.199C72.8189 161.558 73.1568 161.926 73.4895 162.3C80.3257 169.925 84.1063 179.805 84.1063 190.045C84.1063 200.286 80.3257 210.166 73.4895 217.791C73.1618 218.165 72.8189 218.533 72.4657 218.891Z" fill="#3F3D56"/>
<path d="M58.177 164.608C57.1481 162.861 55.6565 161.433 53.8671 160.481C52.0776 159.529 50.0598 159.09 48.0365 159.212C45.9129 159.371 43.8923 160.154 41.9083 160.928L31.8213 164.862C29.2112 165.881 26.3526 167.128 25.22 169.69C24.1688 172.069 24.953 174.815 25.747 177.292L29.5209 189.062C30.038 186.418 30.5633 183.748 31.6595 181.287C32.7557 178.826 34.4895 176.557 36.8866 175.327C39.5066 173.983 42.5948 174.011 45.5361 174.152C49.7018 174.353 54.2311 174.883 57.1909 177.821C58.762 179.489 59.8272 181.57 60.2626 183.82C60.6911 186.058 60.9068 188.332 60.9067 190.611C62.615 187.674 64.0539 184.589 65.206 181.394C66.1537 179.014 66.6937 176.492 66.8034 173.933C66.826 171.377 66.1025 168.741 64.3983 166.836C62.6942 164.931 59.9175 163.903 57.4756 164.657" fill="#2F2E41"/>
<path d="M26.3698 108.444L25.3461 108.432C25.3583 107.408 25.3877 106.369 25.4337 105.344L26.4565 105.39C26.4111 106.404 26.3819 107.431 26.3698 108.444Z" fill="#E6E6E6"/>
<path d="M26.9061 99.5437L25.8883 99.4327C26.1021 97.4758 26.382 95.5022 26.7204 93.5667L27.729 93.7432C27.3943 95.6569 27.1175 97.6085 26.9061 99.5437ZM28.9241 88.0075L27.9291 87.7666C28.3924 85.8547 28.9245 83.9335 29.5106 82.0561L30.4879 82.361C29.9084 84.2175 29.3822 86.1174 28.9241 88.0075ZM32.4166 76.8215L31.4612 76.4536C32.1682 74.617 32.9451 72.779 33.7701 70.9909L34.6997 71.4198C33.8839 73.188 33.1158 75.0054 32.4166 76.8215ZM37.3268 66.1775L36.4269 65.6896C37.3642 63.9609 38.371 62.2389 39.4193 60.5715L40.2861 61.1164C39.2494 62.7653 38.2538 64.468 37.3269 66.1775L37.3268 66.1775ZM43.5639 56.2565L42.7339 55.6571C43.8858 54.0622 45.1046 52.4837 46.3563 50.9657L47.1461 51.6171C45.9083 53.1184 44.7031 54.6791 43.5639 56.2565V56.2565ZM51.0174 47.2169L50.2708 46.5165C51.6158 45.0828 53.0257 43.6733 54.4611 42.3268L55.1614 43.0737C53.7419 44.4052 52.3476 45.7992 51.0174 47.2169V47.2169ZM59.5611 39.2039L58.9098 38.414C60.4274 37.1627 62.0051 35.9447 63.5991 34.7939L64.1985 35.6238C62.6221 36.7621 61.0619 37.9666 59.5611 39.2039V39.2039ZM69.0548 32.3489L68.5099 31.482C70.1752 30.4352 71.8953 29.4296 73.6225 28.4931L74.1105 29.3929C72.4025 30.3192 70.7015 31.3136 69.0548 32.3489V32.3489ZM79.3448 26.7696L78.9159 25.8398C80.7 25.0167 82.5343 24.2411 84.3681 23.5345L84.7362 24.4898C82.9229 25.1884 81.109 25.9555 79.3448 26.7696V26.7696ZM90.2619 22.5639L89.9564 21.5866C91.833 20.9999 93.754 20.467 95.6661 20.0028L95.9076 20.9977C94.0169 21.4568 92.1175 21.9837 90.2619 22.5639V22.5639ZM101.643 19.8001L101.466 18.7918C103.401 18.4526 105.374 18.1719 107.332 17.9575L107.443 18.9753C105.508 19.1873 103.556 19.465 101.643 19.8002V19.8001Z" fill="#E6E6E6"/>
<path d="M113.324 18.5219L113.278 17.4991C114.304 17.4531 115.343 17.4236 116.366 17.4113L116.378 18.4351C115.366 18.4471 114.338 18.4764 113.324 18.5219Z" fill="#E6E6E6"/>
<path d="M30.1507 105.153L29.4192 104.436L25.8901 108.045L22.5474 104.262L21.78 104.941L25.8522 109.548L30.1507 105.153Z" fill="#E6E6E6"/>
<path d="M113.087 22.2163L112.37 21.4847L115.98 17.9557L112.196 14.6129L112.875 13.8456L117.483 17.9178L113.087 22.2163Z" fill="#E6E6E6"/>
<path d="M266.256 28.6447C265.355 28.1705 264.447 27.7045 263.532 27.2466L263.991 26.3312C264.911 26.7919 265.825 27.261 266.733 27.7386L266.256 28.6447Z" fill="#E6E6E6"/>
<path d="M335.826 217.603L334.879 217.215C335.649 215.336 336.39 213.418 337.081 211.516L338.043 211.865C337.348 213.781 336.602 215.711 335.826 217.603ZM340.024 206.042L339.048 205.732C339.661 203.799 340.243 201.827 340.777 199.872L341.764 200.141C341.227 202.11 340.642 204.095 340.024 206.042ZM343.261 194.174L342.263 193.945C342.716 191.967 343.134 189.954 343.504 187.962L344.511 188.15C344.138 190.155 343.717 192.182 343.261 194.174V194.174ZM345.511 182.079L344.497 181.933C344.786 179.926 345.036 177.885 345.241 175.868L346.26 175.972C346.053 178.003 345.801 180.058 345.511 182.079V182.079ZM346.756 169.839L345.734 169.777C345.856 167.754 345.938 165.699 345.976 163.671L347 163.69C346.961 165.733 346.879 167.801 346.756 169.839ZM346.99 157.537L345.967 157.56C345.947 156.669 345.92 155.779 345.884 154.891C345.838 153.751 345.779 152.594 345.706 151.453L346.728 151.389C346.801 152.537 346.861 153.702 346.907 154.85C346.943 155.744 346.971 156.64 346.99 157.537L346.99 157.537ZM345.197 145.366C344.986 143.349 344.731 141.31 344.438 139.304L345.451 139.156C345.746 141.175 346.003 143.229 346.215 145.26L345.197 145.366ZM343.433 133.277C343.058 131.286 342.638 129.273 342.182 127.296L343.18 127.066C343.638 129.057 344.062 131.083 344.439 133.088L343.433 133.277ZM340.689 121.37C340.153 119.413 339.57 117.441 338.956 115.509L339.931 115.199C340.55 117.144 341.137 119.129 341.676 121.1L340.689 121.37ZM336.985 109.724C336.292 107.817 335.551 105.899 334.781 104.022L335.728 103.634C336.503 105.523 337.25 107.455 337.948 109.374L336.985 109.724ZM332.346 98.4148C331.5 96.5703 330.605 94.7185 329.685 92.9107L330.597 92.4464C331.524 94.2664 332.425 96.1308 333.277 97.9878L332.346 98.4148ZM326.801 87.5192C325.808 85.7504 324.765 83.9775 323.699 82.2501L324.571 81.7129C325.643 83.452 326.694 85.2371 327.694 87.0182L326.801 87.5192ZM320.384 77.1118C319.249 75.4289 318.063 73.7471 316.861 72.1132L317.685 71.5063C318.896 73.1514 320.09 74.8449 321.233 76.5395L320.384 77.1118ZM313.135 67.2628C311.864 65.6777 310.544 64.0988 309.211 62.5699L309.983 61.8971C311.325 63.4366 312.654 65.0264 313.933 66.6224L313.135 67.2628ZM305.098 58.0419C303.7 56.5664 302.254 55.1014 300.8 53.687L301.514 52.9529C302.978 54.377 304.434 55.8524 305.841 57.3378L305.098 58.0419ZM296.325 49.5124C294.811 48.1577 293.249 46.8164 291.681 45.5258L292.332 44.7353C293.911 46.0349 295.484 47.3855 297.008 48.7496L296.325 49.5124ZM286.875 41.7337C285.261 40.5126 283.596 39.3062 281.926 38.1483L282.51 37.3069C284.191 38.4729 285.868 39.6876 287.493 40.917L286.875 41.7337ZM276.834 34.7692C275.126 33.6847 273.368 32.6186 271.609 31.6001L272.121 30.7141C273.892 31.7393 275.663 32.8129 277.383 33.9048L276.834 34.7692Z" fill="#E6E6E6"/>
<path d="M332.063 226.044L331.141 225.599C331.586 224.678 332.02 223.754 332.444 222.829L333.375 223.255C332.948 224.187 332.511 225.117 332.063 226.044Z" fill="#E6E6E6"/>
<path d="M264.815 32.093L265.781 31.7526L264.098 26.9934L268.968 25.6624L268.697 24.6744L262.766 26.2962L264.815 32.093Z" fill="#E6E6E6"/>
<path d="M329.196 220.978L330.169 220.658L331.744 225.454L336.413 223.533L336.801 224.481L331.115 226.82L329.196 220.978Z" fill="#E6E6E6"/>
</g>
<defs>
<clipPath id="clip0">
<rect width="347" height="319.282" fill="white"/>
</clipPath>
</defs>
</svg>
