<svg width="315" height="180" viewBox="0 0 315 180" fill="none" xmlns="http://www.w3.org/2000/svg">
<g clip-path="url(#clip0)">
<path d="M33.0562 165.188L32.5545 164.999C32.4443 164.958 21.4719 160.749 16.332 151.207C11.1919 141.664 13.7087 130.175 13.7348 130.06L13.8532 129.537L14.3547 129.725C14.4649 129.767 25.4371 133.975 30.5772 143.518C35.7174 153.06 33.2005 164.55 33.1745 164.664L33.0562 165.188ZM17.1551 150.763C21.5007 158.831 30.1714 162.967 32.3683 163.911C32.786 161.554 34.0959 152.022 29.7542 143.962C25.4129 135.902 16.7388 131.76 14.5409 130.814C14.123 133.172 12.8136 142.703 17.1551 150.763Z" fill="#3F3D56"/>
<path d="M20.656 148.653C29.8931 154.216 33.4506 165.266 33.4506 165.266C33.4506 165.266 22.0318 167.297 12.7946 161.733C3.55751 156.17 0 145.12 0 145.12C0 145.12 11.4188 143.089 20.656 148.653Z" fill="#FAC710"/>
<path d="M76.5553 152.072C76.5553 166.738 65.654 165.944 52.2066 165.944C38.7592 165.944 27.8579 166.738 27.8579 152.072C27.8579 137.407 38.7592 112.835 52.2066 112.835C65.654 112.835 76.5553 137.407 76.5553 152.072Z" fill="#3F3D56"/>
<path d="M293.912 165.548H12.0215V166.341H293.912V165.548Z" fill="#3F3D56"/>
<path d="M133.814 30.9692C133.801 30.9277 133.787 30.8857 133.774 30.8441C133.779 30.8623 133.786 30.8799 133.792 30.8982L133.814 30.9692Z" fill="#2F2E41"/>
<path d="M88.7796 128.642L80.4654 136.568L73.7349 129.434L84.0286 124.282L88.7796 128.642Z" fill="#A0616A"/>
<path d="M78.0646 130.208C78.0646 130.208 88.137 129.549 86.9596 132.493C85.7822 135.436 88.278 146.256 88.278 146.256C88.278 146.256 92.0204 165.687 80.1866 157.955C68.3528 150.223 70.9279 144.851 70.9279 144.851C70.9279 144.851 67.4744 139.624 68.2103 137.785C68.9461 135.945 74.794 128.88 75.9146 129.765C76.2032 130.02 76.5535 130.195 76.9307 130.273C77.3078 130.35 77.6987 130.328 78.0646 130.208Z" fill="#2F2E41"/>
<path d="M74.5265 97.3314C74.5265 97.3314 118.869 93.7644 122.432 102.88C125.995 111.996 118.869 118.733 118.869 118.733L89.9671 133.001L80.749 124.747L86.008 119.922C86.008 119.922 56.3145 125.471 55.5227 121.111C54.7309 116.752 58.69 93.7644 74.5265 97.3314Z" fill="#2F2E41"/>
<path d="M125.995 105.258C125.995 105.258 133.914 127.453 125.995 126.264C118.077 125.075 118.869 107.24 118.869 107.24L125.995 105.258Z" fill="#A0616A"/>
<path d="M108.377 59.8778C108.377 59.8778 113.326 62.454 112.534 65.6246C111.743 68.7953 115.702 88.612 115.702 88.612L127.579 106.051L117.681 109.618C117.681 109.618 105.012 101.295 103.032 95.3497C101.053 89.4047 98.2815 80.289 98.2815 80.289L108.377 59.8778Z" fill="#D0CDE1"/>
<path d="M105.804 50.564C113.02 50.564 118.869 44.7084 118.869 37.485C118.869 30.2617 113.02 24.406 105.804 24.406C98.5882 24.406 92.7388 30.2617 92.7388 37.485C92.7388 44.7084 98.5882 50.564 105.804 50.564Z" fill="#A0616A"/>
<path d="M106.794 46.7989C106.794 46.7989 105.21 59.8779 106.002 65.0303C106.794 70.1826 90.1653 46.4026 90.1653 46.4026C90.1653 46.4026 97.2917 41.2502 97.2917 39.2686C97.2917 37.2869 106.794 46.7989 106.794 46.7989Z" fill="#A0616A"/>
<path d="M121.613 32.4537C120.343 32.3023 119.06 32.3112 117.793 32.4802C116.514 32.6566 115.349 33.3087 114.528 34.3066C113.625 35.5177 113.324 37.3572 111.909 37.8823C111.065 38.1952 110.088 37.8974 109.244 38.2088C108.23 38.5826 107.715 39.7045 107.446 40.7516C107.176 41.7987 107.02 42.9327 106.33 43.7646C105.639 44.5964 104.154 44.876 103.543 43.9843C103.655 43.0277 103.606 42.0589 103.397 41.1187C103.288 40.6492 103.063 40.2145 102.744 39.8537C102.424 39.4929 102.02 39.2174 101.568 39.052C100.012 38.6009 98.5638 39.9541 97.5162 41.1908C96.4685 42.4275 95.0654 43.8066 93.4925 43.4196C91.8419 43.0134 91.2786 40.9807 91.0968 39.2889C90.6827 35.4346 90.7441 31.342 92.6061 27.9431C95.3011 23.0238 101.453 20.6365 107.004 21.4078C112.555 22.1791 117.455 25.6481 121.036 29.9639C121.618 30.6654 122.191 31.4361 122.316 32.3395" fill="#2F2E41"/>
<path d="M104.814 62.2559L100.459 57.8963L92.9367 42.8356L72.7451 49.1769C72.7451 49.1769 65.6187 51.1586 61.2636 63.8413C61.2636 63.8413 35.1334 97.5296 39.4884 103.078C43.8434 108.627 44.6353 108.231 51.7617 103.871C56.2326 101.176 61.0201 99.0457 66.0146 97.5296L85.0184 99.5113L96.4999 85.2433C96.4999 85.2433 113.524 74.1459 110.753 61.4633L106.002 55.1219L104.814 62.2559Z" fill="#575A89"/>
<path d="M101.845 102.087L104.22 103.673C104.22 103.673 117.285 119.922 110.951 123.093C104.616 126.264 98.2815 107.24 98.2815 107.24L101.845 102.087Z" fill="#A0616A"/>
<path d="M83.8911 49.6168C84.363 49.6522 84.8223 49.7858 85.2397 50.0091C85.6571 50.2324 86.0233 50.5404 86.315 50.9135C87.8858 52.9143 90.227 57.6197 86.7999 65.6247C84.0197 72.0352 81.7686 78.6629 80.0694 85.4414C80.0694 85.4414 82.049 85.045 82.049 86.6304C82.049 88.2157 80.4653 87.423 82.049 88.2157C83.6326 89.0084 83.2367 87.8194 83.6326 89.0084C84.0461 90.2502 83.5959 90.195 84.5371 90.649C85.4829 91.1718 86.3072 91.8893 86.9558 92.7543C87.1339 92.9913 87.3486 93.1985 87.5917 93.368L102.241 100.898C102.241 100.898 104.22 108.825 98.2814 108.825C98.2814 108.825 61.8574 98.5204 62.6492 90.5937C63.4233 82.8441 64.9543 48.1976 83.8911 49.6168Z" fill="#D0CDE1"/>
<path d="M76.1105 149.647V159.952L65.0249 159.159L67.4004 148.855L76.1105 149.647Z" fill="#A0616A"/>
<path d="M68.192 154.404C68.192 154.404 77.298 150.044 77.298 153.215C77.298 156.385 83.6327 165.501 83.6327 165.501C83.6327 165.501 94.3223 182.147 80.4654 179.373C66.6084 176.598 67.0043 170.653 67.0043 170.653C67.0043 170.653 61.8574 167.086 61.8574 165.105C61.8574 163.123 64.6628 154.388 66.0315 154.792C66.3942 154.922 66.7845 154.954 67.1635 154.886C67.5425 154.818 67.8971 154.651 68.192 154.404Z" fill="#2F2E41"/>
<path d="M57.1064 98.124C57.1064 98.124 85.2163 91.7827 84.0286 102.087C82.8408 112.392 81.6531 118.337 81.6531 118.337L76.9021 152.025L65.8165 150.836L65.0247 144.495C65.0247 144.495 62.6492 142.117 63.837 140.532C65.0247 138.946 61.8574 123.489 61.8574 123.489C61.8574 123.489 42.8536 127.453 41.2699 115.959C39.6863 104.465 43.6454 100.898 43.6454 100.898L57.1064 98.124Z" fill="#2F2E41"/>
</g>
<defs>
<clipPath id="clip0">
<rect width="315" height="178.718" fill="white" transform="translate(0 0.966797)"/>
</clipPath>
</defs>
</svg>
